SplineFontDB: 3.2
FontName: D-DIN-PRO-Light
FullName: D-DIN-PRO-Light
FamilyName: D-DIN-PRO
Weight: Regular
Copyright: Copyright (c) CyberFei. All rights reserved
Version: 1.1.0
ItalicAngle: 0
UnderlinePosition: -150
UnderlineWidth: 50
Ascent: 831
Descent: 169
InvalidEm: 0
sfntRevision: 0x00010000
LayerCount: 2
Layer: 0 0 "Back" 1
Layer: 1 0 "Fore" 0
XUID: [1021 868 -1451673819 26657]
StyleMap: 0x0040
FSType: 4
OS2Version: 3
OS2_WeightWidthSlopeOnly: 0
OS2_UseTypoMetrics: 0
CreationTime: 1462909513
ModificationTime: 1778060075
PfmFamily: 17
TTFWeight: 300
TTFWidth: 5
LineGap: 86
VLineGap: 0
Panose: 2 11 5 4 3 2 2 3 2 4
OS2TypoAscent: 831
OS2TypoAOffset: 0
OS2TypoDescent: -169
OS2TypoDOffset: 0
OS2TypoLinegap: 86
OS2WinAscent: 902
OS2WinAOffset: 0
OS2WinDescent: 184
OS2WinDOffset: 0
HheadAscent: 831
HheadAOffset: 0
HheadDescent: -169
HheadDOffset: 0
OS2SubXSize: 650
OS2SubYSize: 600
OS2SubXOff: 0
OS2SubYOff: 75
OS2SupXSize: 650
OS2SupYSize: 600
OS2SupXOff: 0
OS2SupYOff: 350
OS2StrikeYSize: 50
OS2StrikeYPos: 304
OS2CapHeight: 690
OS2XHeight: 507
OS2Vendor: 'MONO'
OS2CodePages: 20000001.00000000
OS2UnicodeRanges: 8000006f.4000000a.00000000.00000000
Lookup: 1 0 0 "'rtla' Right to Left Alternates lookup 0" { "'rtla' Right to Left Alternates lookup 0 subtable"  } ['rtla' ('DFLT' <'dflt' > ) ]
Lookup: 1 0 0 "'sups' Superscript lookup 1" { "'sups' Superscript lookup 1 subtable" ("superior") } ['sups' ('DFLT' <'dflt' > ) ]
Lookup: 4 0 0 "'frac' Diagonal Fractions lookup 2" { "'frac' Diagonal Fractions lookup 2 subtable"  } ['frac' ('DFLT' <'dflt' > ) ]
Lookup: 4 0 0 "'dlig' Discretionary Ligatures in Latin lookup 3" { "'dlig' Discretionary Ligatures in Latin lookup 3 subtable"  } ['dlig' ('latn' <'dflt' > ) ]
Lookup: 4 0 1 "'liga' Standard Ligatures in Latin lookup 4" { "'liga' Standard Ligatures in Latin lookup 4 subtable"  } ['liga' ('latn' <'dflt' > ) ]

StartChar: .notdef
Encoding: 65536 -1 0
Width: 601
GlyphClass: 1
Flags: W
LayerCount: 2
Fore
SplineSet
490.435546875 688.9296875 m 1
 100.795898438 688.9296875 l 1
 100.795898438 0.4296875 l 1
 490.435546875 0.4296875 l 1
 490.435546875 688.9296875 l 1
471.055664062 19.8095703125 m 1
 120.17578125 19.8095703125 l 1
 120.17578125 669.549804688 l 1
 471.055664062 669.549804688 l 1
 471.055664062 19.8095703125 l 1
EndSplineSet
EndChar

StartChar: exclam
Encoding: 33 33 3
Width: 233
GlyphClass: 2
Flags: MW
VStem: 74.2754 75.4805<0.429688 79.9902 0.429688 79.9902> 91.4023 42.2471<200.35 200.35>
LayerCount: 2
Fore
SplineSet
147.49609375 688.9296875 m 1x40
 77.5556640625 688.9296875 l 1
 91.40234375 200.349609375 l 1
 133.649414062 200.349609375 l 1
 147.49609375 688.9296875 l 1x40
149.755859375 79.990234375 m 1x80
 74.275390625 79.990234375 l 1
 74.275390625 0.4296875 l 1
 149.755859375 0.4296875 l 1
 149.755859375 79.990234375 l 1x80
EndSplineSet
EndChar

StartChar: quotedbl
Encoding: 34 34 4
Width: 303
GlyphClass: 2
Flags: MW
HStem: 469.63 219.3<51.8359 103.855 51.8359 103.855 190.556 242.576 51.8359 242.576>
LayerCount: 2
Fore
SplineSet
103.85546875 688.9296875 m 1
 51.8359375 688.9296875 l 1
 51.8359375 469.629882812 l 1
 103.85546875 469.629882812 l 1
 103.85546875 688.9296875 l 1
242.576171875 688.9296875 m 1
 190.555664062 688.9296875 l 1
 190.555664062 469.629882812 l 1
 242.576171875 469.629882812 l 1
 242.576171875 688.9296875 l 1
EndSplineSet
EndChar

StartChar: numbersign
Encoding: 35 35 5
Width: 510
GlyphClass: 2
Flags: W
LayerCount: 2
Fore
SplineSet
383.25 439.030273438 m 1
 478.196289062 439.030273438 l 1
 478.196289062 479.830078125 l 1
 388.381835938 479.830078125 l 1
 415.921875 688.9296875 l 1
 370.155273438 688.9296875 l 1
 342.615234375 479.830078125 l 1
 186.421875 479.830078125 l 1
 213.961914062 688.9296875 l 1
 169.21484375 688.9296875 l 1
 141.674804688 479.830078125 l 1
 47.755859375 479.830078125 l 1
 47.755859375 439.030273438 l 1
 136.541992188 439.030273438 l 1
 114.141601562 267.669921875 l 1
 23.275390625 267.669921875 l 1
 23.275390625 225.849609375 l 1
 107.986328125 225.849609375 l 1
 78.40625 0.4296875 l 1
 124.173828125 0.4296875 l 1
 153.752929688 225.849609375 l 1
 309.946289062 225.849609375 l 1
 280.366210938 0.4296875 l 1
 326.133789062 0.4296875 l 1
 355.712890625 225.849609375 l 1
 453.715820312 225.849609375 l 1
 453.715820312 267.669921875 l 1
 360.849609375 267.669921875 l 1
 383.25 439.030273438 l 1
158.889648438 267.669921875 m 1
 181.290039062 439.030273438 l 1
 337.481445312 439.030273438 l 1
 315.08203125 267.669921875 l 1
 158.889648438 267.669921875 l 1
EndSplineSet
EndChar

StartChar: dollar
Encoding: 36 36 6
Width: 455
GlyphClass: 2
Flags: MW
HStem: 318.629 49.1289 327.855 52.9248<194.636 194.637> 608.229 49.9248<185.629 194.636>
VStem: 32.124 55.165<198.31 198.31> 42.6562 56.1006<464.633 501.512 449.175 512.957> 336.789 54.9287<497.169 497.169> 345.596 56.1006<177.427 232.214 177.427 242.55>
LayerCount: 2
Fore
SplineSet
401.696289062 202.900390625 m 0x72
 401.696289062 261.52734375 386.359375 344.676757812 262.08203125 367.7578125 c 0
 254.220703125 369.14453125 246.358398438 370.532226562 238.49609375 371.919921875 c 1
 238.49609375 611.051757812 l 1
 247.65234375 609.220703125 l 2
 300.576171875 598.635742188 330.3203125 559.692382812 336.7890625 497.168945312 c 1
 391.717773438 497.168945312 l 1
 386.224609375 546.340820312 371.119140625 583.453125 347.131835938 609.262695312 c 0
 321.606445312 636.724609375 287.953125 653.122070312 245.203125 658.385742188 c 2
 238.49609375 659.211914062 l 1
 238.49609375 740.948242188 l 1
 194.635742188 740.948242188 l 1
 194.635742188 658.154296875 l 1
 170.443359375 655.30859375 121.404296875 649.5390625 82.03125 605.305664062 c 0
 55.9453125 576 42.65625 537.4140625 42.65625 488.5 c 0xac
 42.65625 440.766601562 54.5595703125 405.34765625 77.3134765625 381.012695312 c 0
 100.333984375 356.392578125 134.669921875 339.108398438 181.146484375 329.783203125 c 2
 194.635742188 327.85546875 l 1
 194.635742188 77.513671875 l 1
 163.051757812 83.041015625 99.65625 94.515625 87.2890625 198.309570312 c 1
 32.1240234375 198.309570312 l 1
 39.46484375 123.748046875 74.0478515625 41.5859375 187.83984375 28.943359375 c 2
 194.63671875 28.1875 l 1
 194.63671875 -59.75 l 1
 238.497070312 -59.75 l 1
 238.497070312 29.23828125 l 1
 264.303710938 31.990234375 318.98046875 37.822265625 360.375976562 82.62890625 c 0
 387.736328125 112.2421875 401.696289062 151.953125 401.696289062 202.900390625 c 0x72
98.7568359375 493.599609375 m 0
 98.7568359375 509.423828125 99.0185546875 592.682617188 185.62890625 608.229492188 c 2
 194.63671875 609.846679688 l 1
 194.63671875 380.780273438 l 1x68
 160.83984375 389.23046875 98.7568359375 404.750976562 98.7568359375 493.599609375 c 0
238.497070312 76.861328125 m 1
 238.497070312 318.62890625 l 1
 292.330078125 306.029296875 345.595703125 287.30078125 345.595703125 197.799804688 c 0xa2
 345.595703125 148.622070312 328.251953125 88.8291015625 247.166015625 78.017578125 c 2
 238.497070312 76.861328125 l 1
115.5859375 694.540039062 m 1024
EndSplineSet
EndChar

StartChar: percent
Encoding: 37 37 7
Width: 834
GlyphClass: 2
Flags: MW
HStem: -5.69141 43.8604<644.308 680.871 644.308 697.94> 272.77 43.8604<131.247 167.81 131.247 184.879> 372.728 44.8818<644.602 694.288> 651.189 44.8809<131.542 181.227>
VStem: 40.6162 54.0596<354.491 551.739 419.139 551.739 551.739 557.86> 218.096 55.0801<416.08 419.139 419.139 551.739> 553.676 54.0605<76.0298 273.278 140.678 273.278 273.278 279.399> 731.156 55.0801<137.619 140.678 140.678 273.278>
LayerCount: 2
Fore
SplineSet
40.6162109375 416.080078125 m 2
 40.6162109375 292.901367188 100.05078125 272.76953125 156.385742188 272.76953125 c 0
 213.373046875 272.76953125 273.17578125 293.743164062 273.17578125 416.080078125 c 2
 273.17578125 557.860351562 l 2
 273.17578125 671.340820312 218.899414062 696.0703125 156.385742188 696.0703125 c 0
 104.291992188 696.0703125 40.6162109375 676.067382812 40.6162109375 557.860351562 c 2
 40.6162109375 416.080078125 l 2
622.954101562 688.9296875 m 1
 576.086914062 688.9296875 l 1
 203.897460938 0.4296875 l 1
 250.764648438 0.4296875 l 1
 622.954101562 688.9296875 l 1
156.385742188 651.189453125 m 0
 206.068359375 651.189453125 218.095703125 613.565429688 218.095703125 551.739257812 c 2
 218.095703125 419.138671875 l 2
 218.095703125 384.62890625 214.544921875 359.356445312 206.041015625 342.733398438 c 0
 196.979492188 325.021484375 179.234375 316.629882812 156.385742188 316.629882812 c 0
 106.108398438 316.629882812 94.67578125 355.893554688 94.67578125 419.138671875 c 2
 94.67578125 551.739257812 l 2
 94.67578125 613.5546875 106.697265625 651.189453125 156.385742188 651.189453125 c 0
553.67578125 137.619140625 m 2
 553.67578125 14.4404296875 613.110351562 -5.69140625 669.446289062 -5.69140625 c 0
 726.43359375 -5.69140625 786.236328125 15.2822265625 786.236328125 137.619140625 c 2
 786.236328125 279.399414062 l 2
 786.236328125 392.879882812 731.959960938 417.609375 669.446289062 417.609375 c 0
 617.3515625 417.609375 553.67578125 397.606445312 553.67578125 279.399414062 c 2
 553.67578125 137.619140625 l 2
669.446289062 372.727539062 m 0
 719.12890625 372.727539062 731.15625 335.104492188 731.15625 273.278320312 c 2
 731.15625 140.677734375 l 2
 731.15625 106.16796875 727.60546875 80.89453125 719.100585938 64.2724609375 c 0
 710.0390625 46.560546875 692.294921875 38.1689453125 669.446289062 38.1689453125 c 0
 619.168945312 38.1689453125 607.736328125 77.431640625 607.736328125 140.677734375 c 2
 607.736328125 273.278320312 l 2
 607.736328125 335.09375 619.7578125 372.727539062 669.446289062 372.727539062 c 0
EndSplineSet
EndChar

StartChar: ampersand
Encoding: 38 38 8
Width: 598
GlyphClass: 2
Flags: MW
HStem: -9.77051 48.9609<207.576 254.337 207.576 264.687> 0.429688 51<506.483 515.426 515.426 531.235 506.483 531.235> 653.23 45.8994<226.599 267.735 226.599 272.471>
VStem: 57.9561 54.0615<143.75 196.591> 106.916 54.0605<548.996 580.456> 332.335 53.041<551.382 581.807 529.568 589.737>
LayerCount: 2
Fore
SplineSet
531.235351562 0.4296875 m 1x74
 531.235351562 51.4296875 l 1
 515.42578125 51.4296875 l 2
 497.540039062 51.4296875 481.923828125 62.9580078125 468.365234375 82.224609375 c 2
 429.495117188 137.75390625 l 1
 511.1875 247.685546875 l 1
 474.784179688 279.442382812 l 1
 399.955078125 179.669921875 l 1
 263.490234375 374.461914062 l 1
 352.068359375 452.302734375 385.375976562 497.196289062 385.375976562 561.940429688 c 0
 385.375976562 601.673828125 372.5390625 634.018554688 346.784179688 660.095703125 c 0
 321.102539062 686.09765625 288.303710938 699.129882812 247.166015625 699.129882812 c 0
 206.03125 699.129882812 172.845703125 686.091796875 146.4609375 660.028320312 c 0
 120.098632812 633.987304688 106.916015625 601.01171875 106.916015625 559.900390625 c 0x6c
 106.916015625 538.090820312 112.344726562 516.353515625 123.432617188 494.50390625 c 0
 136.000976562 469.736328125 159.725585938 432.77734375 195.046875 381.20703125 c 1
 99.84765625 295.806640625 57.9560546875 234.142578125 57.9560546875 159.040039062 c 0
 57.9560546875 107.453125 72.392578125 66.8916015625 100.798828125 36.2255859375 c 0
 129.029296875 5.7490234375 168.473632812 -9.7705078125 220.645507812 -9.7705078125 c 0xb4
 308.728515625 -9.7705078125 357.798828125 44.88671875 396.4609375 93.212890625 c 1
 431.915039062 43.08984375 l 2
 455.751953125 8.6591796875 472.176757812 0.4296875 504.205078125 0.4296875 c 2
 531.235351562 0.4296875 l 1x74
160.9765625 561.940429688 m 0
 160.9765625 618.665039062 198.301757812 653.23046875 247.165039062 653.23046875 c 0
 297.77734375 653.23046875 332.334960938 616.513671875 332.334960938 562.959960938 c 0
 332.334960938 539.803710938 326.123046875 518.248046875 313.823242188 498.711914062 c 0
 299.385742188 475.78125 272.973632812 449.913085938 234.578125 415.864257812 c 1
 177.05859375 498.635742188 160.9765625 526.275390625 160.9765625 561.940429688 c 0
224.727539062 39.1904296875 m 0xb4
 190.423828125 39.1904296875 162.354492188 50.294921875 142.03515625 72.830078125 c 0
 121.797851562 95.2763671875 112.017578125 125.399414062 112.017578125 162.099609375 c 0
 112.017578125 233.965820312 165.702148438 289.069335938 224.056640625 340.817382812 c 1
 366.8046875 135.346679688 l 1
 321.420898438 76.470703125 283.947265625 39.1904296875 224.727539062 39.1904296875 c 0xb4
EndSplineSet
EndChar

StartChar: quotesingle
Encoding: 39 39 9
Width: 165
GlyphClass: 2
Flags: MW
HStem: 469.63 219.3<51.8359 103.855 51.8359 103.855>
VStem: 51.8359 52.0195<469.63 688.93 469.63 688.93>
LayerCount: 2
Fore
SplineSet
103.85546875 688.9296875 m 1
 51.8359375 688.9296875 l 1
 51.8359375 469.629882812 l 1
 103.85546875 469.629882812 l 1
 103.85546875 688.9296875 l 1
EndSplineSet
EndChar

StartChar: parenleft
Encoding: 40 40 10
Width: 282
GlyphClass: 2
Flags: MW
VStem: 57.9561 55.0801<255.3 368.399 219.538 400.057>
LayerCount: 2
Fore
SplineSet
113.036132812 327.33984375 m 0
 113.036132812 409.458007812 124.78515625 564.966796875 211.301757812 739.9296875 c 1
 175.979492188 739.9296875 l 1
 97.2265625 610.188476562 57.9560546875 472.774414062 57.9560546875 327.33984375 c 0
 57.9560546875 183.259765625 96.892578125 45.837890625 175.000976562 -85.25 c 1
 211.192382812 -85.25 l 1
 191.509765625 -46.16796875 113.036132812 111.735351562 113.036132812 327.33984375 c 0
EndSplineSet
Substitution2: "'rtla' Right to Left Alternates lookup 0 subtable" parenright
EndChar

StartChar: parenright
Encoding: 41 41 11
Width: 282
GlyphClass: 2
Flags: MW
VStem: 161.996 54.0605<282.974 400.736 255.3 425.182>
LayerCount: 2
Fore
SplineSet
62.712890625 739.9296875 m 1
 94.4296875 675.823242188 161.99609375 523.0234375 161.99609375 327.33984375 c 0
 161.99609375 238.608398438 147.248046875 82.34375 62.8212890625 -85.25 c 1
 99.01171875 -85.25 l 1
 177.120117188 45.837890625 216.056640625 183.259765625 216.056640625 327.33984375 c 0
 216.056640625 474.1328125 176.783203125 611.538085938 98.056640625 739.9296875 c 1
 62.712890625 739.9296875 l 1
EndSplineSet
Substitution2: "'rtla' Right to Left Alternates lookup 0 subtable" parenleft
EndChar

StartChar: asterisk
Encoding: 42 42 12
Width: 373
GlyphClass: 2
Flags: MW
HStem: 423.73 265.199<167.096 197.696 167.096 197.696>
LayerCount: 2
Fore
SplineSet
167.095703125 535.45703125 m 1
 167.095703125 423.73046875 l 1
 197.696289062 423.73046875 l 1
 197.696289062 535.379882812 l 1
 291.16796875 481.66015625 l 1
 304.149414062 505.028320312 l 1
 209.35546875 559.965820312 l 1
 304.118164062 613.80859375 l 1
 291.16796875 637.119140625 l 1
 197.696289062 583.399414062 l 1
 197.696289062 688.9296875 l 1
 167.095703125 688.9296875 l 1
 167.095703125 583.323242188 l 1
 74.484375 637.166992188 l 1
 60.8125 613.729492188 l 1
 155.436523438 559.965820312 l 1
 60.779296875 505.107421875 l 1
 74.484375 481.61328125 l 1
 167.095703125 535.45703125 l 1
EndSplineSet
EndChar

StartChar: plus
Encoding: 43 43 13
Width: 511
GlyphClass: 2
Flags: W
LayerCount: 2
Fore
SplineSet
225.236328125 248.290039062 m 1
 225.236328125 78.9697265625 l 1
 277.255859375 78.9697265625 l 1
 277.255859375 248.290039062 l 1
 446.576171875 248.290039062 l 1
 446.576171875 300.309570312 l 1
 277.255859375 300.309570312 l 1
 277.255859375 469.629882812 l 1
 225.236328125 469.629882812 l 1
 225.236328125 300.309570312 l 1
 55.916015625 300.309570312 l 1
 55.916015625 248.290039062 l 1
 225.236328125 248.290039062 l 1
EndSplineSet
EndChar

StartChar: comma
Encoding: 44 44 14
Width: 165
GlyphClass: 2
Flags: MW
VStem: 51.8359 52.0195<-80.4121 79.9902 -80.4121 79.9902 -129.279 79.9902>
LayerCount: 2
Fore
SplineSet
103.85546875 79.990234375 m 1
 51.8359375 79.990234375 l 1
 51.8359375 -129.279296875 l 1
 103.85546875 -80.412109375 l 1
 103.85546875 79.990234375 l 1
EndSplineSet
EndChar

StartChar: hyphen
Encoding: 45 45 15
Width: 389
GlyphClass: 2
Flags: MW
HStem: 320.71 52.0205<57.9561 323.156 57.9561 323.156>
VStem: 57.9561 265.2<320.71 372.73 320.71 372.73>
LayerCount: 2
Fore
SplineSet
323.15625 372.73046875 m 1
 57.9560546875 372.73046875 l 1
 57.9560546875 320.709960938 l 1
 323.15625 320.709960938 l 1
 323.15625 372.73046875 l 1
EndSplineSet
EndChar

StartChar: period
Encoding: 46 46 16
Width: 188
GlyphClass: 2
Flags: MW
HStem: 0.429688 78.54<51.8359 126.296 51.8359 126.296>
VStem: 51.8359 74.46<0.429688 78.9697 0.429688 78.9697>
LayerCount: 2
Fore
SplineSet
126.295898438 78.9697265625 m 1
 51.8359375 78.9697265625 l 1
 51.8359375 0.4296875 l 1
 126.295898438 0.4296875 l 1
 126.295898438 78.9697265625 l 1
EndSplineSet
EndChar

StartChar: slash
Encoding: 47 47 17
Width: 388
GlyphClass: 2
Flags: W
LayerCount: 2
Fore
SplineSet
319.446289062 688.9296875 m 1
 274.248046875 688.9296875 l 1
 60.6455078125 -9.7705078125 l 1
 105.84375 -9.7705078125 l 1
 319.446289062 688.9296875 l 1
EndSplineSet
EndChar

StartChar: zero
Encoding: 48 48 18
Width: 491
GlyphClass: 2
Flags: MW
HStem: -9.77051 52.0205<220.462 261.63 220.462 284.745> 647.11 52.0195<220.462 261.63>
VStem: 65.0957 59.1592<117.759 467.08 222.28 467.08 467.08 485.44> 358.854 59.1611<208 222.28 222.28 467.08>
LayerCount: 2
Fore
SplineSet
241.045898438 699.129882812 m 0
 153.280273438 699.129882812 65.095703125 661.36328125 65.095703125 485.440429688 c 2
 65.095703125 208 l 2
 65.095703125 27.5185546875 154.552734375 -9.7705078125 241.045898438 -9.7705078125 c 0
 328.444335938 -9.7705078125 418.015625 27.9052734375 418.015625 208 c 2
 418.015625 485.440429688 l 2
 418.015625 660.8671875 329.84375 699.129882812 241.045898438 699.129882812 c 0
241.044921875 42.25 m 0
 199.87890625 42.25 168.741210938 56.44140625 150.412109375 85.619140625 c 0
 132.390625 114.306640625 124.254882812 159.811523438 124.254882812 222.280273438 c 2
 124.254882812 467.080078125 l 2
 124.254882812 529.548828125 132.390625 575.053710938 150.412109375 603.741210938 c 0
 168.741210938 632.91796875 199.87890625 647.110351562 241.044921875 647.110351562 c 0
 282.21484375 647.110351562 313.481445312 632.922851562 332.150390625 603.80078125 c 0
 350.547851562 575.100585938 358.854492188 529.557617188 358.854492188 467.080078125 c 2
 358.854492188 222.280273438 l 2
 358.854492188 159.801757812 350.548828125 114.258789062 332.151367188 85.5595703125 c 0
 313.482421875 56.4365234375 282.215820312 42.25 241.044921875 42.25 c 0
EndSplineSet
EndChar

StartChar: one
Encoding: 49 49 19
Width: 324
GlyphClass: 2
Flags: W
LayerCount: 2
Fore
SplineSet
170.15625 626.172851562 m 1
 170.15625 0.4296875 l 1
 228.295898438 0.4296875 l 1
 228.295898438 688.9296875 l 1
 164.091796875 688.9296875 l 1
 48.775390625 600 l 1
 48.775390625 535.393554688 l 1
 170.15625 626.172851562 l 1
EndSplineSet
Substitution2: "'sups' Superscript lookup 1 subtable" uni00B9
EndChar

StartChar: two
Encoding: 50 50 20
Width: 466
GlyphClass: 2
Flags: MW
HStem: 648.129 51<210 259.85>
VStem: 57.9551 58.1396<515.529 526.239 526.239 530.319 515.529 526.239> 339.475 60.1816<515.019 515.02 515.02 530.32>
LayerCount: 2
Fore
SplineSet
399.65625 532.359375 m 2
 399.65625 626.96484375 333.286132812 699.12890625 228.8046875 699.12890625 c 0
 175.943359375 699.12890625 134.827148438 683.583984375 104.163085938 652.920898438 c 0
 73.4580078125 622.215820312 57.955078125 581.768554688 57.955078125 530.319335938 c 2
 57.955078125 515.529296875 l 1
 116.094726562 515.529296875 l 1
 116.094726562 526.239257812 l 2
 116.094726562 564.828125 125.578125 595.395507812 145.731445312 616.66796875 c 0
 165.74609375 637.794921875 193.234375 648.12890625 226.764648438 648.12890625 c 0
 292.935546875 648.12890625 339.474609375 605.133789062 339.474609375 530.3203125 c 2
 339.474609375 515.01953125 l 2
 339.474609375 474.87890625 323.751953125 432.329101562 293.284179688 387.319335938 c 2
 57.9560546875 50.552734375 l 1
 57.9560546875 0.4296875 l 1
 399.65625 0.4296875 l 1
 399.65625 51.4296875 l 1
 127.48046875 51.4296875 l 1
 135.818359375 63.4365234375 l 1
 135.818359375 63.4365234375 339.818359375 357.196289062 339.927734375 357.350585938 c 0
 390.973632812 427.111328125 399.65625 475.788085938 399.65625 515.018554688 c 2
 399.65625 532.359375 l 2
EndSplineSet
Substitution2: "'sups' Superscript lookup 1 subtable" uni00B2
EndChar

StartChar: three
Encoding: 51 51 21
Width: 494
GlyphClass: 2
Flags: MW
HStem: -9.77051 50.9971<220.285 256.802 220.285 264.724> 331.928 52.0205<203.816 231.867 203.816 232.887 203.816 273.154> 648.128 51<218.88 264.438 211.154 271.323>
VStem: 59.9971 59.1602<125.885 159.547 153.937 159.547 153.937 159.547> 68.1572 56.0996<526.748 535.418 535.418 537.458 526.748 535.418> 349.677 58.1387<472.531 532.358 509.918 528.278> 360.896 59.1592<151.882 199.839 175.359 197.798>
LayerCount: 2
Fore
SplineSet
232.88671875 331.927734375 m 2xec
 313.420898438 331.927734375 360.896484375 278.575195312 360.896484375 197.797851562 c 2
 360.896484375 171.278320312 l 2
 360.896484375 132.486328125 350.223632812 100.625976562 328.268554688 76.8408203125 c 0
 306.208984375 52.9423828125 275.616210938 41.2265625 237.987304688 41.2265625 c 0
 202.583007812 41.2265625 173.426757812 51.0625 151.682617188 71.3310546875 c 0
 129.85546875 91.677734375 119.157226562 119.700195312 119.157226562 153.936523438 c 2
 119.157226562 159.546875 l 1
 59.9970703125 159.546875 l 1
 59.9970703125 150.876953125 l 2
 59.9970703125 100.893554688 75.8955078125 62.3046875 107.465820312 33.6337890625 c 0
 139.09375 4.9111328125 181.889648438 -9.7705078125 236.965820312 -9.7705078125 c 0
 292.481445312 -9.7705078125 336.33203125 7.0830078125 369.767578125 40.5185546875 c 0
 403.165039062 73.9150390625 420.055664062 118.435546875 420.055664062 175.359375 c 2
 420.055664062 199.838867188 l 2xf2
 420.055664062 222.53515625 418.426757812 322.518554688 324.04296875 357.912109375 c 2
 306.884765625 364.346679688 l 1
 323.526367188 372.028320312 l 2
 336.134765625 377.846679688 407.815429688 412.33984375 407.815429688 509.91796875 c 2
 407.815429688 532.358398438 l 2
 407.815429688 583.831054688 392.465820312 623.9140625 362.146484375 653.911132812 c 0
 331.84765625 683.887695312 290.888671875 699.127929688 237.987304688 699.127929688 c 0
 184.3203125 699.127929688 143.1640625 684.325195312 113.254882812 655.380859375 c 0
 83.30859375 626.401367188 68.1572265625 587.543945312 68.1572265625 537.458007812 c 2
 68.1572265625 526.748046875 l 1
 124.256835938 526.748046875 l 1
 124.256835938 535.41796875 l 2
 124.256835938 568.857421875 133.98828125 596.534179688 153.940429688 617.2265625 c 0
 174.002929688 638.032226562 201.813476562 648.127929688 235.947265625 648.127929688 c 0
 306.698242188 648.127929688 349.676757812 599.787109375 349.676757812 528.278320312 c 2
 349.676757812 507.877929688 l 2
 349.676757812 437.184570312 307.384765625 383.948242188 231.8671875 383.948242188 c 2
 203.81640625 383.948242188 l 1
 203.81640625 331.927734375 l 1
 232.88671875 331.927734375 l 2xec
EndSplineSet
Substitution2: "'sups' Superscript lookup 1 subtable" uni00B3
EndChar

StartChar: four
Encoding: 52 52 22
Width: 498
GlyphClass: 2
Flags: W
LayerCount: 2
Fore
SplineSet
368.036132812 0.4296875 m 1
 368.036132812 138.129882812 l 1
 444.536132812 138.129882812 l 1
 444.536132812 190.150390625 l 1
 368.036132812 190.150390625 l 1
 368.036132812 381.91015625 l 1
 308.875976562 381.91015625 l 1
 308.875976562 190.150390625 l 1
 99.958984375 190.150390625 l 1
 311.098632812 688.9296875 l 1
 253.255859375 688.9296875 l 1
 44.6962890625 196.244140625 l 1
 44.6962890625 138.129882812 l 1
 308.875976562 138.129882812 l 1
 308.875976562 0.4296875 l 1
 368.036132812 0.4296875 l 1
EndSplineSet
EndChar

StartChar: five
Encoding: 53 53 23
Width: 482
GlyphClass: 2
Flags: MW
HStem: -9.77051 52.0205<208.725 263.388> 390.07 52.0195<237.599 283.938>
VStem: 65.0947 56.1006<121.442 151.39 145.78 151.39> 76.3145 53.04<383.904 635.89 383.904 688.93> 349.675 59.1602<176.38 182.5 182.5 248.8>
LayerCount: 2
Fore
SplineSet
234.924804688 42.25 m 0xd8
 161.129882812 42.25 121.388671875 83.6025390625 121.1953125 151.389648438 c 1
 65.0947265625 151.389648438 l 1
 65.0947265625 145.780273438 l 2xe8
 65.0947265625 97.103515625 80.1953125 59.6806640625 110.067382812 32.056640625 c 0
 139.935546875 4.4365234375 181.502929688 -9.7705078125 235.946289062 -9.7705078125 c 0
 290.830078125 -9.7705078125 332.68359375 6.59765625 362.970703125 38.8173828125 c 0
 393.2578125 71.0380859375 408.834960938 116.484375 408.834960938 176.379882812 c 2
 408.834960938 252.879882812 l 2
 408.834960938 346.005859375 377.102539062 442.08984375 246.14453125 442.08984375 c 0
 229.053710938 442.08984375 178.485351562 438.5 142.692382812 398.725585938 c 2
 129.354492188 383.904296875 l 1
 129.354492188 635.889648438 l 1
 397.615234375 635.889648438 l 1
 397.615234375 688.9296875 l 1
 76.314453125 688.9296875 l 1
 76.314453125 318.669921875 l 1
 128.549804688 318.669921875 l 1
 143.651367188 358.389648438 178.72265625 390.0703125 235.9453125 390.0703125 c 0
 331.9296875 390.0703125 349.674804688 314.705078125 349.674804688 248.799804688 c 2
 349.674804688 182.5 l 2
 349.674804688 139.969726562 343.022460938 42.25 234.924804688 42.25 c 0xd8
EndSplineSet
EndChar

StartChar: six
Encoding: 54 54 24
Width: 493
GlyphClass: 2
Flags: MW
HStem: -9.77051 51.001<213.621 260.943 203.991 262.575> 349.27 52.0205<256.929 279.844>
VStem: 57.9551 60.1807<179.44 180.46 180.46 214.12 214.12 215.14> 367.017 59.1582<158.019 217.18 182.5 213.099>
LayerCount: 2
Fore
SplineSet
242.065429688 -9.7705078125 m 0
 283.084960938 -9.7705078125 359.012695312 1.6484375 402.146484375 79.11328125 c 0
 418.064453125 107.701171875 426.174804688 142.051757812 426.174804688 182.5 c 2
 426.174804688 217.1796875 l 2
 426.174804688 274.247070312 410.516601562 318.704101562 379.776367188 351.708984375 c 0
 349 384.751953125 308.983398438 401.290039062 258.384765625 401.290039062 c 0
 255.47265625 401.290039062 212.546875 400.955078125 186.46875 381.396484375 c 2
 160.928710938 362.241210938 l 1
 321.577148438 688.9296875 l 1
 261.092773438 688.9296875 l 1
 98.984375 361.69140625 l 2
 62.0673828125 287.854492188 57.955078125 245.689453125 57.955078125 215.139648438 c 2
 57.955078125 180.459960938 l 2
 57.955078125 121.4140625 74.7490234375 75.4951171875 107.8125 41.458984375 c 0
 140.873046875 7.4267578125 185.176757812 -9.7705078125 242.065429688 -9.7705078125 c 0
242.06640625 349.26953125 m 0
 317.62109375 349.26953125 367.016601562 297.704101562 367.016601562 213.098632812 c 2
 367.016601562 178.418945312 l 2
 367.016601562 137.618164062 356.029296875 104.104492188 333.436523438 78.9599609375 c 0
 310.7734375 53.7392578125 279.822265625 41.23046875 242.064453125 41.23046875 c 0
 165.916992188 41.23046875 118.135742188 94.119140625 118.135742188 179.440429688 c 2
 118.135742188 214.120117188 l 2
 118.135742188 254.913085938 129.1171875 288.142578125 151.791015625 312.643554688 c 0
 174.446289062 337.125 205.0078125 349.26953125 242.06640625 349.26953125 c 0
EndSplineSet
EndChar

StartChar: seven
Encoding: 55 55 25
Width: 428
GlyphClass: 2
Flags: W
LayerCount: 2
Fore
SplineSet
381.295898438 688.9296875 m 1
 38.576171875 688.9296875 l 1
 38.576171875 636.91015625 l 1
 328.487304688 636.91015625 l 1
 95.9267578125 0.4296875 l 1
 154.0703125 0.4296875 l 1
 381.295898438 630.6015625 l 1
 381.295898438 688.9296875 l 1
EndSplineSet
EndChar

StartChar: eight
Encoding: 56 56 26
Width: 511
GlyphClass: 2
Flags: MW
HStem: -9.77051 50.999<232.348 270.125 232.348 306.002> 337.029 51.001<232.348 268.099 215.89 270.443> 648.129 51.001<234.722 267.767>
VStem: 65.0938 59.1611<119.247 201.879 176.379 200.861> 79.374 59.1602<508.9 508.901 508.901 529.301> 364.974 59.1621<491.483 529.3 508.9 529.3 529.3 530.32> 378.233 59.1631<156.6 201.881 176.381 201.879>
LayerCount: 2
Fore
SplineSet
65.09375 175.361328125 m 2xf0
 65.09375 63.1328125 141.212890625 -9.7705078125 250.2265625 -9.7705078125 c 0
 361.778320312 -9.7705078125 437.396484375 64.591796875 437.396484375 176.380859375 c 2
 437.396484375 201.880859375 l 2xf2
 437.396484375 231.149414062 429.66796875 316.103515625 343.83203125 357.155273438 c 2
 329.712890625 363.908203125 l 1
 356.778320312 377.44140625 380.517578125 389.311523438 402.319335938 424.676757812 c 0
 416.78125 448.137695312 424.135742188 476.063476562 424.135742188 508.900390625 c 2
 424.135742188 529.299804688 l 2
 424.135742188 627.23046875 356.19921875 699.129882812 251.24609375 699.129882812 c 0
 147.36328125 699.129882812 79.3740234375 625.153320312 79.3740234375 529.30078125 c 2
 79.3740234375 508.901367188 l 2xec
 79.3740234375 476.037109375 86.57421875 448.08203125 100.720703125 424.612304688 c 0
 122.009765625 389.291992188 145.650390625 377.471679688 172.946289062 363.823242188 c 1
 143.810546875 350.2265625 114.819335938 336.697265625 90.0185546875 295.36328125 c 0
 73.4287109375 267.713867188 65.09375 236.350585938 65.09375 200.861328125 c 2
 65.09375 175.361328125 l 2xf0
251.244140625 388.030273438 m 0
 180.536132812 388.030273438 138.534179688 440.112304688 138.534179688 508.900390625 c 2
 138.534179688 530.3203125 l 2
 138.534179688 563.87109375 148.856445312 592.3203125 169.6640625 614.58984375 c 0
 190.563476562 636.955078125 218.200195312 648.12890625 251.244140625 648.12890625 c 0
 284.290039062 648.12890625 312.063476562 636.959960938 333.288085938 614.638671875 c 0
 354.453125 592.377929688 364.973632812 563.904296875 364.973632812 530.3203125 c 2
 364.973632812 508.900390625 l 2xec
 364.973632812 474.06640625 354.71484375 444.78125 333.885742188 422.125 c 0
 312.963867188 399.368164062 284.953125 388.030273438 251.244140625 388.030273438 c 0
251.244140625 41.228515625 m 0
 213.452148438 41.228515625 182.202148438 53.9306640625 158.8984375 79.419921875 c 0
 135.704101562 104.788085938 124.254882812 137.463867188 124.254882812 176.37890625 c 2
 124.254882812 201.87890625 l 2
 124.254882812 240.794921875 135.704101562 273.469726562 158.8984375 298.837890625 c 0
 182.202148438 324.327148438 213.452148438 337.029296875 251.244140625 337.029296875 c 0
 289.641601562 337.029296875 321.083984375 324.556640625 344.103515625 299.34375 c 0
 367.004882812 274.262695312 378.233398438 241.41015625 378.233398438 201.87890625 c 2
 378.233398438 176.37890625 l 2xf2
 378.233398438 136.821289062 366.810546875 103.944335938 343.552734375 78.869140625 c 0
 320.237304688 53.7314453125 289.005859375 41.228515625 251.244140625 41.228515625 c 0
EndSplineSet
EndChar

StartChar: nine
Encoding: 57 57 27
Width: 493
GlyphClass: 2
Flags: MW
HStem: 288.07 52.0195<204.291 227.216> 648.13 51<223.189 270.51 221.556 280.142>
VStem: 57.957 59.1611<443.998 510.94 476.26 506.86> 365.997 60.1787<474.22 475.24 475.24 508.9 508.9 509.92>
LayerCount: 2
Fore
SplineSet
426.17578125 474.219726562 m 2
 426.17578125 508.900390625 l 2
 426.17578125 567.946289062 409.3828125 613.865234375 376.319335938 647.901367188 c 0
 343.258789062 681.93359375 298.955078125 699.129882812 242.065429688 699.129882812 c 0
 201.046875 699.129882812 125.119140625 687.711914062 81.9853515625 610.24609375 c 0
 66.0673828125 581.659179688 57.95703125 547.307617188 57.95703125 506.860351562 c 2
 57.95703125 472.1796875 l 2
 57.95703125 415.81640625 73.5966796875 371.508789062 104.380859375 338.133789062 c 0
 135.165039062 304.7578125 175.168945312 288.0703125 225.747070312 288.0703125 c 0
 228.684570312 288.0703125 271.588867188 288.409179688 297.662109375 307.963867188 c 2
 323.052734375 327.006835938 l 1
 163.537109375 0.4296875 l 1
 224.043945312 0.4296875 l 1
 243.104492188 39.1455078125 385.09765625 327.568359375 385.137695312 327.651367188 c 0
 421.862304688 404.774414062 426.17578125 441.6796875 426.17578125 474.219726562 c 2
242.067382812 648.129882812 m 0
 318.215820312 648.129882812 365.997070312 595.241210938 365.997070312 509.919921875 c 2
 365.997070312 475.240234375 l 2
 365.997070312 434.47265625 355.208007812 401.270507812 332.895507812 376.762695312 c 0
 310.53515625 352.203125 279.76171875 340.08984375 242.067382812 340.08984375 c 0
 166.513671875 340.08984375 117.118164062 391.655273438 117.118164062 476.259765625 c 2
 117.118164062 510.940429688 l 2
 117.118164062 551.740234375 128.102539062 585.255859375 150.696289062 610.399414062 c 0
 173.359375 635.620117188 204.310546875 648.129882812 242.067382812 648.129882812 c 0
EndSplineSet
EndChar

StartChar: colon
Encoding: 58 58 28
Width: 188
GlyphClass: 2
Flags: MW
VStem: 51.8359 74.46<0.429688 78.9697 0.429688 78.9697 345.19 423.73>
LayerCount: 2
Fore
SplineSet
126.295898438 78.9697265625 m 1
 51.8359375 78.9697265625 l 1
 51.8359375 0.4296875 l 1
 126.295898438 0.4296875 l 1
 126.295898438 78.9697265625 l 1
126.295898438 423.73046875 m 1
 51.8359375 423.73046875 l 1
 51.8359375 345.190429688 l 1
 126.295898438 345.190429688 l 1
 126.295898438 423.73046875 l 1
EndSplineSet
EndChar

StartChar: semicolon
Encoding: 59 59 29
Width: 188
GlyphClass: 2
Flags: MW
VStem: 51.8359 74.46<345.19 423.73>
LayerCount: 2
Fore
SplineSet
126.295898438 423.73046875 m 1
 51.8359375 423.73046875 l 1
 51.8359375 345.190429688 l 1
 126.295898438 345.190429688 l 1
 126.295898438 423.73046875 l 1
126.295898438 79.990234375 m 1
 74.275390625 79.990234375 l 1
 74.275390625 -129.279296875 l 1
 126.295898438 -80.412109375 l 1
 126.295898438 79.990234375 l 1
EndSplineSet
EndChar

StartChar: less
Encoding: 60 60 30
Width: 511
GlyphClass: 2
Flags: W
LayerCount: 2
Fore
SplineSet
55.916015625 299.752929688 m 1
 55.916015625 249.854492188 l 1
 446.576171875 89.861328125 l 1
 446.576171875 145.68359375 l 1
 122.376953125 274.299804688 l 1
 446.576171875 402.916015625 l 1
 446.576171875 458.765625 l 1
 55.916015625 299.752929688 l 1
EndSplineSet
Substitution2: "'rtla' Right to Left Alternates lookup 0 subtable" greater
EndChar

StartChar: equal
Encoding: 61 61 31
Width: 511
GlyphClass: 2
Flags: W
LayerCount: 2
Fore
SplineSet
446.576171875 398.23046875 m 1
 55.916015625 398.23046875 l 1
 55.916015625 345.190429688 l 1
 446.576171875 345.190429688 l 1
 446.576171875 398.23046875 l 1
446.576171875 202.389648438 m 1
 55.916015625 202.389648438 l 1
 55.916015625 150.370117188 l 1
 446.576171875 150.370117188 l 1
 446.576171875 202.389648438 l 1
EndSplineSet
EndChar

StartChar: greater
Encoding: 62 62 32
Width: 511
GlyphClass: 2
Flags: W
LayerCount: 2
Fore
SplineSet
55.916015625 402.916015625 m 1
 380.114257812 274.299804688 l 1
 55.916015625 145.68359375 l 1
 55.916015625 89.861328125 l 1
 446.576171875 249.854492188 l 1
 446.576171875 299.752929688 l 1
 55.916015625 458.765625 l 1
 55.916015625 402.916015625 l 1
EndSplineSet
Substitution2: "'rtla' Right to Left Alternates lookup 0 subtable" less
EndChar

StartChar: question
Encoding: 63 63 33
Width: 426
GlyphClass: 2
Flags: MW
HStem: 647.11 52.0195<177.809 220.32>
VStem: 36.8164 58.1113<535.93 535.93> 173.216 59.1602<181.99 233.5 233.5 234.52 181.99 233.5> 312.957 59.1592<516.474 553.44>
LayerCount: 2
Fore
SplineSet
94.927734375 535.9296875 m 1
 96.6884765625 572.016601562 107.853515625 647.110351562 203.306640625 647.110351562 c 0
 237.333007812 647.110351562 264.7890625 637.618164062 284.247070312 617.786132812 c 0
 303.661132812 597.997070312 312.95703125 570.440429688 312.95703125 536.440429688 c 0
 312.95703125 494.354492188 299.495117188 465.28125 264.510742188 418.635742188 c 2
 209.4609375 344.215820312 l 2
 181.1953125 306.118164062 173.215820312 283.70703125 173.215820312 234.51953125 c 2
 173.215820312 181.990234375 l 1
 232.375976562 181.990234375 l 1
 232.375976562 233.5 l 2
 232.375976562 268.678710938 239.51953125 288.91796875 263.359375 322.57421875 c 2
 321.51171875 404.192382812 l 2
 362.609375 462.032226562 372.116210938 496.506835938 372.116210938 536.440429688 c 0
 372.116210938 585.834960938 357.134765625 624.754882812 327.4375 654.452148438 c 0
 297.826171875 684.063476562 257.56640625 699.129882812 205.344726562 699.129882812 c 0
 150.272460938 699.129882812 109.419921875 684.127929688 81.3046875 655.053710938 c 0
 54.4169921875 627.249023438 39.3330078125 587.890625 36.81640625 535.9296875 c 1
 94.927734375 535.9296875 l 1
240.537109375 79.9892578125 m 1
 165.056640625 79.9892578125 l 1
 165.056640625 0.4287109375 l 1
 240.537109375 0.4287109375 l 1
 240.537109375 79.9892578125 l 1
EndSplineSet
EndChar

StartChar: at
Encoding: 64 64 34
Width: 877
GlyphClass: 2
Flags: MW
HStem: -130.13 51.001<333.266 471.365 333.266 482.611> 57.5527 43.8604<410.489 440.931> 450.253 43.8604<389.754 452.086 389.754 457.26> 638.95 49.9814<398 530.806>
VStem: 57.9561 57.1191<245.741 246.763 246.763 316.123> 272.156 55.0801<205.792 315.103 239.623 315.103 315.103 316.123> 533.275 54.0596<216.117 234.523 234.523 318.163> 754.615 57.1211<223.344 318.163 249.823 317.141>
LayerCount: 2
Fore
SplineSet
57.9560546875 246.762695312 m 2
 57.9560546875 17.189453125 215.866210938 -130.129882812 434.844726562 -130.129882812 c 0
 530.376953125 -130.129882812 600.135742188 -112.512695312 668.9296875 -74.2900390625 c 1
 650.313476562 -30.076171875 l 1
 573.90234375 -69.025390625 507.885742188 -79.12890625 434.844726562 -79.12890625 c 0
 231.686523438 -79.12890625 115.075195312 57.77734375 115.075195312 245.741210938 c 2
 115.075195312 318.161132812 l 2
 115.075195312 513.909179688 239.859375 638.950195312 434.844726562 638.950195312 c 0
 626.767578125 638.950195312 754.615234375 517.3984375 754.615234375 317.140625 c 2
 754.615234375 248.80078125 l 2
 754.615234375 197.887695312 748 160.544921875 733.056640625 136.635742188 c 0
 718.116210938 112.73046875 695.2109375 100.391601562 666.384765625 100.391601562 c 0
 638.408203125 100.391601562 587.334960938 115.2734375 587.334960938 196.783203125 c 2
 587.334960938 483.913085938 l 1
 536.334960938 483.913085938 l 1
 536.334960938 418.6328125 l 1
 522.165039062 441.662109375 l 2
 517.012695312 450.036132812 489.725585938 494.11328125 414.446289062 494.11328125 c 0
 365.061523438 494.11328125 330.07421875 478.713867188 307.326171875 448.698242188 c 0
 284.2421875 418.240234375 272.15625 374.282226562 272.15625 316.123046875 c 2
 272.15625 234.5234375 l 2
 272.15625 177.059570312 284.228515625 133.443359375 307.326171875 102.967773438 c 0
 330.029296875 73.0107421875 365.676757812 57.552734375 416.486328125 57.552734375 c 0
 465.375 57.552734375 517.104492188 71.8837890625 540.010742188 125.331054688 c 2
 546.944335938 141.508789062 l 1
 554.048828125 125.405273438 l 2
 559.411132812 113.249023438 584.537109375 57.552734375 665.366210938 57.552734375 c 0
 708.939453125 57.552734375 743.599609375 73.19921875 770.735351562 104.857421875 c 0
 797.594726562 136.193359375 811.736328125 184.186523438 811.736328125 249.823242188 c 2
 811.736328125 318.163085938 l 2
 811.736328125 538.966796875 655.087890625 688.931640625 434.845703125 688.931640625 c 0
 361.154296875 688.931640625 296.021484375 673.215820312 239.11328125 641.93359375 c 0
 139.212890625 587.017578125 57.9560546875 479.916015625 57.9560546875 316.123046875 c 2
 57.9560546875 246.762695312 l 2
430.765625 450.252929688 m 0
 483.75390625 450.252929688 533.275390625 422.375976562 533.275390625 318.163085938 c 2
 533.275390625 234.5234375 l 2
 533.275390625 197.7109375 528.965820312 101.413085938 430.765625 101.413085938 c 0
 390.211914062 101.413085938 327.236328125 115.071289062 327.236328125 239.623046875 c 2
 327.236328125 315.102539062 l 2
 327.236328125 352.66015625 331.654296875 450.252929688 430.765625 450.252929688 c 0
EndSplineSet
EndChar

StartChar: A
Encoding: 65 65 35
Width: 577
GlyphClass: 2
Flags: W
LayerCount: 2
Fore
SplineSet
129.534179688 169.75 m 1
 439.2578125 169.75 l 1
 498.41796875 0.4296875 l 1
 560.6015625 0.4296875 l 1
 310.146484375 688.9296875 l 1
 258.64453125 688.9296875 l 1
 8.1904296875 0.4296875 l 1
 70.3740234375 0.4296875 l 1
 129.534179688 169.75 l 1
145.629882812 217.690429688 m 1
 283.857421875 615.784179688 l 1
 423.189453125 217.690429688 l 1
 145.629882812 217.690429688 l 1
EndSplineSet
EndChar

StartChar: B
Encoding: 66 66 36
Width: 615
GlyphClass: 2
Flags: MW
HStem: 0.429688 50.999<138.534 326.724 138.534 335.904 138.534 368.236> 326.829 51<138.534 321.624 138.534 327.744 138.534 340.386> 637.929 51.001<138.534 322.644 322.644 329.784 79.374 338.273>
VStem: 471.054 59.1611<485.677 539.727 481.035 570.717> 482.273 59.1602<168.471 213.825 156.119 258.632>
LayerCount: 2
Fore
SplineSet
530.21484375 510.940429688 m 0xf0
 530.21484375 568.512695312 512.700195312 611.793945312 478.219726562 642.408203125 c 0
 443.651367188 673.099609375 394.536132812 688.9296875 329.784179688 688.9296875 c 2
 79.3740234375 688.9296875 l 1
 79.3740234375 0.4296875 l 1
 335.904296875 0.4296875 l 2
 400.567382812 0.4296875 450.52734375 17.037109375 486.872070312 49.4873046875 c 0
 523.111328125 81.84375 541.43359375 126.678710938 541.43359375 185.55859375 c 0xe8
 541.43359375 242.091796875 522.317382812 318.139648438 427.477539062 347.572265625 c 2
 404.291015625 354.767578125 l 1
 427.4140625 362.16796875 l 2
 500.245117188 385.474609375 530.21484375 451.129882812 530.21484375 510.940429688 c 0xf0
322.643554688 637.928710938 m 2
 353.903320312 637.928710938 471.053710938 634.575195312 471.053710938 506.859375 c 0xf0
 471.053710938 464.494140625 457.786132812 431.397460938 430.427734375 409.584960938 c 0
 403.490234375 388.107421875 366.943359375 377.829101562 321.624023438 377.829101562 c 2
 138.534179688 377.829101562 l 1
 138.534179688 637.928710938 l 1
 322.643554688 637.928710938 l 2
327.744140625 326.829101562 m 2
 353.028320312 326.829101562 482.2734375 326.604492188 482.2734375 190.66015625 c 0xe8
 482.2734375 146.282226562 468.71484375 111.137695312 440.875976562 86.9609375 c 0
 413.215820312 62.9404296875 374.819335938 51.4287109375 326.723632812 51.4287109375 c 2
 138.534179688 51.4287109375 l 1
 138.534179688 326.829101562 l 1
 327.744140625 326.829101562 l 2
EndSplineSet
EndChar

StartChar: C
Encoding: 67 67 37
Width: 611
GlyphClass: 2
Flags: MW
HStem: -7.73047 53.0391<268.302 341.009> 646.088 52.0205<276.376 331.461>
VStem: 65.0947 59.1611<249.819 253.899 253.899 433.419 433.419 436.479> 478.166 57.1279<196.27 196.27>
LayerCount: 2
Fore
SplineSet
537.31640625 495.127929688 m 1
 535.200195312 619.037109375 444.174804688 698.108398438 305.3046875 698.108398438 c 0
 231.296875 698.108398438 173.291015625 677.0625 130.067382812 635.475585938 c 0
 87.298828125 594.327148438 65.0947265625 528.525390625 65.0947265625 436.478515625 c 2
 65.0947265625 253.899414062 l 2
 65.0947265625 161.852539062 87.2998046875 96.05078125 130.068359375 54.90234375 c 0
 173.291992188 13.3154296875 231.297851562 -7.73046875 305.305664062 -7.73046875 c 0
 376.712890625 -7.73046875 432.434570312 11.2099609375 473.576171875 48.43359375 c 0
 513.905273438 84.921875 534.541015625 133.73828125 535.293945312 196.26953125 c 1
 478.166015625 196.26953125 l 1
 476.658203125 105.623046875 414.817382812 45.30859375 306.326171875 45.30859375 c 0
 206.319335938 45.30859375 124.255859375 93.0654296875 124.255859375 249.819335938 c 2
 124.255859375 433.418945312 l 2
 124.255859375 507.059570312 139.057617188 561.545898438 170.661132812 595.69140625 c 0
 202.032226562 629.586914062 247.446289062 646.087890625 305.305664062 646.087890625 c 0
 357.6171875 646.087890625 399.973632812 632.422851562 431.279296875 604.35546875 c 0
 461.609375 577.162109375 477.165039062 540.301757812 478.146484375 495.127929688 c 1
 537.31640625 495.127929688 l 1
EndSplineSet
EndChar

StartChar: D
Encoding: 68 68 38
Width: 622
GlyphClass: 2
Flags: MW
HStem: 0.429688 52.0195<139.556 312.446 312.446 313.466 139.556 349.104> 636.909 52.0205<79.376 313.466>
VStem: 488.396 60.1807<201.571 427.299 262.059 424.239>
LayerCount: 2
Fore
SplineSet
79.3759765625 0.4296875 m 1
 312.446289062 0.4296875 l 2
 385.760742188 0.4296875 442.876953125 21.4619140625 485.0703125 63.0009765625 c 0
 526.8515625 104.133789062 548.576171875 169.98046875 548.576171875 262.05859375 c 2
 548.576171875 427.298828125 l 2
 548.576171875 519.376953125 526.8515625 585.224609375 485.0703125 626.358398438 c 0
 442.876953125 667.897460938 385.760742188 688.928710938 312.446289062 688.928710938 c 0
 234.755859375 688.928710938 157.065429688 688.9296875 79.3759765625 688.9296875 c 1
 79.3759765625 0.4296875 l 1
488.395507812 257.978515625 m 2
 488.395507812 145.1640625 447.594726562 52.44921875 313.465820312 52.44921875 c 2
 139.555664062 52.44921875 l 1
 139.555664062 636.909179688 l 1
 313.465820312 636.909179688 l 2
 368.74609375 636.909179688 412.515625 619.936523438 443.125 585.366210938 c 0
 473.91015625 550.596679688 488.395507812 496.538085938 488.395507812 424.239257812 c 2
 488.395507812 257.978515625 l 2
EndSplineSet
EndChar

StartChar: E
Encoding: 69 69 39
Width: 547
GlyphClass: 2
Flags: W
LayerCount: 2
Fore
SplineSet
138.536132812 636.91015625 m 1
 491.456054688 636.91015625 l 1
 491.456054688 688.9296875 l 1
 79.3759765625 688.9296875 l 1
 79.3759765625 0.4296875 l 1
 491.456054688 0.4296875 l 1
 491.456054688 52.4501953125 l 1
 138.536132812 52.4501953125 l 1
 138.536132812 324.790039062 l 1
 440.456054688 324.790039062 l 1
 440.456054688 376.809570312 l 1
 138.536132812 376.809570312 l 1
 138.536132812 636.91015625 l 1
EndSplineSet
EndChar

StartChar: F
Encoding: 70 70 40
Width: 538
GlyphClass: 2
Flags: W
LayerCount: 2
Fore
SplineSet
138.536132812 636.91015625 m 1
 491.456054688 636.91015625 l 1
 491.456054688 688.9296875 l 1
 79.3759765625 688.9296875 l 1
 79.3759765625 0.4296875 l 1
 138.536132812 0.4296875 l 1
 138.536132812 322.75 l 1
 440.456054688 322.75 l 1
 440.456054688 374.76953125 l 1
 138.536132812 374.76953125 l 1
 138.536132812 636.91015625 l 1
EndSplineSet
EndChar

StartChar: G
Encoding: 71 71 41
Width: 611
GlyphClass: 2
Flags: MW
HStem: -7.73047 53.0391<266.61 332.841 255.588 339.596> 646.09 52.0205<275.348 330.103>
VStem: 65.0947 59.1602<249.819 253.901 253.901 433.419 433.419 436.481> 478.196 59.1592<204.103 347.23 249.82 298.27>
LayerCount: 2
Fore
SplineSet
535.290039062 496.150390625 m 1
 533.6875 613.306640625 448.73046875 698.110351562 303.264648438 698.110351562 c 0
 229.954101562 698.110351562 172.46875 677.078125 129.578125 635.498046875 c 0
 87.138671875 594.354492188 65.0947265625 528.538085938 65.0947265625 436.481445312 c 2
 65.0947265625 253.901367188 l 2
 65.0947265625 161.84375 87.1396484375 96.025390625 129.579101562 54.8818359375 c 0
 172.469726562 13.3017578125 229.955078125 -7.73046875 303.265625 -7.73046875 c 0
 375.92578125 -7.73046875 432.557617188 12.8154296875 474.404296875 53.3544921875 c 0
 515.79296875 93.4482421875 537.35546875 158.412109375 537.35546875 249.8203125 c 2
 537.35546875 347.23046875 l 1
 309.895507812 347.23046875 l 1
 309.895507812 298.26953125 l 1
 478.196289062 298.26953125 l 1
 478.196289062 236.559570312 l 2
 478.196289062 171.645507812 463.96484375 122.846679688 433.719726562 91.5078125 c 0
 403.680664062 60.3837890625 360.377929688 45.30859375 305.3046875 45.30859375 c 0
 205.87109375 45.30859375 124.254882812 93.056640625 124.254882812 249.819335938 c 2
 124.254882812 433.418945312 l 2
 124.254882812 506.389648438 138.897460938 560.662109375 170.092773438 595.12109375 c 0
 201.125976562 629.401367188 246.41015625 646.08984375 304.28515625 646.08984375 c 0
 355.919921875 646.08984375 397.913085938 632.591796875 429.201171875 604.899414062 c 0
 459.754882812 577.858398438 475.344726562 541.142578125 476.124023438 496.150390625 c 1
 535.290039062 496.150390625 l 1
EndSplineSet
EndChar

StartChar: H
Encoding: 72 72 42
Width: 630
GlyphClass: 2
Flags: W
LayerCount: 2
Fore
SplineSet
542.456054688 0.4296875 m 1
 542.456054688 688.9296875 l 1
 483.295898438 688.9296875 l 1
 483.295898438 378.849609375 l 1
 138.536132812 378.849609375 l 1
 138.536132812 688.9296875 l 1
 79.3759765625 688.9296875 l 1
 79.3759765625 0.4296875 l 1
 138.536132812 0.4296875 l 1
 138.536132812 326.830078125 l 1
 483.295898438 326.830078125 l 1
 483.295898438 0.4296875 l 1
 542.456054688 0.4296875 l 1
EndSplineSet
EndChar

StartChar: I
Encoding: 73 73 43
Width: 244
GlyphClass: 2
Flags: MW
VStem: 87.5361 59.1602<0.429688 688.93 0.429688 688.93>
LayerCount: 2
Fore
SplineSet
146.696289062 688.9296875 m 1
 87.5361328125 688.9296875 l 1
 87.5361328125 0.4296875 l 1
 146.696289062 0.4296875 l 1
 146.696289062 688.9296875 l 1
EndSplineSet
EndChar

StartChar: J
Encoding: 74 74 44
Width: 308
GlyphClass: 2
Flags: MW
HStem: 0.429688 52.0205<30.416 80.9053 30.416 92.126 30.416 112.676>
VStem: 152.815 59.1602<128.44 137.62 137.62 688.93>
LayerCount: 2
Fore
SplineSet
92.1259765625 0.4296875 m 2
 133.2265625 0.4296875 211.975585938 11.525390625 211.975585938 128.440429688 c 2
 211.975585938 688.9296875 l 1
 152.815429688 688.9296875 l 1
 152.815429688 137.620117188 l 2
 152.815429688 83.1630859375 134.671875 52.4501953125 80.9052734375 52.4501953125 c 2
 30.416015625 52.4501953125 l 1
 30.416015625 0.4296875 l 1
 92.1259765625 0.4296875 l 2
EndSplineSet
EndChar

StartChar: K
Encoding: 75 75 45
Width: 599
GlyphClass: 2
Flags: W
LayerCount: 2
Fore
SplineSet
138.536132812 264.594726562 m 1
 138.536132812 688.9296875 l 1
 79.3759765625 688.9296875 l 1
 79.3759765625 0.4296875 l 1
 138.536132812 0.4296875 l 1
 138.536132812 189.288085938 l 1
 291.055664062 377.50390625 l 1
 509.633789062 0.4296875 l 1
 578.513671875 0.4296875 l 1
 328.654296875 422.8828125 l 1
 544.260742188 688.9296875 l 1
 475.259765625 688.9296875 l 1
 138.536132812 264.594726562 l 1
EndSplineSet
EndChar

StartChar: L
Encoding: 76 76 46
Width: 528
GlyphClass: 2
Flags: W
LayerCount: 2
Fore
SplineSet
138.536132812 688.9296875 m 1
 79.3759765625 688.9296875 l 1
 79.3759765625 0.4296875 l 1
 489.416015625 0.4296875 l 1
 489.416015625 52.4501953125 l 1
 138.536132812 52.4501953125 l 1
 138.536132812 688.9296875 l 1
EndSplineSet
EndChar

StartChar: M
Encoding: 77 77 47
Width: 756
GlyphClass: 2
Flags: W
LayerCount: 2
Fore
SplineSet
668.935546875 0.4296875 m 1
 668.935546875 688.9296875 l 1
 606.942382812 688.9296875 l 1
 374.681640625 204.619140625 l 1
 141.37890625 688.9296875 l 1
 79.3759765625 688.9296875 l 1
 79.3759765625 0.4296875 l 1
 138.536132812 0.4296875 l 1
 138.536132812 576.727539062 l 1
 350.887695312 141.190429688 l 1
 398.43359375 141.190429688 l 1
 609.775390625 576.880859375 l 1
 609.775390625 0.4296875 l 1
 668.935546875 0.4296875 l 1
EndSplineSet
EndChar

StartChar: N
Encoding: 78 78 48
Width: 665
GlyphClass: 2
Flags: W
LayerCount: 2
Fore
SplineSet
577.135742188 0.4296875 m 1
 577.135742188 688.9296875 l 1
 517.975585938 688.9296875 l 1
 517.975585938 105.506835938 l 1
 142.015625 688.9296875 l 1
 79.3759765625 688.9296875 l 1
 79.3759765625 0.4296875 l 1
 138.536132812 0.4296875 l 1
 138.536132812 585.97265625 l 1
 514.504882812 0.4296875 l 1
 577.135742188 0.4296875 l 1
EndSplineSet
EndChar

StartChar: O
Encoding: 79 79 49
Width: 611
GlyphClass: 2
Flags: MW
HStem: -7.73047 53.041<273.667 337.533> 646.092 52.0176<273.313 338.555 265.589 350.722>
VStem: 65.0967 59.1602<249.821 253.9 253.9 433.421 433.421 436.48> 478.197 59.1582<193.71 436.479 253.899 433.422>
LayerCount: 2
Fore
SplineSet
301.225585938 -7.73046875 m 0
 373.840820312 -7.73046875 430.8046875 13.287109375 473.361328125 54.861328125 c 0
 515.470703125 95.9990234375 537.35546875 161.831054688 537.35546875 253.899414062 c 2
 537.35546875 436.478515625 l 2
 537.35546875 528.557617188 515.630859375 594.404296875 473.850585938 635.538085938 c 0
 431.641601562 677.091796875 374.86328125 698.109375 302.24609375 698.109375 c 0
 228.932617188 698.109375 171.6328125 677.077148438 129.090820312 635.517578125 c 0
 86.9814453125 594.379882812 65.0966796875 528.547851562 65.0966796875 436.48046875 c 2
 65.0966796875 253.900390625 l 2
 65.0966796875 161.821289062 86.8203125 95.9736328125 128.6015625 54.8408203125 c 0
 170.794921875 13.3017578125 227.911132812 -7.73046875 301.225585938 -7.73046875 c 0
302.247070312 646.091796875 m 0
 399.196289062 646.091796875 478.197265625 596.161132812 478.197265625 433.421875 c 2
 478.197265625 249.821289062 l 2
 478.197265625 137.599609375 437.178710938 45.310546875 302.247070312 45.310546875 c 0
 245.086914062 45.310546875 200.345703125 61.4541015625 169.637695312 94.6923828125 c 0
 138.775390625 128.096679688 124.256835938 180.204101562 124.256835938 249.821289062 c 2
 124.256835938 433.420898438 l 2
 124.256835938 506.368164062 138.540039062 560.58984375 169.014648438 595.055664062 c 0
 199.38671875 629.405273438 244.379882812 646.091796875 302.247070312 646.091796875 c 0
EndSplineSet
EndChar

StartChar: P
Encoding: 80 80 50
Width: 577
GlyphClass: 2
Flags: MW
HStem: 291.13 52.0205<138.536 318.565 138.536 324.686 138.536 358.015> 636.91 52.0195<138.536 318.565 318.565 324.686 79.376 354.904>
VStem: 479.216 59.1602<462.955 519.375 455.661 548.809>
LayerCount: 2
Fore
SplineSet
324.685546875 688.9296875 m 2
 79.3759765625 688.9296875 l 1
 79.3759765625 0.4296875 l 1
 138.536132812 0.4296875 l 1
 138.536132812 291.129882812 l 1
 324.685546875 291.129882812 l 2
 391.34375 291.129882812 443.151367188 308.71875 481.22265625 343.209960938 c 0
 519.201171875 377.6171875 538.375976562 424.862304688 538.375976562 486.459960938 c 0
 538.375976562 552.2890625 519.239257812 601.743164062 481.681640625 636.38671875 c 0
 443.973632812 671.168945312 392.029296875 688.9296875 324.685546875 688.9296875 c 2
318.565429688 636.91015625 m 2
 391.243164062 636.91015625 479.215820312 611.157226562 479.215820312 486.459960938 c 0
 479.215820312 439.44921875 465.388671875 402.873046875 436.72265625 378.618164062 c 0
 408.350585938 354.610351562 368.640625 343.150390625 318.565429688 343.150390625 c 2
 138.536132812 343.150390625 l 1
 138.536132812 636.91015625 l 1
 318.565429688 636.91015625 l 2
EndSplineSet
EndChar

StartChar: Q
Encoding: 81 81 51
Width: 611
GlyphClass: 2
Flags: MW
HStem: -20.6494 20G<370.535 370.535> -7.72852 53.04<273.667 315.831> 646.093 52.0176<273.313 338.555 265.589 350.713>
VStem: 65.0967 59.1602<249.822 253.901 253.901 433.422 433.422 436.481> 478.197 59.1582<193.711 436.48 253.9 433.422>
LayerCount: 2
Fore
SplineSet
537.35546875 253.900390625 m 2xb8
 537.35546875 436.48046875 l 2
 537.35546875 528.55859375 515.630859375 594.405273438 473.850585938 635.5390625 c 0
 431.641601562 677.092773438 374.86328125 698.110351562 302.24609375 698.110351562 c 0
 228.932617188 698.110351562 171.6328125 677.078125 129.090820312 635.518554688 c 0
 86.9814453125 594.380859375 65.0966796875 528.548828125 65.0966796875 436.481445312 c 2
 65.0966796875 253.901367188 l 2
 65.0966796875 161.823242188 86.8212890625 95.9755859375 128.602539062 54.8427734375 c 0
 170.795898438 13.3037109375 227.912109375 -7.728515625 301.2265625 -7.728515625 c 0x78
 330.434570312 -7.728515625 349.603515625 -4.8359375 370.53515625 -0.6494140625 c 1
 452.14453125 -150.770507812 l 1
 496.961914062 -125.610351562 l 1
 420.36328125 16.34765625 l 1
 455.920898438 35.078125 537.35546875 79.205078125 537.35546875 253.900390625 c 2xb8
302.247070312 646.092773438 m 0
 399.178710938 646.092773438 478.197265625 596.178710938 478.197265625 433.421875 c 2
 478.197265625 249.822265625 l 2
 478.197265625 137.600585938 437.178710938 45.3115234375 302.247070312 45.3115234375 c 0
 245.086914062 45.3115234375 200.345703125 61.455078125 169.637695312 94.693359375 c 0
 138.775390625 128.09765625 124.256835938 180.205078125 124.256835938 249.822265625 c 2
 124.256835938 433.421875 l 2
 124.256835938 506.369140625 138.540039062 560.590820312 169.014648438 595.056640625 c 0
 199.38671875 629.40625 244.379882812 646.092773438 302.247070312 646.092773438 c 0
EndSplineSet
EndChar

StartChar: R
Encoding: 82 82 52
Width: 600
GlyphClass: 2
Flags: MW
HStem: 636.91 52.0195<138.536 326.726 326.726 332.846 79.376 345.479>
VStem: 478.195 59.1602<475.836 529.557 474.219 564.294>
LayerCount: 2
Fore
SplineSet
320.171875 309.490234375 m 1
 479.291992188 0.4296875 l 1
 547.639648438 0.4296875 l 1
 382.645507812 314.22265625 l 1
 411.170898438 320.743164062 461.174804688 332.172851562 499.286132812 379.079101562 c 0
 524.53125 410.150390625 537.35546875 449.73828125 537.35546875 498.700195312 c 0
 537.35546875 560.413085938 519.103515625 606.788085938 483.25 639.411132812 c 0
 447.25390625 672.165039062 397.497070312 688.9296875 332.845703125 688.9296875 c 2
 79.3759765625 688.9296875 l 1
 79.3759765625 0.4296875 l 1
 138.536132812 0.4296875 l 1
 138.536132812 309.490234375 l 1
 320.171875 309.490234375 l 1
326.725585938 636.91015625 m 2
 364.231445312 636.91015625 478.1953125 630.91015625 478.1953125 497.678710938 c 0
 478.1953125 453.993164062 464.998046875 419.099609375 437.936523438 394.596679688 c 0
 410.97265625 370.184570312 373.522460938 358.44921875 326.723632812 358.44921875 c 2
 138.536132812 358.44921875 l 1
 138.536132812 636.91015625 l 1
 326.725585938 636.91015625 l 2
EndSplineSet
EndChar

StartChar: S
Encoding: 83 83 53
Width: 546
GlyphClass: 2
Flags: MW
HStem: -5.69043 49.9824<221.297 296.225> 649.15 48.9609<231.152 292.378>
VStem: 32.2588 58.1484<184.032 184.032> 45.7139 57.1221<482.764 538.954> 422.339 57.8945<517.57 517.57> 434.333 58.1416<163.906 203.599>
LayerCount: 2
Fore
SplineSet
32.2587890625 184.032226562 m 1xe4
 39.505859375 120.858398438 70.5029296875 -5.6904296875 259.405273438 -5.6904296875 c 0
 333.043945312 -5.6904296875 389.954101562 11.5390625 431.028320312 45.115234375 c 0
 471.913085938 78.537109375 492.474609375 125.451171875 492.474609375 187.599609375 c 0xe4
 492.474609375 241.942382812 477.344726562 282.826171875 447.856445312 311.671875 c 0
 418.04296875 340.836914062 374.413085938 360.771484375 316.23828125 370.801757812 c 2
 234.619140625 385.084960938 l 2
 136.985351562 402.40625 102.8359375 449.018554688 102.8359375 514 c 0
 102.8359375 590.546875 154.508789062 649.150390625 263.484375 649.150390625 c 0
 321.272460938 649.150390625 408.294921875 633.127929688 422.338867188 517.5703125 c 1
 480.233398438 517.5703125 l 1
 471.905273438 577.833984375 449.364257812 622.002929688 413.198242188 651.369140625 c 0
 375.017578125 682.37109375 325.741210938 698.111328125 264.504882812 698.111328125 c 0
 197.799804688 698.111328125 145.004882812 681.16015625 105.186523438 647.870117188 c 0
 65.6005859375 614.7734375 45.7138671875 569.005859375 45.7138671875 508.901367188 c 0xd8
 45.7138671875 456.625976562 60.4794921875 417.291015625 89.279296875 389.451171875 c 0
 118.416015625 361.28515625 160.685546875 342.200195312 216.80859375 332.846679688 c 2
 296.369140625 319.586914062 l 2
 341.384765625 311.969726562 375.841796875 298.060546875 399.176757812 276.911132812 c 0
 422.950195312 255.3671875 434.333007812 223.676757812 434.333007812 183.521484375 c 0
 434.333007812 144.291015625 423.7265625 44.2919921875 264.502929688 44.2919921875 c 0
 178.090820312 44.2919921875 104.221679688 77.3984375 90.4072265625 184.032226562 c 1
 32.2587890625 184.032226562 l 1xe4
EndSplineSet
EndChar

StartChar: T
Encoding: 84 84 54
Width: 480
GlyphClass: 2
Flags: W
LayerCount: 2
Fore
SplineSet
265.015625 0.4296875 m 1
 265.015625 636.91015625 l 1
 465.956054688 636.91015625 l 1
 465.956054688 688.9296875 l 1
 5.935546875 688.9296875 l 1
 5.935546875 636.91015625 l 1
 206.875976562 636.91015625 l 1
 206.875976562 0.4296875 l 1
 265.015625 0.4296875 l 1
EndSplineSet
EndChar

StartChar: U
Encoding: 85 85 55
Width: 636
GlyphClass: 2
Flags: MW
HStem: -5.69043 51<288.176 340.471 288.176 381.688>
VStem: 79.376 60.1797<156.598 688.93 228.4 688.93 228.4 688.93> 489.416 59.1602<222.28 228.4 228.4 688.93>
LayerCount: 2
Fore
SplineSet
79.3759765625 222.280273438 m 2
 79.3759765625 90.9150390625 174.407226562 -5.6904296875 314.486328125 -5.6904296875 c 0
 448.889648438 -5.6904296875 548.576171875 84.0244140625 548.576171875 222.280273438 c 2
 548.576171875 688.9296875 l 1
 489.416015625 688.9296875 l 1
 489.416015625 228.400390625 l 2
 489.416015625 173.216796875 473.578125 128.361328125 441.362304688 95.0712890625 c 0
 409.186523438 61.8232421875 366.456054688 45.3095703125 314.486328125 45.3095703125 c 0
 261.865234375 45.3095703125 218.938476562 61.8017578125 187.069335938 95.1025390625 c 0
 155.206054688 128.397460938 139.555664062 173.236328125 139.555664062 228.400390625 c 2
 139.555664062 688.9296875 l 1
 79.3759765625 688.9296875 l 1
 79.3759765625 222.280273438 l 2
EndSplineSet
EndChar

StartChar: V
Encoding: 86 86 56
Width: 522
GlyphClass: 2
Flags: W
LayerCount: 2
Fore
SplineSet
69.162109375 688.9296875 m 1
 7.7939453125 688.9296875 l 1
 231.306640625 0.4296875 l 1
 281.392578125 0.4296875 l 1
 505.903320312 688.9296875 l 1
 444.55859375 688.9296875 l 1
 257.38671875 87.455078125 l 1
 69.162109375 688.9296875 l 1
EndSplineSet
EndChar

StartChar: W
Encoding: 87 87 57
Width: 800
GlyphClass: 2
Flags: W
LayerCount: 2
Fore
SplineSet
612.475585938 0.4296875 m 1
 785.099609375 688.9296875 l 1
 731.6015625 688.9296875 l 1
 587.981445312 80.4033203125 l 1
 439.041015625 688.9296875 l 1
 356.2421875 688.9296875 l 1
 212.62109375 80.4033203125 l 1
 63.6806640625 688.9296875 l 1
 7.126953125 688.9296875 l 1
 183.7421875 0.4296875 l 1
 238.124023438 0.4296875 l 1
 395.987304688 635.0625 l 1
 558.088867188 0.4296875 l 1
 612.475585938 0.4296875 l 1
EndSplineSet
EndChar

StartChar: X
Encoding: 88 88 58
Width: 566
GlyphClass: 2
Flags: W
LayerCount: 2
Fore
SplineSet
243.0078125 358.951171875 m 1
 11.3173828125 0.4296875 l 1
 79.736328125 0.4296875 l 1
 276.728515625 314.158203125 l 1
 474.763671875 0.4296875 l 1
 546.28515625 0.4296875 l 1
 313.549804688 362.018554688 l 1
 523.848632812 688.9296875 l 1
 455.41015625 688.9296875 l 1
 278.786132812 405.703125 l 1
 102.161132812 688.9296875 l 1
 30.6650390625 688.9296875 l 1
 243.0078125 358.951171875 l 1
EndSplineSet
EndChar

StartChar: Y
Encoding: 89 89 59
Width: 498
GlyphClass: 2
Flags: W
LayerCount: 2
Fore
SplineSet
274.196289062 289.411132812 m 1
 479.434570312 688.9296875 l 1
 416.133789062 688.9296875 l 1
 244.084960938 341.684570312 l 1
 73.0849609375 688.9296875 l 1
 9.8115234375 688.9296875 l 1
 215.036132812 290.435546875 l 1
 215.036132812 0.4296875 l 1
 274.196289062 0.4296875 l 1
 274.196289062 289.411132812 l 1
EndSplineSet
EndChar

StartChar: Z
Encoding: 90 90 60
Width: 515
GlyphClass: 2
Flags: W
LayerCount: 2
Fore
SplineSet
472.076171875 0.4296875 m 1
 472.076171875 52.4501953125 l 1
 101.673828125 52.4501953125 l 1
 469.015625 631.481445312 l 1
 469.015625 688.9296875 l 1
 51.8359375 688.9296875 l 1
 51.8359375 636.91015625 l 1
 405.91796875 636.91015625 l 1
 38.576171875 57.87890625 l 1
 38.576171875 0.4296875 l 1
 472.076171875 0.4296875 l 1
EndSplineSet
EndChar

StartChar: bracketleft
Encoding: 91 91 61
Width: 290
GlyphClass: 2
Flags: MW
VStem: 79.376 143.82<-85.25 -33.2305 687.91 739.93 -85.25 -33.2305>
LayerCount: 2
Fore
SplineSet
223.196289062 739.9296875 m 1
 79.3759765625 739.9296875 l 1
 79.3759765625 -85.25 l 1
 223.196289062 -85.25 l 1
 223.196289062 -33.23046875 l 1
 135.475585938 -33.23046875 l 1
 135.475585938 687.91015625 l 1
 223.196289062 687.91015625 l 1
 223.196289062 739.9296875 l 1
EndSplineSet
Substitution2: "'rtla' Right to Left Alternates lookup 0 subtable" bracketright
EndChar

StartChar: backslash
Encoding: 92 92 62
Width: 388
GlyphClass: 2
Flags: W
LayerCount: 2
Fore
SplineSet
105.84375 688.9296875 m 1
 60.6455078125 688.9296875 l 1
 274.248046875 -9.7705078125 l 1
 319.446289062 -9.7705078125 l 1
 105.84375 688.9296875 l 1
EndSplineSet
EndChar

StartChar: bracketright
Encoding: 93 93 63
Width: 290
GlyphClass: 2
Flags: MW
VStem: 57.9561 143.819<-85.25 -33.2305 -85.25 739.93 687.91 739.93 687.91 687.91>
LayerCount: 2
Fore
SplineSet
57.9560546875 687.91015625 m 1
 145.67578125 687.91015625 l 1
 145.67578125 -33.23046875 l 1
 57.9560546875 -33.23046875 l 1
 57.9560546875 -85.25 l 1
 201.775390625 -85.25 l 1
 201.775390625 739.9296875 l 1
 57.9560546875 739.9296875 l 1
 57.9560546875 687.91015625 l 1
EndSplineSet
Substitution2: "'rtla' Right to Left Alternates lookup 0 subtable" bracketleft
EndChar

StartChar: asciicircum
Encoding: 94 94 64
Width: 511
GlyphClass: 2
Flags: W
LayerCount: 2
Fore
SplineSet
276.793945312 688.9296875 m 1
 226.717773438 688.9296875 l 1
 56.7939453125 291.129882812 l 1
 101.303710938 291.129882812 l 1
 251.220703125 651.143554688 l 1
 402.194335938 291.129882812 l 1
 446.717773438 291.129882812 l 1
 276.793945312 688.9296875 l 1
EndSplineSet
EndChar

StartChar: underscore
Encoding: 95 95 65
Width: 455
GlyphClass: 2
Flags: MW
HStem: -105.65 35.7002<-2.22461 448.616 -2.22461 448.616>
LayerCount: 2
Fore
SplineSet
448.616210938 -69.9501953125 m 1
 -2.224609375 -69.9501953125 l 1
 -2.224609375 -105.650390625 l 1
 448.616210938 -105.650390625 l 1
 448.616210938 -69.9501953125 l 1
EndSplineSet
EndChar

StartChar: grave
Encoding: 96 96 66
Width: 499
GlyphClass: 2
Flags: MW
HStem: 583.87 112.2<159.032 311.93 159.032 311.93>
LayerCount: 2
Fore
SplineSet
223.067382812 696.0703125 m 1
 159.032226562 696.0703125 l 1
 266.744140625 583.870117188 l 1
 311.9296875 583.870117188 l 1
 223.067382812 696.0703125 l 1
EndSplineSet
EndChar

StartChar: a
Encoding: 97 97 67
Width: 496
GlyphClass: 2
Flags: MW
HStem: -5.69141 40.8018<202.666 244.432> 243.19 35.6982<221.667 358.856> 466.57 42.8398<215.67 247.324>
VStem: 45.7168 54.0596<114.586 166.05 90.3125 182.293> 61.0342 52.0908<373.75 373.75> 358.856 54.0605<112.069 168.22 168.22 243.19 278.889 344.68 344.68 345.699 278.889 278.889>
LayerCount: 2
Fore
SplineSet
412.916992188 344.6796875 m 2xf4
 412.916992188 421.530273438 380.618164062 509.41015625 232.885742188 509.41015625 c 0
 178.306640625 509.41015625 136.3828125 496.447265625 106.186523438 471.390625 c 0
 76.599609375 446.83984375 61.626953125 414.767578125 61.0341796875 373.75 c 1
 113.125 373.75 l 1xec
 114.208984375 401.5 125.215820312 424.3671875 146.014648438 440.936523438 c 0
 167.857421875 458.336914062 197.432617188 466.5703125 233.907226562 466.5703125 c 0
 260.740234375 466.5703125 358.856445312 462.9921875 358.856445312 345.69921875 c 2
 358.856445312 278.888671875 l 1
 211.466796875 278.888671875 l 2
 103.7421875 278.888671875 45.716796875 225.948242188 45.716796875 138.638671875 c 0
 45.716796875 90.5341796875 60.0400390625 55.30859375 87.943359375 31.2099609375 c 0
 116.0390625 6.9453125 156.192382812 -5.69140625 209.42578125 -5.69140625 c 0
 279.4375 -5.69140625 319.2109375 16.1962890625 346.079101562 52.4111328125 c 2
 359.876953125 71.0087890625 l 1
 359.876953125 0.4296875 l 1
 412.916992188 0.4296875 l 1
 412.916992188 344.6796875 l 2xf4
358.856445312 168.219726562 m 2
 358.856445312 55.91796875 287.875976562 35.1103515625 220.646484375 35.1103515625 c 0
 184.685546875 35.1103515625 99.7763671875 40.96484375 99.7763671875 139.66015625 c 0xf4
 99.7763671875 192.439453125 124.927734375 243.190429688 221.666992188 243.190429688 c 2
 358.856445312 243.190429688 l 1
 358.856445312 168.219726562 l 2
EndSplineSet
EndChar

StartChar: b
Encoding: 98 98 68
Width: 509
GlyphClass: 2
Flags: MW
HStem: -5.69043 46.9219<244.48 300.326> 461.47 47.9404<249.408 295.229>
VStem: 74.2764 54.0605<0.430664 10.5454 203.921 294.701 294.701 318.444 407.841 688.931 0.430664 10.5454> 388.438 54.0586<198.82 202.901 202.901 300.82>
LayerCount: 2
Fore
SplineSet
275.725585938 -5.6904296875 m 0
 324.926757812 -5.6904296875 364.48046875 10.6552734375 395.640625 43.4384765625 c 0
 426.331054688 75.7275390625 442.49609375 127.08984375 442.49609375 198.8203125 c 2
 442.49609375 304.900390625 l 2
 442.49609375 376.60546875 426.015625 427.92578125 394.67578125 460.224609375 c 0
 362.880859375 492.993164062 321.950195312 509.41015625 270.625976562 509.41015625 c 0
 228.189453125 509.41015625 176.30859375 494.6484375 142.6875 433.80859375 c 2
 128.336914062 407.840820312 l 1
 128.336914062 688.930664062 l 1
 74.2763671875 688.930664062 l 1
 74.2763671875 0.4306640625 l 1
 128.336914062 0.4306640625 l 1
 128.336914062 20.66015625 128.3359375 40.890625 128.3359375 61.1201171875 c 2
 128.3359375 89.7578125 l 1
 142.62109375 64.9267578125 l 2
 169.737304688 17.796875 213.234375 -5.6904296875 275.725585938 -5.6904296875 c 0
388.4375 202.901367188 m 2
 388.4375 153.357421875 381.244140625 41.2314453125 265.526367188 41.2314453125 c 0
 221.549804688 41.2314453125 186.750976562 56.6064453125 163.056640625 87.58984375 c 0
 139.727539062 118.095703125 128.336914062 157.125976562 128.336914062 203.920898438 c 2
 128.336914062 294.701171875 l 2
 128.336914062 342.1875 140.385742188 461.469726562 261.448242188 461.469726562 c 0
 329.008789062 461.469726562 388.4375 425.915039062 388.4375 300.8203125 c 2
 388.4375 202.901367188 l 2
EndSplineSet
EndChar

StartChar: c
Encoding: 99 99 69
Width: 502
GlyphClass: 2
Flags: MW
HStem: -5.69043 46.9209<231.528 272.952 231.528 280.476> 461.469 47.9404<232.544 280.158 221.357 292.22>
VStem: 57.9561 54.0605<162.324 300.82 202.9 300.82 300.82 304.899> 383.317 52.0117<155.47 155.47>
LayerCount: 2
Fore
SplineSet
254.305664062 461.46875 m 0
 330.133789062 461.46875 382.1875 421.678710938 383.31640625 347.228515625 c 1
 435.341796875 347.228515625 l 1
 434.798828125 396.629882812 418.426757812 435.26171875 386.34765625 464.482421875 c 0
 353.7265625 494.197265625 309.069335938 509.409179688 251.24609375 509.409179688 c 0
 191.46875 509.409179688 144.807617188 492.908203125 110.096679688 460.469726562 c 0
 75.8701171875 428.482421875 57.9560546875 377.186523438 57.9560546875 304.899414062 c 2
 57.9560546875 198.819335938 l 2
 57.9560546875 125.828125 75.890625 74.3876953125 110.068359375 42.765625 c 0
 144.756835938 10.671875 191.771484375 -5.6904296875 252.266601562 -5.6904296875 c 0
 308.685546875 -5.6904296875 352.85546875 9.486328125 385.866210938 39.26171875 c 0
 418.047851562 68.2890625 434.56640625 106.578125 435.329101562 155.469726562 c 1
 383.317382812 155.469726562 l 1
 382.78515625 120.3359375 371.185546875 91.8984375 348.081054688 71.681640625 c 0
 324.563476562 51.103515625 292.616210938 41.23046875 253.287109375 41.23046875 c 0
 209.768554688 41.23046875 174.75 53.072265625 149.529296875 77.5625 c 0
 123.69921875 102.643554688 112.016601562 144.950195312 112.016601562 202.900390625 c 2
 112.016601562 300.8203125 l 2
 112.016601562 358.125 123.907226562 400.125 150.079101562 425.17578125 c 0
 175.623046875 449.624023438 210.783203125 461.46875 254.305664062 461.46875 c 0
EndSplineSet
EndChar

StartChar: d
Encoding: 100 100 70
Width: 510
GlyphClass: 2
Flags: MW
HStem: -5.69043 46.9209<202.427 251.131> 461.47 47.9404<200.792 255.818 200.792 260.672>
VStem: 57.957 55.0801<162.955 300.82 202.9 300.82 300.82 304.9> 372.116 55.0801<0.429688 90.6436 0.429688 688.93 408.367 408.367 408.367 688.93>
LayerCount: 2
Fore
SplineSet
224.725585938 -5.6904296875 m 0
 277.537109375 -5.6904296875 328.130859375 11.46875 357.7734375 64.8271484375 c 2
 372.116210938 90.6435546875 l 1
 372.116210938 0.4296875 l 1
 427.196289062 0.4296875 l 1
 427.196289062 688.9296875 l 1
 372.116210938 688.9296875 l 1
 372.116210938 408.3671875 l 1
 357.797851562 433.75 l 2
 329.162109375 484.513671875 285.889648438 509.41015625 225.747070312 509.41015625 c 0
 175.836914062 509.41015625 135.950195312 493.04296875 104.811523438 460.28125 c 0
 74.12109375 427.9921875 57.95703125 376.630859375 57.95703125 304.900390625 c 2
 57.95703125 198.8203125 l 2
 57.95703125 127.088867188 74.1201171875 75.7275390625 104.810546875 43.4384765625 c 0
 135.970703125 10.6552734375 175.525390625 -5.6904296875 224.725585938 -5.6904296875 c 0
113.037109375 300.8203125 m 2
 113.037109375 351.130859375 120.954101562 461.469726562 239.006835938 461.469726562 c 0
 282.337890625 461.469726562 316.366210938 446.04296875 339.03125 414.971679688 c 0
 361.345703125 384.379882812 372.1171875 344.069335938 372.1171875 294.700195312 c 2
 372.1171875 203.919921875 l 2
 372.1171875 156.4921875 360.930664062 117.297851562 337.915039062 87.08984375 c 0
 314.513671875 56.375 279.512695312 41.23046875 234.926757812 41.23046875 c 0
 169.926757812 41.23046875 113.037109375 77.1474609375 113.037109375 202.900390625 c 2
 113.037109375 300.8203125 l 2
EndSplineSet
EndChar

StartChar: e
Encoding: 101 101 71
Width: 502
GlyphClass: 2
Flags: MW
HStem: -5.69043 46.9209<232.519 273.261 232.519 278.169> 461.47 47.9404<227.025 267.586>
VStem: 57.9561 54.0596<206.98 209.02 209.02 245.23 281.95 298.78> 381.296 54.0596<281.95 298.78 298.78 307.96 281.95 281.95>
LayerCount: 2
Fore
SplineSet
112.015625 206.98046875 m 2
 112.015625 245.23046875 l 1
 435.35546875 245.23046875 l 1
 435.35546875 298.780273438 l 2
 435.35546875 371.76953125 417.7578125 424.391601562 384.047851562 458.1015625 c 0
 349.958007812 492.19140625 304.75390625 509.41015625 247.166015625 509.41015625 c 0
 189.579101562 509.41015625 144.1875 492.190429688 109.748046875 458.076171875 c 0
 75.7119140625 424.360351562 57.9560546875 371.755859375 57.9560546875 298.780273438 c 2
 57.9560546875 209.01953125 l 2
 57.9560546875 133.958007812 75.7548828125 80.1474609375 109.774414062 46.1279296875 c 0
 144.181640625 11.720703125 190.229492188 -5.6904296875 249.205078125 -5.6904296875 c 0
 307.133789062 -5.6904296875 351.528320312 8.5908203125 383.421875 36.296875 c 0
 414.775390625 63.533203125 430.684570312 99.05859375 431.258789062 144.25 c 1
 379.181640625 144.25 l 1
 378.18359375 113.3046875 367.001953125 87.9453125 345.453125 69.576171875 c 0
 322.931640625 50.376953125 292.217773438 41.23046875 254.3046875 41.23046875 c 0
 210.733398438 41.23046875 175.525390625 53.458984375 149.997070312 78.623046875 c 0
 123.86328125 104.383789062 112.015625 147.67578125 112.015625 206.98046875 c 2
247.166015625 461.469726562 m 0
 288.005859375 461.469726562 321.145507812 450.103515625 345.309570312 426.671875 c 0
 370.09375 402.638671875 381.295898438 362.538085938 381.295898438 307.959960938 c 2
 381.295898438 281.950195312 l 1
 112.015625 281.950195312 l 1
 112.015625 300.8203125 l 2
 112.015625 358.094726562 123.533203125 400.029296875 148.978515625 425.098632812 c 0
 173.736328125 449.4921875 206.884765625 461.469726562 247.166015625 461.469726562 c 0
EndSplineSet
EndChar

StartChar: f
Encoding: 102 102 72
Width: 322
GlyphClass: 2
Flags: MW
HStem: 649.15 39.7793<242.065 277.256>
VStem: 114.056 55.0801<0.429688 462.49 0.429688 462.49 502.27 568.06 0.429688 502.27>
LayerCount: 2
Fore
SplineSet
169.135742188 571.120117188 m 2
 169.135742188 590.6484375 171.569335938 649.150390625 242.065429688 649.150390625 c 2
 277.255859375 649.150390625 l 1
 277.255859375 688.9296875 l 1
 230.845703125 688.9296875 l 2
 193.624023438 688.9296875 165.51171875 677.985351562 145.0859375 656.616210938 c 0
 124.59375 635.180664062 114.055664062 606.068359375 114.055664062 568.059570312 c 2
 114.055664062 502.26953125 l 1
 48.775390625 502.26953125 l 1
 48.775390625 462.490234375 l 1
 114.055664062 462.490234375 l 1
 114.055664062 0.4296875 l 1
 169.135742188 0.4296875 l 1
 169.135742188 462.490234375 l 1
 277.255859375 462.490234375 l 1
 277.255859375 502.26953125 l 1
 169.135742188 502.26953125 l 1
 169.135742188 571.120117188 l 2
EndSplineSet
EndChar

StartChar: g
Encoding: 103 103 73
Width: 510
GlyphClass: 2
Flags: MW
HStem: -160.73 44.8799<226.231 272.581> 32.0488 47.9404<202.426 240.081> 465.549 46.9199<200.78 256.195 200.78 260.671>
VStem: 57.9561 55.0801<201.366 303.879 241.659 303.879 303.879 308.979> 372.116 55.0801<2.88916 506.349 33.5791 129.402 218.965 242.679 242.679 298.779 412.19 412.19 412.19 506.349>
LayerCount: 2
Fore
SplineSet
372.116210938 27.458984375 m 2
 372.116210938 -21.6806640625 361.419921875 -115.850585938 243.0859375 -115.850585938 c 0
 209.375976562 -115.850585938 181.379882812 -108.659179688 159.677734375 -93.5771484375 c 0
 140.064453125 -79.9482421875 127.422851562 -61.9814453125 122.509765625 -40.37109375 c 1
 68.0029296875 -40.37109375 l 1
 72.787109375 -75.9521484375 89.2021484375 -103.999023438 117.650390625 -125.559570312 c 0
 148.2421875 -148.744140625 189.80859375 -160.73046875 243.0859375 -160.73046875 c 0
 302.076171875 -160.73046875 346.802734375 -143.322265625 378.764648438 -109.100585938 c 0
 410.81640625 -74.783203125 427.196289062 -27.6181640625 427.196289062 33.5791015625 c 2
 427.196289062 506.348632812 l 1
 372.116210938 506.348632812 l 1
 372.116210938 412.190429688 l 1
 357.782226562 437.857421875 l 2
 329.861328125 487.852539062 286.643554688 512.46875 225.74609375 512.46875 c 0
 175.814453125 512.46875 135.916015625 496.250976562 104.784179688 463.823242188 c 0
 74.125 431.88671875 57.9560546875 380.715820312 57.9560546875 308.978515625 c 2
 57.9560546875 237.579101562 l 2
 57.9560546875 165.15234375 74.1357421875 113.450195312 104.810546875 81.1767578125 c 0
 135.970703125 48.3935546875 175.525390625 32.048828125 224.725585938 32.048828125 c 0
 255.435546875 32.048828125 320.951171875 37.3037109375 357.7734375 103.5859375 c 2
 372.116210938 129.40234375 l 1
 372.116210938 27.458984375 l 2
113.036132812 303.87890625 m 2
 113.036132812 354.40234375 120.892578125 465.548828125 239.005859375 465.548828125 c 0
 282.336914062 465.548828125 316.365234375 450.122070312 339.030273438 419.05078125 c 0
 361.344726562 388.458984375 372.116210938 348.1484375 372.116210938 298.779296875 c 2
 372.116210938 242.678710938 l 2
 372.116210938 195.250976562 360.9296875 156.056640625 337.9140625 125.848632812 c 0
 314.512695312 95.1337890625 279.51171875 79.9892578125 234.92578125 79.9892578125 c 0
 169.92578125 79.9892578125 113.036132812 115.907226562 113.036132812 241.659179688 c 2
 113.036132812 303.87890625 l 2
EndSplineSet
EndChar

StartChar: h
Encoding: 104 104 74
Width: 521
GlyphClass: 2
Flags: MW
HStem: 461.469 46.9189<245.138 276.897>
VStem: 74.2754 54.0605<0.429688 322.24 322.24 343.971 0.429688 688.93 0.429688 322.24> 384.355 54.0605<0.428711 322.239 0.428711 332.439>
LayerCount: 2
Fore
SplineSet
257.366210938 461.46875 m 0
 296.428710938 461.46875 384.35546875 447.551757812 384.35546875 322.239257812 c 2
 384.35546875 0.4287109375 l 1
 438.416015625 0.4287109375 l 1
 438.416015625 332.439453125 l 2
 438.416015625 389.6328125 423.673828125 432.684570312 395.12109375 462.840820312 c 0
 366.547851562 493.018554688 326.89453125 508.387695312 274.705078125 508.387695312 c 0
 215.5703125 508.387695312 172.138671875 486.46875 142.325195312 442.399414062 c 2
 128.334960938 421.717773438 l 1
 128.334960938 688.927734375 l 1
 110.315429688 688.927734375 92.2958984375 688.9296875 74.275390625 688.9296875 c 1
 74.275390625 0.4296875 l 1
 128.3359375 0.4296875 l 1
 128.3359375 322.240234375 l 2
 128.3359375 365.701171875 139.7890625 400.383789062 163.645507812 424.974609375 c 0
 187.340820312 449.397460938 219.021484375 461.46875 257.366210938 461.46875 c 0
EndSplineSet
EndChar

StartChar: i
Encoding: 105 105 75
Width: 228
GlyphClass: 2
Flags: W
LayerCount: 2
Fore
SplineSet
136.49609375 502.26953125 m 1
 82.435546875 502.26953125 l 1
 82.435546875 0.4296875 l 1
 136.49609375 0.4296875 l 1
 136.49609375 502.26953125 l 1
138.536132812 678.73046875 m 1
 80.3955078125 678.73046875 l 1
 80.3955078125 602.23046875 l 1
 138.536132812 602.23046875 l 1
 138.536132812 678.73046875 l 1
EndSplineSet
EndChar

StartChar: j
Encoding: 106 106 76
Width: 220
GlyphClass: 2
Flags: MW
HStem: -154.61 47.9404<-32.8242 1.3457 -32.8242 8.48633 -32.8242 29.0366>
VStem: 74.2754 54.0605<-26.5996 -22.5205 -22.5205 502.27>
LayerCount: 2
Fore
SplineSet
129.35546875 688.9296875 m 1
 71.2158203125 688.9296875 l 1
 71.2158203125 612.4296875 l 1
 129.35546875 612.4296875 l 1
 129.35546875 688.9296875 l 1
8.486328125 -154.610351562 m 2
 49.5869140625 -154.610351562 128.3359375 -143.514648438 128.3359375 -26.599609375 c 2
 128.3359375 502.26953125 l 1
 74.275390625 502.26953125 l 1
 74.275390625 -22.5205078125 l 2
 74.275390625 -75.1416015625 55.6064453125 -106.669921875 1.345703125 -106.669921875 c 2
 -32.82421875 -106.669921875 l 1
 -32.82421875 -154.610351562 l 1
 8.486328125 -154.610351562 l 2
EndSplineSet
EndChar

StartChar: k
Encoding: 107 107 77
Width: 493
GlyphClass: 2
Flags: W
LayerCount: 2
Fore
SplineSet
128.3359375 213.09765625 m 1
 128.3359375 688.9296875 l 1
 74.275390625 688.9296875 l 1
 74.275390625 0.4296875 l 1
 128.3359375 0.4296875 l 1
 128.3359375 149.60546875 l 1
 234.034179688 274.21875 l 1
 394.3515625 0.4296875 l 1
 461.00390625 0.4296875 l 1
 269.377929688 314.81640625 l 1
 428.517578125 502.26953125 l 1
 365.028320312 502.26953125 l 1
 128.3359375 213.09765625 l 1
EndSplineSet
EndChar

StartChar: l
Encoding: 108 108 78
Width: 267
GlyphClass: 2
Flags: MW
HStem: 0.429688 47.9404<194.126 201.266 201.266 235.436 174.131 235.436>
VStem: 74.2754 54.0605<102.875 688.93 132.52 688.93 132.52 688.93>
LayerCount: 2
Fore
SplineSet
74.275390625 128.440429688 m 2
 74.275390625 77.310546875 89.259765625 0.4296875 194.125976562 0.4296875 c 2
 235.435546875 0.4296875 l 1
 235.435546875 48.3701171875 l 1
 201.265625 48.3701171875 l 2
 146.997070312 48.3701171875 128.3359375 79.91015625 128.3359375 132.51953125 c 2
 128.3359375 688.9296875 l 1
 74.275390625 688.9296875 l 1
 74.275390625 128.440429688 l 2
EndSplineSet
EndChar

StartChar: m
Encoding: 109 109 79
Width: 829
GlyphClass: 2
Flags: MW
HStem: 461.469 46.9189<265.607 277.826>
VStem: 74.2754 54.0605<0.429688 322.24 322.24 343.971 0.429688 502.27 0.429688 322.24> 383.336 55.0801<0.428711 322.239 0.428711 325.299> 693.416 54.0596<0.427734 322.238 0.427734 332.438>
LayerCount: 2
Fore
SplineSet
567.446289062 461.467773438 m 0
 608.366210938 461.467773438 693.416015625 446.518554688 693.416015625 322.23828125 c 2
 693.416015625 0.427734375 l 1
 747.475585938 0.427734375 l 1
 747.475585938 332.4375 l 2
 747.475585938 388.909179688 732.599609375 431.794921875 703.671875 462.329101562 c 0
 674.783203125 492.823242188 634.286132812 508.387695312 580.706054688 508.387695312 c 0
 512.284179688 508.387695312 462.87890625 480.979492188 430.224609375 425.467773438 c 2
 422.99609375 413.178710938 l 1
 410.231445312 439.346679688 397.3515625 465.750976562 361.583984375 487.017578125 c 0
 337.803710938 501.157226562 308.977539062 508.387695312 274.705078125 508.387695312 c 0
 256.509765625 508.387695312 184.392578125 507.029296875 141.333984375 442.442382812 c 2
 127.313476562 421.413085938 l 1
 127.313476562 502.268554688 l 1
 109.634765625 502.268554688 91.955078125 502.26953125 74.275390625 502.26953125 c 1
 74.275390625 0.4296875 l 1
 128.3359375 0.4296875 l 1
 128.3359375 322.240234375 l 2
 128.3359375 365.701171875 139.7890625 400.383789062 163.645507812 424.974609375 c 0
 187.340820312 449.397460938 219.021484375 461.46875 257.366210938 461.46875 c 0
 298.286132812 461.46875 383.3359375 446.51953125 383.3359375 322.239257812 c 2
 383.3359375 0.4287109375 l 1
 438.416015625 0.4287109375 l 1
 438.416015625 325.298828125 l 2
 438.416015625 366.764648438 449.563476562 400.36328125 472.622070312 424.885742188 c 0
 495.7265625 449.45703125 527.825195312 461.467773438 567.446289062 461.467773438 c 0
EndSplineSet
EndChar

StartChar: n
Encoding: 110 110 80
Width: 521
GlyphClass: 2
Flags: MW
HStem: 461.469 46.9199<255.205 276.897>
VStem: 74.2754 54.0605<0.429688 322.24 322.24 343.971 0.429688 502.27 0.429688 322.24> 384.355 54.0605<0.428711 322.239 0.428711 332.439>
LayerCount: 2
Fore
SplineSet
438.416015625 332.439453125 m 2
 438.416015625 361.977539062 437.323242188 508.388671875 274.706054688 508.388671875 c 0
 235.704101562 508.388671875 177.24609375 497.939453125 141.393554688 442.53125 c 2
 127.315429688 420.775390625 l 1
 127.315429688 502.26953125 l 1
 74.275390625 502.26953125 l 1
 74.275390625 0.4296875 l 1
 128.3359375 0.4296875 l 1
 128.3359375 322.240234375 l 2
 128.3359375 365.701171875 139.7890625 400.383789062 163.645507812 424.974609375 c 0
 187.340820312 449.397460938 219.021484375 461.46875 257.366210938 461.46875 c 0
 296.428710938 461.46875 384.35546875 447.551757812 384.35546875 322.239257812 c 2
 384.35546875 0.4287109375 l 1
 438.416015625 0.4287109375 l 1
 438.416015625 332.439453125 l 2
EndSplineSet
EndChar

StartChar: o
Encoding: 111 111 81
Width: 504
GlyphClass: 2
Flags: MW
HStem: -5.69043 46.9209<228.42 269.345 228.42 278.043> 461.469 47.9414<228.42 269.345>
VStem: 57.9561 54.0596<162.318 300.82 202.9 300.82 300.82 304.9> 383.336 54.0586<198.82 202.899 202.899 300.819>
LayerCount: 2
Fore
SplineSet
249.205078125 -5.6904296875 m 0
 306.880859375 -5.6904296875 352.158203125 10.7587890625 386.220703125 43.19921875 c 0
 419.79296875 75.1728515625 437.39453125 126.504882812 437.39453125 198.8203125 c 2
 437.39453125 304.900390625 l 2
 437.39453125 377.21484375 419.79296875 428.546875 386.220703125 460.520507812 c 0
 352.158203125 492.9609375 306.880859375 509.41015625 249.205078125 509.41015625 c 0
 190.126953125 509.41015625 143.990234375 492.92578125 109.61328125 460.495117188 c 0
 75.7138671875 428.515625 57.9560546875 377.201171875 57.9560546875 304.900390625 c 2
 57.9560546875 198.8203125 l 2
 57.9560546875 125.815429688 75.7353515625 74.35546875 109.584960938 42.7412109375 c 0
 143.95703125 10.638671875 190.110351562 -5.6904296875 249.205078125 -5.6904296875 c 0
249.206054688 41.23046875 m 0
 207.633789062 41.23046875 173.79296875 53.15234375 148.978515625 77.6015625 c 0
 123.51171875 102.692382812 112.015625 144.96484375 112.015625 202.900390625 c 2
 112.015625 300.8203125 l 2
 112.015625 358.094726562 123.533203125 400.028320312 148.978515625 425.09765625 c 0
 173.79296875 449.546875 207.633789062 461.46875 249.206054688 461.46875 c 0
 289.483398438 461.46875 322.491210938 449.490234375 346.923828125 425.057617188 c 0
 372.002929688 399.978515625 383.3359375 358.080078125 383.3359375 300.819335938 c 2
 383.3359375 202.899414062 l 2
 383.3359375 144.978515625 372.0234375 102.741210938 346.923828125 77.6416015625 c 0
 322.491210938 53.208984375 289.483398438 41.23046875 249.206054688 41.23046875 c 0
EndSplineSet
EndChar

StartChar: p
Encoding: 112 112 82
Width: 509
GlyphClass: 2
Flags: MW
VStem: 74.2754 368.221<198.82 304.9 304.9 340.755 198.82 502.27 -154.61 304.9>
LayerCount: 2
Fore
SplineSet
128.3359375 502.26953125 m 1
 74.275390625 502.26953125 l 1
 74.275390625 -154.610351562 l 1
 128.3359375 -154.610351562 l 1
 128.3359375 89.7568359375 l 1
 142.62109375 64.9267578125 l 2
 169.737304688 17.796875 213.234375 -5.6904296875 275.725585938 -5.6904296875 c 0
 324.947265625 -5.6904296875 364.514648438 10.5048828125 395.66796875 42.9560546875 c 0
 426.310546875 74.8759765625 442.49609375 126.387695312 442.49609375 198.8203125 c 2
 442.49609375 304.900390625 l 2
 442.49609375 376.610351562 426.010742188 427.739257812 394.703125 459.685546875 c 0
 362.9140625 492.123046875 321.970703125 508.388671875 270.625976562 508.388671875 c 0
 231.21484375 508.388671875 175.412109375 495.983398438 142.759765625 433.944335938 c 2
 128.3359375 406.537109375 l 1
 128.3359375 502.26953125 l 1
388.436523438 299.797851562 m 2
 388.436523438 202.899414062 l 2
 388.436523438 153.35546875 381.243164062 41.228515625 265.525390625 41.228515625 c 0
 221.548828125 41.228515625 186.75 56.6044921875 163.055664062 87.587890625 c 0
 139.7265625 118.09375 128.3359375 157.124023438 128.3359375 203.918945312 c 2
 128.3359375 294.69921875 l 2
 128.3359375 342.185546875 140.384765625 461.467773438 261.447265625 461.467773438 c 0
 329.065429688 461.467773438 388.436523438 425.639648438 388.436523438 299.797851562 c 2
EndSplineSet
EndChar

StartChar: q
Encoding: 113 113 83
Width: 510
GlyphClass: 2
Flags: MW
HStem: -5.69043 46.9209<202.426 255.972> 461.47 46.9199<204.154 260.671>
VStem: 57.9561 55.0801<162.604 299.8 202.9 299.8 299.8 304.9> 372.116 55.0801<-154.61 89.7568 -154.61 502.27 180.206 203.92 203.92 294.7 406.538 406.538 406.538 502.27>
LayerCount: 2
Fore
SplineSet
372.116210938 89.7568359375 m 1
 372.116210938 -154.610351562 l 1
 427.196289062 -154.610351562 l 1
 427.196289062 502.26953125 l 1
 372.116210938 502.26953125 l 1
 372.116210938 406.538085938 l 1
 357.69140625 433.9453125 l 2
 350 448.559570312 317.961914062 508.389648438 229.826171875 508.389648438 c 0
 178.481445312 508.389648438 137.538085938 492.124023438 105.749023438 459.686523438 c 0
 74.44140625 427.741210938 57.9560546875 376.611328125 57.9560546875 304.900390625 c 2
 57.9560546875 198.8203125 l 2
 57.9560546875 126.387695312 74.140625 74.8759765625 104.784179688 42.9560546875 c 0
 135.9375 10.5048828125 175.50390625 -5.6904296875 224.725585938 -5.6904296875 c 0
 287.217773438 -5.6904296875 330.713867188 17.796875 357.830078125 64.9267578125 c 2
 372.116210938 89.7568359375 l 1
113.036132812 299.799804688 m 2
 113.036132812 350.323242188 120.892578125 461.469726562 239.005859375 461.469726562 c 0
 282.336914062 461.469726562 316.365234375 446.04296875 339.030273438 414.971679688 c 0
 361.344726562 384.379882812 372.116210938 344.069335938 372.116210938 294.700195312 c 2
 372.116210938 203.919921875 l 2
 372.116210938 156.4921875 360.9296875 117.297851562 337.9140625 87.08984375 c 0
 314.512695312 56.375 279.51171875 41.23046875 234.92578125 41.23046875 c 0
 169.92578125 41.23046875 113.036132812 77.1474609375 113.036132812 202.900390625 c 2
 113.036132812 299.799804688 l 2
EndSplineSet
EndChar

StartChar: r
Encoding: 114 114 84
Width: 332
GlyphClass: 2
Flags: MW
HStem: 460.45 48.96<250.35 263.312>
VStem: 74.2754 54.0605<0.429688 320.2 320.2 340.644 0.429688 502.271 0.429688 320.2>
LayerCount: 2
Fore
SplineSet
127.31640625 502.270507812 m 1
 74.275390625 502.270507812 l 1
 74.275390625 0.4296875 l 1
 128.3359375 0.4296875 l 1
 128.3359375 320.200195312 l 2
 128.3359375 361.086914062 139.899414062 395.109375 163.45703125 421.203125 c 0
 187.034179688 447.319335938 218.107421875 460.450195312 255.327148438 460.450195312 c 0
 271.297851562 460.450195312 286.442382812 458.60546875 300.716796875 454.883789062 c 1
 300.716796875 507.41796875 l 1
 290.921875 508.745117188 280.89453125 509.41015625 270.626953125 509.41015625 c 0
 230.072265625 509.41015625 174.802734375 496.829101562 141.666992188 436.869140625 c 2
 127.31640625 410.900390625 l 1
 127.31640625 502.270507812 l 1
EndSplineSet
EndChar

StartChar: s
Encoding: 115 115 85
Width: 460
GlyphClass: 2
Flags: MW
HStem: -5.69043 43.8584<208.531 253.737> 467.589 41.8203<209.235 246.669>
VStem: 45.749 52.0781<134.048 134.048> 53.875 52.0195<349.825 386.822 344.022 390.587> 359.875 52.0195<117.175 150.252>
LayerCount: 2
Fore
SplineSet
359.875 136.59765625 m 0xd8
 359.875 74.2724609375 310.82421875 38.16796875 227.78515625 38.16796875 c 0
 189.276367188 38.16796875 157.751953125 46.7421875 133.935546875 64.6953125 c 0
 111.185546875 81.8447265625 98.99609375 105.4296875 97.8271484375 134.047851562 c 1
 45.7490234375 134.047851562 l 1xe8
 46.5888671875 91.533203125 62.529296875 58.484375 93.83984375 33.4365234375 c 0
 126.15234375 7.5849609375 169.499023438 -5.6904296875 224.724609375 -5.6904296875 c 0
 282.75 -5.6904296875 328.221679688 7.4755859375 361.883789062 33.044921875 c 0
 395.2578125 58.3955078125 411.89453125 93.669921875 411.89453125 140.6796875 c 0
 411.89453125 179.978515625 400.426757812 208.619140625 378.260742188 228.286132812 c 0
 355.706054688 248.299804688 319.483398438 263.516601562 269.21484375 272.900390625 c 2
 269.21484375 272.900390625 201.987304688 285.123046875 201.9296875 285.133789062 c 0
 147.377929688 294.620117188 105.89453125 315.826171875 105.89453125 372.21875 c 0
 105.89453125 401.424804688 117 425.412109375 138.9375 442.515625 c 0
 160.810546875 459.568359375 190.685546875 467.588867188 227.78515625 467.588867188 c 0
 265.552734375 467.588867188 296.196289062 459.571289062 319.036132812 442.626953125 c 0
 340.795898438 426.482421875 352.486328125 404.06640625 353.657226562 376.80859375 c 1
 405.767578125 376.80859375 l 1
 405.369140625 416.008789062 389.6328125 447.184570312 357.763671875 471.724609375 c 0
 325.469726562 496.590820312 281.719726562 509.409179688 225.745117188 509.409179688 c 0
 173.997070312 509.409179688 132.701171875 496.364257812 101.000976562 470.810546875 c 0
 69.4609375 445.38671875 53.875 412.015625 53.875 369.159179688 c 0
 53.875 330.491210938 64.8818359375 302.318359375 86.0556640625 283.012695312 c 0
 107.521484375 263.44140625 142.815429688 248.72265625 192.395507812 240.012695312 c 2
 256.647460938 228.793945312 l 2
 291.258789062 222.563476562 317.106445312 213.248046875 334.048828125 199.694335938 c 0
 351.624023438 185.633789062 359.875 163.907226562 359.875 136.59765625 c 0xd8
EndSplineSet
EndChar

StartChar: t
Encoding: 116 116 86
Width: 335
GlyphClass: 2
Flags: MW
HStem: 0.430664 45.9004<230.847 242.066 242.066 275.217 224.727 275.217>
VStem: 113.036 55.0811<101.938 462.49 124.361 462.49 124.361 462.49 124.361 623.354 124.361 502.27>
LayerCount: 2
Fore
SplineSet
242.06640625 46.3310546875 m 2
 207.38671875 46.3310546875 168.1171875 60.4423828125 168.1171875 124.361328125 c 2
 168.1171875 462.490234375 l 1
 284.395507812 462.490234375 l 1
 284.395507812 502.26953125 l 1
 168.116210938 502.26953125 l 1
 168.116210938 648.8984375 l 1
 113.036132812 623.354492188 l 1
 113.036132812 502.26953125 l 1
 32.4560546875 502.26953125 l 1
 32.4560546875 462.490234375 l 1
 113.036132812 462.490234375 l 1
 113.036132812 121.299804688 l 2
 113.036132812 82.5771484375 123.6015625 53.328125 144.026367188 32.2763671875 c 0
 164.413085938 11.2626953125 192.881835938 0.4306640625 230.846679688 0.4306640625 c 2
 275.216796875 0.4306640625 l 1
 275.216796875 46.3310546875 l 1
 242.06640625 46.3310546875 l 2
EndSplineSet
EndChar

StartChar: u
Encoding: 117 117 87
Width: 521
GlyphClass: 2
Flags: MW
HStem: -5.69043 46.9209<233.951 283.675>
VStem: 74.2754 54.0605<134.348 502.27 191.68 502.27 191.68 502.27> 384.355 54.0605<182.5 191.68 191.68 502.27>
LayerCount: 2
Fore
SplineSet
74.275390625 182.5 m 2
 74.275390625 86.1962890625 111.864257812 -5.6904296875 255.326171875 -5.6904296875 c 0
 312.024414062 -5.6904296875 438.416015625 5.173828125 438.416015625 182.5 c 2
 438.416015625 502.26953125 l 1
 384.35546875 502.26953125 l 1
 384.35546875 191.6796875 l 2
 384.35546875 79.2802734375 338.337890625 41.23046875 256.345703125 41.23046875 c 0
 211.556640625 41.23046875 177.801757812 53.5517578125 157.465820312 79.9130859375 c 0
 137.571289062 105.701171875 128.3359375 143.18359375 128.3359375 191.6796875 c 2
 128.3359375 502.26953125 l 1
 74.275390625 502.26953125 l 1
 74.275390625 182.5 l 2
EndSplineSet
EndChar

StartChar: v
Encoding: 118 118 88
Width: 436
GlyphClass: 2
Flags: W
LayerCount: 2
Fore
SplineSet
74.3232421875 502.26953125 m 1
 15.140625 502.26953125 l 1
 188.359375 0.4296875 l 1
 239.671875 0.4296875 l 1
 412.890625 502.26953125 l 1
 354.728515625 502.26953125 l 1
 214.525390625 69.978515625 l 1
 74.3232421875 502.26953125 l 1
EndSplineSet
EndChar

StartChar: w
Encoding: 119 119 89
Width: 717
GlyphClass: 2
Flags: W
LayerCount: 2
Fore
SplineSet
74.0869140625 502.26953125 m 1
 14.7265625 502.26953125 l 1
 167.159179688 0.4296875 l 1
 218.069335938 0.4296875 l 1
 353.216796875 435.669921875 l 1
 489.428710938 0.4296875 l 1
 541.373046875 0.4296875 l 1
 693.805664062 502.26953125 l 1
 634.431640625 502.26953125 l 1
 511.680664062 68.90625 l 1
 377.188476562 502.26953125 l 1
 330.323242188 502.26953125 l 1
 195.798828125 68.802734375 l 1
 74.0869140625 502.26953125 l 1
EndSplineSet
EndChar

StartChar: x
Encoding: 120 120 90
Width: 418
GlyphClass: 2
Flags: W
LayerCount: 2
Fore
SplineSet
74.556640625 0.4296875 m 1
 204.299804688 214.55859375 l 1
 335.096679688 0.4296875 l 1
 391.623046875 0.4296875 l 1
 231.026367188 263.134765625 l 1
 381.227539062 502.26953125 l 1
 324.953125 502.26953125 l 1
 206.452148438 303.358398438 l 1
 84.77734375 502.26953125 l 1
 28.23046875 502.26953125 l 1
 176.572265625 258.989257812 l 1
 18.068359375 0.4296875 l 1
 74.556640625 0.4296875 l 1
EndSplineSet
EndChar

StartChar: y
Encoding: 121 121 91
Width: 436
GlyphClass: 2
Flags: MW
HStem: -154.61 47.9404<66.1162 83.9658 66.1162 89.0654 66.1162 122.289>
LayerCount: 2
Fore
SplineSet
66.1162109375 -154.610351562 m 1
 89.0654296875 -154.610351562 l 2
 155.51171875 -154.610351562 193.94140625 -127.553710938 217.509765625 -60.7763671875 c 2
 412.872070312 502.26953125 l 1
 356.73828125 502.26953125 l 1
 215.545898438 74.4453125 l 1
 74.353515625 502.26953125 l 1
 15.1552734375 502.26953125 l 1
 189.954101562 -2.033203125 l 1
 186.26953125 -13.44921875 182.590820312 -24.87109375 178.90234375 -36.2841796875 c 0
 159.307617188 -91.802734375 130.6953125 -106.669921875 83.9658203125 -106.669921875 c 2
 66.1162109375 -106.669921875 l 1
 66.1162109375 -154.610351562 l 1
EndSplineSet
EndChar

StartChar: z
Encoding: 122 122 92
Width: 454
GlyphClass: 2
Flags: MW
VStem: 57.9561 329.46<0.429688 49.3896 0.429688 54.6797 0.429688 49.3896 453.31 502.27 453.31 453.31>
LayerCount: 2
Fore
SplineSet
387.416015625 49.3896484375 m 1
 113.282226562 49.3896484375 l 1
 387.416015625 448.03515625 l 1
 387.416015625 502.26953125 l 1
 57.9560546875 502.26953125 l 1
 57.9560546875 453.309570312 l 1
 329.987304688 453.309570312 l 1
 57.9560546875 54.6796875 l 1
 57.9560546875 0.4296875 l 1
 387.416015625 0.4296875 l 1
 387.416015625 49.3896484375 l 1
EndSplineSet
EndChar

StartChar: braceleft
Encoding: 123 123 93
Width: 335
GlyphClass: 2
Flags: MW
HStem: -85.25 46.9199<225.746 241.046 241.046 269.096 218.261 269.096> 304.021 51.7393<57.9561 57.9561> 693.01 46.9199<241.046 269.096 191.882 269.096>
VStem: 129.355 57.1201<-15.1343 209.02 21.3398 209.02 209.02 214.12 450.76 633.34 633.34 635.38>
LayerCount: 2
Fore
SplineSet
129.35546875 19.2998046875 m 2
 129.35546875 -49.568359375 158.01953125 -85.25 225.74609375 -85.25 c 2
 269.095703125 -85.25 l 1
 269.095703125 -38.330078125 l 1
 241.045898438 -38.330078125 l 2
 195.475585938 -38.330078125 186.475585938 -8.8837890625 186.475585938 21.33984375 c 2
 186.475585938 209.01953125 l 2
 186.475585938 245.86328125 181.923828125 272.2109375 174.045898438 287.663085938 c 0
 166.274414062 302.907226562 152.224609375 314.454101562 130.381835938 322.1640625 c 2
 110.240234375 329.272460938 l 1
 130.314453125 336.572265625 l 2
 151.456054688 344.259765625 165.440429688 355.806640625 173.58984375 371.201171875 c 0
 181.739257812 386.59375 186.475585938 413.2421875 186.475585938 450.759765625 c 2
 186.475585938 633.33984375 l 2
 186.475585938 663.547851562 195.463867188 693.009765625 241.045898438 693.009765625 c 2
 269.095703125 693.009765625 l 1
 269.095703125 739.9296875 l 1
 225.74609375 739.9296875 l 2
 158.017578125 739.9296875 129.35546875 704.247070312 129.35546875 635.379882812 c 2
 129.35546875 445.66015625 l 2
 129.35546875 388.06640625 110.126953125 359.58984375 57.9560546875 355.759765625 c 1
 57.9560546875 304.020507812 l 1
 110.135742188 300.189453125 129.35546875 271.703125 129.35546875 214.120117188 c 2
 129.35546875 19.2998046875 l 2
EndSplineSet
Substitution2: "'rtla' Right to Left Alternates lookup 0 subtable" braceright
EndChar

StartChar: bar
Encoding: 124 124 94
Width: 298
GlyphClass: 2
Flags: MW
VStem: 118.136 53.04<-84.2305 739.93 -84.2305 739.93>
LayerCount: 2
Fore
SplineSet
171.17578125 739.9296875 m 1
 118.135742188 739.9296875 l 1
 118.135742188 -84.23046875 l 1
 171.17578125 -84.23046875 l 1
 171.17578125 739.9296875 l 1
EndSplineSet
EndChar

StartChar: braceright
Encoding: 125 125 95
Width: 335
GlyphClass: 2
Flags: MW
HStem: -85.25 46.9199<57.9561 86.0059 57.9561 101.306 57.9561 135.17> 304.021 51.7393<269.096 269.096> 693.01 46.9199<57.9561 86.0059 86.0059 101.306 57.9561 108.791>
VStem: 140.576 57.1201<19.2998 21.3398 21.3398 209.02 445.66 450.76 450.76 633.34>
LayerCount: 2
Fore
SplineSet
197.696289062 635.379882812 m 2
 197.696289062 704.248046875 169.032226562 739.9296875 101.305664062 739.9296875 c 2
 57.9560546875 739.9296875 l 1
 57.9560546875 693.009765625 l 1
 86.005859375 693.009765625 l 2
 131.576171875 693.009765625 140.576171875 663.563476562 140.576171875 633.33984375 c 2
 140.576171875 450.759765625 l 2
 140.576171875 413.2421875 145.3125 386.59375 153.461914062 371.201171875 c 0
 161.611328125 355.806640625 175.595703125 344.259765625 196.737304688 336.572265625 c 2
 216.810546875 329.272460938 l 1
 196.669921875 322.1640625 l 2
 174.828125 314.455078125 160.778320312 302.907226562 153.005859375 287.663085938 c 0
 145.127929688 272.2109375 140.576171875 245.86328125 140.576171875 209.01953125 c 2
 140.576171875 21.33984375 l 2
 140.576171875 -8.8681640625 131.587890625 -38.330078125 86.005859375 -38.330078125 c 2
 57.9560546875 -38.330078125 l 1
 57.9560546875 -85.25 l 1
 101.305664062 -85.25 l 2
 169.034179688 -85.25 197.696289062 -49.5673828125 197.696289062 19.2998046875 c 2
 197.696289062 214.120117188 l 2
 197.696289062 271.713867188 216.924804688 300.189453125 269.095703125 304.020507812 c 1
 269.095703125 355.759765625 l 1
 216.916015625 359.590820312 197.696289062 388.077148438 197.696289062 445.66015625 c 2
 197.696289062 635.379882812 l 2
EndSplineSet
Substitution2: "'rtla' Right to Left Alternates lookup 0 subtable" braceleft
EndChar

StartChar: asciitilde
Encoding: 126 126 96
Width: 511
GlyphClass: 2
Flags: MW
HStem: 216.67 49.9805<324.813 339.661> 281.95 48.96<148.546 179.299 148.546 188.929>
LayerCount: 2
Fore
SplineSet
85.4599609375 223.651367188 m 1
 109.693359375 263.108398438 130.118164062 281.950195312 166.584960938 281.950195312 c 0
 211.2734375 281.950195312 237.458007812 247.295898438 288.93359375 225.235351562 c 0
 302.202148438 219.548828125 316.780273438 216.669921875 332.845703125 216.669921875 c 0
 346.4765625 216.669921875 409.354492188 216.802734375 453.443359375 301.130859375 c 1
 416 324.819335938 l 1
 393.387695312 287.578125 371.09375 266.650390625 333.865234375 266.650390625 c 0
 313.079101562 266.650390625 301.405273438 271.287109375 258.502929688 296.31640625 c 0
 207.271484375 327.419921875 190.993164062 330.91015625 167.604492188 330.91015625 c 0
 129.487304688 330.91015625 80.7041015625 313.459960938 47.9189453125 246.635742188 c 1
 85.4599609375 223.651367188 l 1
EndSplineSet
EndChar

StartChar: exclamdown
Encoding: 161 161 98
Width: 233
GlyphClass: 2
Flags: MW
VStem: 74.2754 76.5<421.69 502.27 421.69 502.27> 91.3877 42.2764<302.35 302.35>
LayerCount: 2
Fore
SplineSet
150.775390625 502.26953125 m 1x80
 74.275390625 502.26953125 l 1
 74.275390625 421.690429688 l 1
 150.775390625 421.690429688 l 1
 150.775390625 502.26953125 l 1x80
133.6640625 302.349609375 m 1x40
 91.3876953125 302.349609375 l 1
 77.5703125 -154.610351562 l 1
 147.481445312 -154.610351562 l 1
 133.6640625 302.349609375 l 1x40
EndSplineSet
EndChar

StartChar: cent
Encoding: 162 162 99
Width: 502
GlyphClass: 2
Flags: MW
HStem: -5.05176 46.6387<262.976 262.976> 461.102 47.6709<262.976 262.976>
VStem: 57.9561 54.0596<166.707 300.821 202.901 300.821 300.821 304.9> 219.117 43.8584<43.5439 459.377 43.5439 43.5439> 383.316 52.0117<155.47 155.47>
LayerCount: 2
Fore
SplineSet
262.975585938 41.5869140625 m 1
 262.975585938 461.1015625 l 1
 285.525390625 459.260742188 324.065429688 456.114257812 353.603515625 426.029296875 c 0
 373.094726562 406.177734375 382.83203125 379.518554688 383.31640625 347.23046875 c 1
 435.341796875 347.23046875 l 1
 434.825195312 394.032226562 420.047851562 431.28125 391.1875 460.141601562 c 0
 361.810546875 489.518554688 321.8671875 505.751953125 270.228515625 508.400390625 c 2
 262.975585938 508.772460938 l 1
 262.975585938 604.26953125 l 1
 219.116210938 604.26953125 l 1
 219.116210938 508.333984375 l 1
 193.737304688 504.903320312 139.938476562 497.6328125 99.005859375 448.904296875 c 0
 72.0576171875 416.823242188 57.9560546875 369.135742188 57.9560546875 304.900390625 c 2
 57.9560546875 198.8203125 l 2
 57.9560546875 134.59375 72.220703125 87.1171875 99.4619140625 55.3896484375 c 0
 127.038085938 23.2705078125 164.364257812 3.89453125 212.51171875 -2.701171875 c 2
 219.116210938 -3.60546875 l 1
 219.116210938 -101.5703125 l 1
 262.975585938 -101.5703125 l 1
 262.975585938 -5.0517578125 l 1
 290.008789062 -3.666015625 346.859375 -0.75 391.1875 43.578125 c 0
 419.837890625 72.228515625 434.610351562 109.146484375 435.328125 155.469726562 c 1
 383.31640625 155.469726562 l 1
 382.822265625 123.149414062 372.884765625 96.4638671875 353.043945312 76.623046875 c 0
 323.01171875 46.58984375 285.270507812 43.4443359375 262.975585938 41.5869140625 c 1
112.015625 202.901367188 m 2
 112.015625 300.821289062 l 2
 112.015625 347.86328125 120.000976562 384.119140625 137.338867188 409.203125 c 0
 162.99609375 446.323242188 196.702148438 454.163085938 219.1171875 459.376953125 c 1
 219.1171875 43.5439453125 l 1
 196.947265625 48.18359375 163.021484375 55.2841796875 137.30859375 93.0322265625 c 0
 119.994140625 118.450195312 112.015625 155.189453125 112.015625 202.901367188 c 2
EndSplineSet
EndChar

StartChar: sterling
Encoding: 163 163 100
Width: 433
GlyphClass: 2
Flags: MW
HStem: 645.071 54.0596<231.72 268.138 222.846 271.137>
VStem: 98.7559 60.1797<134.675 296.23 170.26 296.23 170.26 296.231 348.251 348.251 348.251 531.341> 331.123 58.2119<559.391 559.391>
LayerCount: 2
Fore
SplineSet
98.755859375 161.081054688 m 2
 98.755859375 108.26953125 86.40625 74.6474609375 52.85546875 51.8759765625 c 1
 52.85546875 0.4306640625 l 1
 393.536132812 0.4306640625 l 1
 393.536132812 54.490234375 l 1
 115.818359375 54.490234375 l 1
 134.702148438 75.595703125 143.45703125 85.3818359375 151.125 109.8203125 c 0
 156.260742188 126.189453125 158.935546875 146.352539062 158.935546875 170.259765625 c 2
 158.935546875 296.23046875 l 1
 300.715820312 296.23046875 l 1
 300.715820312 348.25 l 1
 158.935546875 348.25 l 1
 158.935546875 542.559570312 l 2
 158.935546875 574.869140625 165.899414062 600.475585938 181.158203125 618.404296875 c 0
 196.420898438 636.338867188 218.314453125 645.071289062 245.125976562 645.071289062 c 0
 297.1484375 645.071289062 328.471679688 611.069335938 331.123046875 559.390625 c 1
 389.334960938 559.390625 l 1
 387.95703125 602.469726562 374.798828125 635.651367188 350.387695312 660.0625 c 0
 324.455078125 685.995117188 290.130859375 699.130859375 246.145507812 699.130859375 c 0
 199.546875 699.130859375 164.055664062 684.413085938 138.130859375 655.288085938 c 0
 112.176757812 626.129882812 98.755859375 585.176757812 98.755859375 531.340820312 c 2
 98.755859375 348.250976562 l 1
 31.435546875 348.250976562 l 1
 31.435546875 296.231445312 l 1
 98.755859375 296.231445312 l 1
 98.755859375 161.081054688 l 2
EndSplineSet
EndChar

StartChar: currency
Encoding: 164 164 101
Width: 614
GlyphClass: 2
Flags: MW
HStem: 133.03 46.9199<281.946 322.542 281.946 323.263> 472.69 46.9199<281.946 322.542>
VStem: 108.955 49.9785<305.727 346.913 305.727 358.217> 445.554 49.9824<305.727 346.913>
LayerCount: 2
Fore
SplineSet
495.536132812 326.3203125 m 0
 495.536132812 367.651367188 483.806640625 405.1328125 460.171875 439.272460938 c 2
 456.54296875 444.513671875 l 1
 527.048828125 515.01953125 l 1
 489.887695312 552.181640625 l 1
 418.293945312 481.596679688 l 1
 400.45703125 494.336914062 365.07421875 519.610351562 302.245117188 519.610351562 c 0
 259.456054688 519.610351562 222.376953125 508.16796875 190.404296875 485.331054688 c 2
 185.176757812 481.596679688 l 1
 113.641601562 552.124023438 l 1
 77.3466796875 515.040039062 l 1
 148.049804688 443.326171875 l 1
 134.922851562 425.458007812 108.955078125 390.11328125 108.955078125 326.3203125 c 0
 108.955078125 284.943359375 120.37109375 247.795898438 143.31640625 214.361328125 c 2
 146.908203125 209.126953125 l 1
 77.3271484375 139.545898438 l 1
 113.661132812 101.6328125 l 1
 184.135742188 172.107421875 l 1
 202.262695312 159.056640625 238.41015625 133.030273438 302.244140625 133.030273438 c 0
 344.282226562 133.030273438 381.361328125 144.766601562 414.0625 168.3125 c 2
 419.334960938 172.107421875 l 1
 490.888671875 100.553710938 l 1
 528.087890625 138.544921875 l 1
 456.430664062 209.193359375 l 1
 469.522460938 227.375976562 495.536132812 263.505859375 495.536132812 326.3203125 c 0
302.244140625 179.950195312 m 0
 261.647460938 179.950195312 227.13671875 194.052734375 199.865234375 222.04296875 c 0
 172.612304688 250.013671875 158.93359375 285.133789062 158.93359375 326.3203125 c 0
 158.93359375 367.505859375 172.612304688 402.625976562 199.865234375 430.596679688 c 0
 227.13671875 458.586914062 261.647460938 472.690429688 302.244140625 472.690429688 c 0
 342.83984375 472.690429688 377.350585938 458.586914062 404.622070312 430.596679688 c 0
 431.875976562 402.625976562 445.553710938 367.505859375 445.553710938 326.3203125 c 0
 445.553710938 285.133789062 431.875976562 250.013671875 404.622070312 222.04296875 c 0
 377.350585938 194.052734375 342.83984375 179.950195312 302.244140625 179.950195312 c 0
EndSplineSet
EndChar

StartChar: yen
Encoding: 165 165 102
Width: 452
GlyphClass: 2
Flags: W
LayerCount: 2
Fore
SplineSet
192.595703125 158.530273438 m 1
 192.595703125 0.4296875 l 1
 251.755859375 0.4296875 l 1
 251.755859375 158.530273438 l 1
 395.576171875 158.530273438 l 1
 395.576171875 200.349609375 l 1
 251.755859375 200.349609375 l 1
 251.755859375 283.990234375 l 1
 395.576171875 283.990234375 l 1
 395.576171875 326.830078125 l 1
 266.915039062 326.830078125 l 1
 431.135742188 688.9296875 l 1
 365.493164062 688.9296875 l 1
 222.711914062 345.197265625 l 1
 78.873046875 688.9296875 l 1
 12.2265625 688.9296875 l 1
 177.466796875 326.830078125 l 1
 47.755859375 326.830078125 l 1
 47.755859375 283.990234375 l 1
 192.595703125 283.990234375 l 1
 192.595703125 200.349609375 l 1
 47.755859375 200.349609375 l 1
 47.755859375 158.530273438 l 1
 192.595703125 158.530273438 l 1
EndSplineSet
EndChar

StartChar: brokenbar
Encoding: 166 166 103
Width: 298
GlyphClass: 2
Flags: MW
VStem: 118.136 53.04<-84.2305 261.55 -84.2305 261.55 396.19 739.93>
LayerCount: 2
Fore
SplineSet
171.17578125 739.9296875 m 1
 118.135742188 739.9296875 l 1
 118.135742188 396.190429688 l 1
 171.17578125 396.190429688 l 1
 171.17578125 739.9296875 l 1
171.17578125 261.549804688 m 1
 118.135742188 261.549804688 l 1
 118.135742188 -84.23046875 l 1
 171.17578125 -84.23046875 l 1
 171.17578125 261.549804688 l 1
EndSplineSet
EndChar

StartChar: section
Encoding: 167 167 104
Width: 510
GlyphClass: 2
Flags: MW
HStem: -170.93 49.9795<217.172 263.471 217.172 272.95> 663.432 49.9805<240.009 276.749>
VStem: 79.374 58.1377<230.562 292.435> 92.7256 55.1084<-18.9502 -18.9502> 101.813 58.1416<554.047 584.413 554.047 591.321> 347.633 58.1426<-38.5264 -7.11719> 363.952 58.1436<254.48 292.911>
LayerCount: 2
Fore
SplineSet
92.7255859375 -18.9501953125 m 1xd4
 94.3486328125 -84.318359375 117.947265625 -170.9296875 249.206054688 -170.9296875 c 0
 296.693359375 -170.9296875 334.20703125 -157.52734375 362.85546875 -131.133789062 c 0
 391.4296875 -104.806640625 405.775390625 -70.087890625 405.775390625 -25.5810546875 c 0xd4
 405.775390625 43.0673828125 379.813476562 81.5517578125 327.659179688 105.146484375 c 2
 309.680664062 113.279296875 l 1
 328.435546875 119.39453125 l 2
 358.008789062 129.038085938 380.672851562 147.38671875 397.151367188 175.173828125 c 0
 413.719726562 203.11328125 422.095703125 235.6796875 422.095703125 273.280273438 c 0
 422.095703125 397.47265625 352.954101562 434.850585938 288.319335938 449.416992188 c 0
 242.193359375 460.430664062 209.106445312 474.532226562 189.387695312 493.13671875 c 0
 169.556640625 511.844726562 159.955078125 537.993164062 159.955078125 570.100585938 c 0
 159.955078125 598.724609375 168.118164062 622.100585938 185.208007812 638.811523438 c 0
 202.247070312 655.471679688 225.712890625 663.431640625 254.3046875 663.431640625 c 0
 299.193359375 663.431640625 345.661132812 644.75390625 348.514648438 568.572265625 c 1
 403.625976562 568.572265625 l 1
 402.346679688 613.158203125 389.75390625 647.661132812 366.474609375 673.055664062 c 0
 342.180664062 699.557617188 305.013671875 713.412109375 253.28515625 713.412109375 c 0
 207.2265625 713.412109375 170.973632812 699.903320312 143.334960938 673.227539062 c 0
 115.643554688 646.501953125 101.813476562 612.540039062 101.813476562 570.1015625 c 0xca
 101.813476562 502.32421875 127.817382812 467.98828125 177.137695312 443.329101562 c 2
 193.385742188 435.204101562 l 1
 176.229492188 429.251953125 l 2
 144.412109375 418.213867188 120.71875 399.231445312 104.298828125 371.864257812 c 0
 87.7646484375 344.30859375 79.3740234375 311.586914062 79.3740234375 273.282226562 c 0xe0
 79.3740234375 147.615234375 153.5078125 111.8359375 214.168945312 98.1650390625 c 0
 261.64453125 87.15625 295.801757812 73.08203125 316.514648438 54.5888671875 c 0
 337.458007812 35.888671875 347.6328125 9.3056640625 347.6328125 -23.5400390625 c 0
 347.6328125 -53.5126953125 339.138671875 -77.9091796875 321.362304688 -95.306640625 c 0
 303.594726562 -112.6953125 278.759765625 -120.950195312 248.181640625 -120.950195312 c 0
 186.162109375 -120.950195312 150.129882812 -89.6455078125 147.833984375 -18.9501953125 c 1
 92.7255859375 -18.9501953125 l 1xd4
251.2421875 147.309570312 m 0
 187.30859375 147.309570312 137.51171875 187.84375 137.51171875 273.280273438 c 0
 137.51171875 312.567382812 147.181640625 344.060546875 167.529296875 366.62890625 c 0
 187.8828125 389.202148438 216.303710938 400.268554688 251.2421875 400.268554688 c 0
 286.17578125 400.268554688 314.462890625 389.200195312 334.491210938 366.576171875 c 0
 354.474609375 344.002929688 363.952148438 312.541992188 363.952148438 273.279296875 c 0xe2
 363.952148438 234.638671875 354.254882812 203.48828125 333.934570312 180.950195312 c 0
 313.615234375 158.415039062 285.545898438 147.309570312 251.2421875 147.309570312 c 0
231.862304688 713.918945312 m 1024
EndSplineSet
EndChar

StartChar: dieresis
Encoding: 168 168 105
Width: 499
GlyphClass: 2
Flags: MW
HStem: 589.99 72.4199<126.296 188.516 126.296 188.516 300.716 362.936>
LayerCount: 2
Fore
SplineSet
188.515625 662.41015625 m 1
 126.295898438 662.41015625 l 1
 126.295898438 589.990234375 l 1
 188.515625 589.990234375 l 1
 188.515625 662.41015625 l 1
362.935546875 662.41015625 m 1
 300.715820312 662.41015625 l 1
 300.715820312 589.990234375 l 1
 362.935546875 589.990234375 l 1
 362.935546875 662.41015625 l 1
EndSplineSet
EndChar

StartChar: copyright
Encoding: 169 169 106
Width: 825
GlyphClass: 2
Flags: MW
HStem: -9.77051 38.7598<318.992 496.599 318.992 512.43> 151.389 33.6611<398.142 428.708 398.142 433.491> 498.189 34.6797<398.141 426.065> 650.171 38.7578<318.98 496.599>
VStem: 65.0957 42.8398<244.695 434.454 244.695 441.896> 269.095 39.7803<275.537 378.339 305.919 378.339 378.339 381.398> 509.765 37.7725<269.71 269.71> 709.736 42.8389<243.192 435.967>
LayerCount: 2
Fore
SplineSet
65.095703125 339.579101562 m 0
 65.095703125 134.934570312 202.90234375 -9.7705078125 408.326171875 -9.7705078125 c 0
 616.533203125 -9.7705078125 752.575195312 135.221679688 752.575195312 339.579101562 c 0
 752.575195312 546.793945312 612.083984375 688.928710938 408.326171875 688.928710938 c 0
 202.891601562 688.928710938 65.095703125 544.212890625 65.095703125 339.579101562 c 0
709.736328125 339.580078125 m 0
 709.736328125 146.803710938 584.872070312 28.9892578125 408.326171875 28.9892578125 c 0
 229.657226562 28.9892578125 107.935546875 149.810546875 107.935546875 339.580078125 c 0
 107.935546875 529.327148438 229.635742188 650.170898438 408.325195312 650.170898438 c 0
 584.872070312 650.170898438 709.736328125 532.354492188 709.736328125 339.580078125 c 0
414.4453125 498.189453125 m 0
 437.684570312 498.189453125 506.978515625 491.69921875 509.733398438 414.548828125 c 1
 547.536132812 414.548828125 l 1
 547.005859375 451.040039062 535.032226562 479.124023438 511.819335938 500.170898438 c 0
 488.05078125 521.721679688 455.286132812 532.869140625 412.405273438 532.869140625 c 0
 367.55078125 532.869140625 332.9453125 520.758789062 307.436523438 497.163085938 c 0
 282.452148438 474.051757812 269.094726562 436.041992188 269.094726562 381.3984375 c 2
 269.094726562 302.858398438 l 2
 269.094726562 248.21484375 282.452148438 210.20703125 307.4375 187.095703125 c 0
 332.946289062 163.5 367.551757812 151.388671875 412.40625 151.388671875 c 0
 454.576171875 151.388671875 487.197265625 162.51171875 511.34765625 184.12109375 c 0
 534.881835938 205.178710938 547 233.24609375 547.537109375 269.709960938 c 1
 509.764648438 269.709960938 l 1
 509.03515625 244.534179688 500.522460938 223.682617188 483.861328125 208.469726562 c 0
 466.487304688 192.606445312 442.969726562 185.049804688 414.446289062 185.049804688 c 0
 381.836914062 185.049804688 355.467773438 193.807617188 336.671875 212.2265625 c 0
 317.299804688 231.2109375 308.875 262.955078125 308.875 305.918945312 c 2
 308.875 378.338867188 l 2
 308.875 420.651367188 317.329101562 452.057617188 336.671875 471.01171875 c 0
 355.466796875 489.431640625 381.8359375 498.189453125 414.4453125 498.189453125 c 0
EndSplineSet
EndChar

StartChar: ordfeminine
Encoding: 170 170 107
Width: 325
GlyphClass: 2
Flags: MW
HStem: 434.95 38.7598<129.67 146.056> 579.79 30.5996<144.146 215.035> 713.41 34.6797<132.844 169.911>
VStem: 33.4746 47.9414<518.388 538.755 504.823 539.618> 41.7725 46<665.47 665.47> 215.036 49.9795<513.669 543.58 543.58 579.79>
LayerCount: 2
Fore
SplineSet
265.015625 646.599609375 m 2xf4
 265.015625 673.942382812 260.737304688 748.08984375 150.264648438 748.08984375 c 0
 115.422851562 748.08984375 88.982421875 739.731445312 69.998046875 723.858398438 c 0
 52.359375 709.111328125 42.990234375 690.061523438 41.7724609375 665.469726562 c 1
 87.7724609375 665.469726562 l 1xec
 89.76953125 688.67578125 105.7890625 713.41015625 150.264648438 713.41015625 c 0
 189.557617188 713.41015625 215.03515625 692.314453125 215.03515625 649.66015625 c 2
 215.03515625 610.389648438 l 1
 133.9453125 610.389648438 l 2
 101.850585938 610.389648438 77.4609375 602.563476562 59.818359375 587.706054688 c 0
 42.2890625 572.9453125 33.474609375 552.995117188 33.474609375 526.240234375 c 0
 33.474609375 510.536132812 33.8603515625 434.950195312 129.866210938 434.950195312 c 0
 162.245117188 434.950195312 184.893554688 443.91796875 203.383789062 467.69140625 c 2
 217.076171875 485.29296875 l 1
 217.076171875 439.030273438 l 1
 265.015625 439.030273438 l 1
 265.015625 646.599609375 l 2xf4
215.036132812 543.580078125 m 2
 215.036132812 483.758789062 176.291015625 473.709960938 143.125976562 473.709960938 c 0
 116.213867188 473.709960938 81.416015625 482.385742188 81.416015625 527.259765625 c 0xf4
 81.416015625 550.250976562 91.6337890625 579.790039062 144.145507812 579.790039062 c 2
 215.036132812 579.790039062 l 1
 215.036132812 543.580078125 l 2
158.42578125 856.719726562 m 1024
EndSplineSet
EndChar

StartChar: guillemotleft
Encoding: 171 171 108
Width: 476
GlyphClass: 2
Flags: W
LayerCount: 2
Fore
SplineSet
206.875976562 445.352539062 m 1
 26.3603515625 262.059570312 l 1
 206.875976562 78.767578125 l 1
 206.875976562 141.6328125 l 1
 88.54296875 262.059570312 l 1
 206.875976562 382.487304688 l 1
 206.875976562 445.352539062 l 1
393.536132812 445.352539062 m 1
 213.020507812 262.059570312 l 1
 393.536132812 78.767578125 l 1
 393.536132812 141.6328125 l 1
 275.203125 262.059570312 l 1
 393.536132812 382.487304688 l 1
 393.536132812 445.352539062 l 1
EndSplineSet
EndChar

StartChar: logicalnot
Encoding: 172 172 109
Width: 511
GlyphClass: 2
Flags: MW
HStem: 133.03 184.62<392.516 447.596 54.8955 447.596>
LayerCount: 2
Fore
SplineSet
392.515625 269.709960938 m 1
 392.515625 133.030273438 l 1
 447.595703125 133.030273438 l 1
 447.595703125 317.650390625 l 1
 54.8955078125 317.650390625 l 1
 54.8955078125 269.709960938 l 1
 392.515625 269.709960938 l 1
EndSplineSet
EndChar

StartChar: uni00AD
Encoding: 173 173 110
Width: 389
GlyphClass: 2
Flags: MW
HStem: 320.71 52.0205<57.9561 323.156 57.9561 323.156>
VStem: 57.9561 265.2<320.71 372.73 320.71 372.73>
LayerCount: 2
Fore
SplineSet
323.15625 372.73046875 m 1
 57.9560546875 372.73046875 l 1
 57.9560546875 320.709960938 l 1
 323.15625 320.709960938 l 1
 323.15625 372.73046875 l 1
EndSplineSet
EndChar

StartChar: registered
Encoding: 174 174 111
Width: 536
GlyphClass: 2
Flags: MW
HStem: 312.55 16.3203<239.809 287.5 239.809 316.394> 507.37 21G<221.156 274.706 221.156 221.156> 585.91 17.3398<221.156 274.706 274.706 275.726 199.736 283.3> 671.59 16.3203<239.809 309.963>
VStem: 79.376 19.3799<475.796 525.359 475.796 555.035> 319.076 20.3994<539.742 557.134 539.742 563.595> 430.256 18.3604<476.11 552.311>
LayerCount: 2
Fore
SplineSet
79.3759765625 500.740234375 m 0
 79.3759765625 393.35546875 157.07421875 312.549804688 263.486328125 312.549804688 c 0
 369.301757812 312.549804688 448.616210938 390.66015625 448.616210938 500.740234375 c 0
 448.616210938 607.420898438 371.216796875 687.91015625 263.486328125 687.91015625 c 0
 159.095703125 687.91015625 79.3759765625 609.329101562 79.3759765625 500.740234375 c 0
263.486328125 671.58984375 m 0
 356.439453125 671.58984375 430.255859375 603.880859375 430.255859375 500.740234375 c 0
 430.255859375 451.479492188 414.603515625 410.0625 383.224609375 377.61328125 c 0
 351.830078125 345.149414062 311.513671875 328.870117188 263.486328125 328.870117188 c 0
 216.130859375 328.870117188 176.325195312 344.985351562 145.276367188 377.104492188 c 0
 114.198242188 409.25390625 98.755859375 450.8515625 98.755859375 500.740234375 c 0
 98.755859375 549.977539062 114.219726562 591.228515625 145.276367188 623.35546875 c 0
 176.325195312 655.474609375 216.130859375 671.58984375 263.486328125 671.58984375 c 0
339.475585938 546.639648438 m 0
 339.475585938 567.627929688 331.291015625 603.25 275.725585938 603.25 c 2
 199.736328125 603.25 l 1
 199.736328125 400.26953125 l 1
 221.15625 400.26953125 l 1
 221.15625 490.030273438 l 1
 269.60546875 490.030273438 l 1
 274.432617188 490.030273438 l 1
 317.272460938 400.26953125 l 1
 340.0859375 400.26953125 l 1
 296.8203125 490.736328125 l 1
 311.41015625 496.111328125 321.745117188 499.919921875 330.556640625 513.135742188 c 0
 336.37109375 521.857421875 339.475585938 532.844726562 339.475585938 546.639648438 c 0
319.076171875 546.639648438 m 0
 319.076171875 531.428710938 313.01953125 507.370117188 274.706054688 507.370117188 c 2
 221.15625 507.370117188 l 1
 221.15625 585.91015625 l 1
 274.706054688 585.91015625 l 2
 291.893554688 585.91015625 319.076171875 580.549804688 319.076171875 546.639648438 c 0
EndSplineSet
EndChar

StartChar: macron
Encoding: 175 175 112
Width: 499
GlyphClass: 2
Flags: MW
HStem: 602.23 47.9395<120.176 370.076 120.176 370.076>
VStem: 120.176 249.9<602.23 650.17 602.23 650.17>
LayerCount: 2
Fore
SplineSet
370.076171875 650.169921875 m 1
 120.17578125 650.169921875 l 1
 120.17578125 602.23046875 l 1
 370.076171875 602.23046875 l 1
 370.076171875 650.169921875 l 1
EndSplineSet
EndChar

StartChar: degree
Encoding: 176 176 113
Width: 408
GlyphClass: 2
Flags: MW
HStem: 428.83 34.6797<186.097 214.083 186.097 219.397> 665.47 33.6602<180.378 214.083>
VStem: 65.0957 36.7197<549.87 583.502> 297.656 36.7197<549.87 578.405>
LayerCount: 2
Fore
SplineSet
200.24609375 428.830078125 m 0
 238.548828125 428.830078125 270.040039062 441.610351562 295.817382812 467.388671875 c 0
 321.569335938 493.139648438 334.375976562 524.9609375 334.375976562 563.98046875 c 0
 334.375976562 602.999023438 321.569335938 634.8203125 295.817382812 660.571289062 c 0
 270.040039062 686.349609375 238.548828125 699.129882812 200.24609375 699.129882812 c 0
 160.509765625 699.129882812 128.55078125 686.299804688 103.178710938 660.606445312 c 0
 77.7568359375 634.862304688 65.095703125 603.024414062 65.095703125 563.98046875 c 0
 65.095703125 524.935546875 77.7568359375 493.09765625 103.178710938 467.353515625 c 0
 128.55078125 441.66015625 160.509765625 428.830078125 200.24609375 428.830078125 c 0
101.815429688 563.98046875 m 0
 101.815429688 622.674804688 142.379882812 665.469726562 200.24609375 665.469726562 c 0
 227.920898438 665.469726562 251.576171875 655.78125 270.01953125 636.600585938 c 0
 288.473632812 617.409179688 297.65625 592.830078125 297.65625 563.98046875 c 0
 297.65625 535.758789062 288.435546875 511.53125 270.01953125 492.379882812 c 0
 251.576171875 473.198242188 227.920898438 463.509765625 200.24609375 463.509765625 c 0
 171.947265625 463.509765625 147.9375 473.155273438 129.452148438 492.379882812 c 0
 111.036132812 511.53125 101.815429688 535.758789062 101.815429688 563.98046875 c 0
EndSplineSet
EndChar

StartChar: plusminus
Encoding: 177 177 114
Width: 511
GlyphClass: 2
Flags: W
LayerCount: 2
Fore
SplineSet
225.236328125 285.009765625 m 1
 225.236328125 115.690429688 l 1
 277.255859375 115.690429688 l 1
 277.255859375 285.009765625 l 1
 446.576171875 285.009765625 l 1
 446.576171875 337.030273438 l 1
 277.255859375 337.030273438 l 1
 277.255859375 506.349609375 l 1
 225.236328125 506.349609375 l 1
 225.236328125 337.030273438 l 1
 55.916015625 337.030273438 l 1
 55.916015625 285.009765625 l 1
 225.236328125 285.009765625 l 1
446.576171875 48.3701171875 m 1
 55.916015625 48.3701171875 l 1
 55.916015625 -3.650390625 l 1
 446.576171875 -3.650390625 l 1
 446.576171875 48.3701171875 l 1
EndSplineSet
EndChar

StartChar: uni00B2
Encoding: 178 178 115
Width: 316
GlyphClass: 2
Flags: MW
HStem: 814.39 41.8203<143.333 168.625>
VStem: 40.6162 52.0195<741.97 745.54 745.54 749.62 741.97 745.54> 210.956 55.0791<731.43 753.7 742.48 750.64>
LayerCount: 2
Fore
SplineSet
152.305664062 814.389648438 m 0
 184.9453125 814.389648438 210.956054688 793.424804688 210.956054688 750.639648438 c 2
 210.956054688 742.48046875 l 2
 210.956054688 720.379882812 204.614257812 700.233398438 184.01171875 671.708007812 c 2
 43.67578125 481.900390625 l 1
 43.67578125 439.030273438 l 1
 267.055664062 439.030273438 l 1
 267.055664062 483.91015625 l 1
 109.736328125 483.91015625 l 1
 227.836914062 646.16015625 l 2
 259.369140625 687.147460938 266.03515625 714.872070312 266.03515625 742.48046875 c 2
 266.03515625 753.700195312 l 2
 266.03515625 784.563476562 255.965820312 808.787109375 235.815429688 827.678710938 c 0
 215.698242188 846.538085938 188.927734375 856.209960938 154.345703125 856.209960938 c 0
 119.079101562 856.209960938 91.80078125 846.364257812 71.3486328125 827.171875 c 0
 50.9326171875 808.012695312 40.6162109375 782.623046875 40.6162109375 749.620117188 c 2
 40.6162109375 741.969726562 l 1
 92.6357421875 741.969726562 l 1
 92.6357421875 745.540039062 l 2
 92.6357421875 767 97.4130859375 784.381835938 108.369140625 796.5546875 c 0
 119.197265625 808.5859375 134.359375 814.389648438 152.305664062 814.389648438 c 0
EndSplineSet
EndChar

StartChar: uni00B3
Encoding: 179 179 116
Width: 314
GlyphClass: 2
Flags: MW
HStem: 432.91 40.7998<138.675 166.821> 630.79 41.8203<130.376 144.146 130.376 154.483> 814.389 41.8203<131.923 153.619>
VStem: 37.5557 45.9004<518.207 537.97 535.42 537.97 535.42 537.97> 206.876 52.0195<728.845 754.719 744.519 748.599> 214.016 51.001<522.483 556.84 544.6 556.84 556.84 557.86>
LayerCount: 2
Fore
SplineSet
214.015625 544.599609375 m 2xf4
 214.015625 500.366210938 188.872070312 473.709960938 148.225585938 473.709960938 c 0
 129.125 473.709960938 112.994140625 479.143554688 101.090820312 490.650390625 c 0
 89.25 502.096679688 83.4560546875 517.4609375 83.4560546875 535.419921875 c 2
 83.4560546875 537.969726562 l 1
 37.5556640625 537.969726562 l 1
 37.5556640625 534.400390625 l 2
 37.5556640625 502.012695312 47.4091796875 477.698242188 66.7001953125 459.961914062 c 0
 86.0166015625 442.204101562 113.143554688 432.91015625 149.247070312 432.91015625 c 0
 184.395507812 432.91015625 211.974609375 443.334960938 233.171875 463.900390625 c 0
 254.37109375 484.466796875 265.016601562 510.944335938 265.016601562 544.599609375 c 2
 265.016601562 556.83984375 l 2xf4
 265.016601562 576.954101562 260.2265625 629.90625 211.643554688 649.711914062 c 2
 196.352539062 655.9453125 l 1
 220.874023438 668.740234375 232.633789062 674.875 245.806640625 695.578125 c 0
 254.458984375 709.174804688 258.895507812 725.328125 258.895507812 744.518554688 c 2
 258.895507812 754.71875 l 2
 258.895507812 785.651367188 249.109375 809.713867188 229.654296875 828.227539062 c 0
 210.262695312 846.680664062 183.864257812 856.208984375 149.24609375 856.208984375 c 0
 114.599609375 856.208984375 88.173828125 846.825195312 68.7890625 828.692382812 c 0
 49.4150390625 810.568359375 39.595703125 786.37890625 39.595703125 754.71875 c 2
 39.595703125 751.149414062 l 1
 86.515625 751.149414062 l 1
 86.515625 753.69921875 l 2
 86.515625 787.803710938 106.173828125 814.388671875 147.206054688 814.388671875 c 0
 160.032226562 814.388671875 206.875976562 810.174804688 206.875976562 748.598632812 c 2
 206.875976562 738.399414062 l 2xf8
 206.875976562 719.290039062 201.440429688 703.05078125 190.022460938 690.845703125 c 0
 178.534179688 678.564453125 162.762695312 672.610351562 144.145507812 672.610351562 c 2
 130.375976562 672.610351562 l 1
 130.375976562 630.790039062 l 1
 144.145507812 630.790039062 l 2
 164.821289062 630.790039062 182.2734375 624.142578125 195.102539062 610.53515625 c 0
 207.870117188 596.994140625 214.015625 579.045898438 214.015625 557.860351562 c 2
 214.015625 544.599609375 l 2xf4
EndSplineSet
EndChar

StartChar: acute
Encoding: 180 180 117
Width: 499
GlyphClass: 2
Flags: MW
HStem: 583.87 112.2<178.322 331.22 223.508 331.22>
LayerCount: 2
Fore
SplineSet
331.219726562 696.0703125 m 1
 267.184570312 696.0703125 l 1
 178.322265625 583.870117188 l 1
 223.5078125 583.870117188 l 1
 331.219726562 696.0703125 l 1
EndSplineSet
EndChar

StartChar: uni00B5
Encoding: 181 181 118
Width: 514
GlyphClass: 2
Flags: MW
HStem: -7.73047 47.9404<232.098 258.864>
VStem: 74.2754 54.0605<-154.61 43.9639 174.34 502.27 -154.61 43.9639> 376.196 55.0791<153.573 174.34 174.34 502.27>
LayerCount: 2
Fore
SplineSet
250.225585938 40.2099609375 m 0
 213.970703125 40.2099609375 128.3359375 53.0478515625 128.3359375 174.33984375 c 2
 128.3359375 502.26953125 l 1
 74.275390625 502.26953125 l 1
 74.275390625 -154.610351562 l 1
 128.3359375 -154.610351562 l 1
 128.3359375 43.9638671875 l 1
 141.607421875 29.5859375 l 2
 164.41796875 4.875 196.041015625 -7.73046875 237.986328125 -7.73046875 c 0
 279.7421875 -7.73046875 330.431640625 5.177734375 363.052734375 57.9921875 c 2
 377.215820312 80.923828125 l 1
 377.215820312 0.4296875 l 1
 431.275390625 0.4296875 l 1
 431.275390625 502.26953125 l 1
 376.196289062 502.26953125 l 1
 376.196289062 174.33984375 l 2
 376.196289062 132.806640625 364.470703125 99.412109375 340.251953125 75.560546875 c 0
 316.337890625 52.0078125 285.954101562 40.2099609375 250.225585938 40.2099609375 c 0
EndSplineSet
EndChar

StartChar: paragraph
Encoding: 182 182 119
Width: 614
GlyphClass: 2
Flags: MW
VStem: 79.376 244.8<454.597 538.573>
LayerCount: 2
Fore
SplineSet
293.065429688 688.9296875 m 2
 150.27734375 688.9296875 79.3759765625 593.74609375 79.3759765625 483.400390625 c 0
 79.3759765625 425.79296875 96.294921875 378.509765625 129.977539062 340.576171875 c 0
 163.6015625 302.70703125 207.891601562 281.813476562 264.03125 277.850585938 c 2
 271.135742188 277.349609375 l 1
 271.135742188 -154.610351562 l 1
 324.17578125 -154.610351562 l 1
 324.17578125 637.9296875 l 1
 432.295898438 637.9296875 l 1
 432.295898438 -154.610351562 l 1
 485.3359375 -154.610351562 l 1
 485.3359375 688.9296875 l 1
 293.065429688 688.9296875 l 2
EndSplineSet
EndChar

StartChar: periodcentered
Encoding: 183 183 120
Width: 188
GlyphClass: 2
Flags: MW
HStem: 227.89 78.54<51.8359 126.296 51.8359 126.296>
VStem: 51.8359 74.46<227.89 306.43 227.89 306.43>
LayerCount: 2
Fore
SplineSet
126.295898438 306.4296875 m 1
 51.8359375 306.4296875 l 1
 51.8359375 227.889648438 l 1
 126.295898438 227.889648438 l 1
 126.295898438 306.4296875 l 1
EndSplineSet
EndChar

StartChar: cedilla
Encoding: 184 184 121
Width: 499
GlyphClass: 2
Flags: MW
HStem: -152.57 149.94<193.07 297.812 248.758 297.812>
VStem: 193.07 55.6875<-152.57 -152.57>
LayerCount: 2
Fore
SplineSet
297.8125 -2.6298828125 m 1
 251.379882812 -2.6298828125 l 1
 193.0703125 -152.5703125 l 1
 248.7578125 -152.5703125 l 1
 297.8125 -2.6298828125 l 1
EndSplineSet
EndChar

StartChar: uni00B9
Encoding: 185 185 122
Width: 216
GlyphClass: 2
Flags: MW
VStem: 24.2959 129.54<741.501 797.784 741.501 741.501>
LayerCount: 2
Fore
SplineSet
98.755859375 797.600585938 m 1
 98.755859375 439.030273438 l 1
 153.8359375 439.030273438 l 1
 153.8359375 849.0703125 l 1
 93.6259765625 849.0703125 l 1
 24.2958984375 797.784179688 l 1
 24.2958984375 741.500976562 l 1
 98.755859375 797.600585938 l 1
EndSplineSet
EndChar

StartChar: ordmasculine
Encoding: 186 186 123
Width: 325
GlyphClass: 2
Flags: MW
HStem: 434.95 43.8594<142.225 177.446> 704.23 43.8594<139.406 174.626>
VStem: 39.5957 49.9805<538.72 622.12 560.92 622.12> 227.275 49.9805<552.442 622.12 560.92 622.12>
LayerCount: 2
Fore
SplineSet
158.42578125 434.950195312 m 0
 196.466796875 434.950195312 225.206054688 445.34375 245.921875 465.431640625 c 0
 266.315429688 485.206054688 277.255859375 516.518554688 277.255859375 560.919921875 c 2
 277.255859375 622.120117188 l 2
 277.255859375 666.521484375 266.315429688 697.833984375 245.921875 717.608398438 c 0
 225.206054688 737.696289062 196.466796875 748.08984375 158.42578125 748.08984375 c 0
 120.385742188 748.08984375 91.6455078125 737.696289062 70.9296875 717.608398438 c 0
 50.537109375 697.833984375 39.595703125 666.521484375 39.595703125 622.120117188 c 2
 39.595703125 560.919921875 l 2
 39.595703125 516.51953125 50.537109375 485.20703125 70.9296875 465.431640625 c 0
 91.6455078125 445.34375 120.385742188 434.950195312 158.42578125 434.950195312 c 0
158.42578125 704.23046875 m 0
 190.827148438 704.23046875 227.275390625 689.298828125 227.275390625 622.120117188 c 2
 227.275390625 560.919921875 l 2
 227.275390625 543.963867188 226.73828125 478.809570312 158.42578125 478.809570312 c 0
 126.024414062 478.809570312 89.576171875 493.741210938 89.576171875 560.919921875 c 2
 89.576171875 622.120117188 l 2
 89.576171875 639.076171875 90.11328125 704.23046875 158.42578125 704.23046875 c 0
158.42578125 856.719726562 m 1024
EndSplineSet
EndChar

StartChar: guillemotright
Encoding: 187 187 124
Width: 476
GlyphClass: 2
Flags: W
LayerCount: 2
Fore
SplineSet
74.275390625 382.487304688 m 1
 192.608398438 262.059570312 l 1
 74.275390625 141.6328125 l 1
 74.275390625 78.767578125 l 1
 254.791015625 262.059570312 l 1
 74.275390625 445.352539062 l 1
 74.275390625 382.487304688 l 1
259.916015625 382.506835938 m 1
 379.315429688 262.059570312 l 1
 259.916015625 141.61328125 l 1
 259.916015625 78.7001953125 l 1
 441.423828125 262.059570312 l 1
 259.916015625 445.419921875 l 1
 259.916015625 382.506835938 l 1
EndSplineSet
EndChar

StartChar: onequarter
Encoding: 188 188 125
Width: 733
GlyphClass: 3
Flags: W
LayerCount: 2
Fore
SplineSet
98.755859375 637.4609375 m 1
 98.755859375 278.889648438 l 1
 153.8359375 278.889648438 l 1
 153.8359375 688.9296875 l 1
 93.6259765625 688.9296875 l 1
 24.2958984375 637.64453125 l 1
 24.2958984375 581.360351562 l 1
 98.755859375 637.4609375 l 1
655.67578125 0.4296875 m 1
 655.67578125 76.9296875 l 1
 695.456054688 76.9296875 l 1
 695.456054688 121.809570312 l 1
 655.67578125 121.809570312 l 1
 655.67578125 221.76953125 l 1
 600.595703125 221.76953125 l 1
 600.595703125 121.809570312 l 1
 491.78125 121.809570312 l 1
 610.1015625 410.469726562 l 1
 557.262695312 410.469726562 l 1
 440.456054688 127.9375 l 1
 440.456054688 76.9296875 l 1
 600.595703125 76.9296875 l 1
 600.595703125 0.4296875 l 1
 655.67578125 0.4296875 l 1
515.853515625 688.9296875 m 1
 468.987304688 688.9296875 l 1
 96.7978515625 0.4296875 l 1
 143.665039062 0.4296875 l 1
 515.853515625 688.9296875 l 1
EndSplineSet
Ligature2: "'frac' Diagonal Fractions lookup 2 subtable" one slash four
EndChar

StartChar: onehalf
Encoding: 189 189 126
Width: 722
GlyphClass: 3
Flags: MW
HStem: 375.79 41.8203<549.293 574.586>
VStem: 446.577 52.0195<303.37 306.94 306.94 311.02 303.37 306.94> 616.917 55.0791<292.83 315.1 303.88 312.04>
LayerCount: 2
Fore
SplineSet
98.755859375 637.4609375 m 1
 98.755859375 278.889648438 l 1
 153.8359375 278.889648438 l 1
 153.8359375 688.9296875 l 1
 93.6259765625 688.9296875 l 1
 24.2958984375 637.64453125 l 1
 24.2958984375 581.360351562 l 1
 98.755859375 637.4609375 l 1
558.266601562 375.790039062 m 0
 590.90625 375.790039062 616.916992188 354.825195312 616.916992188 312.040039062 c 2
 616.916992188 303.879882812 l 2
 616.916992188 281.780273438 610.575195312 261.6328125 589.97265625 233.107421875 c 2
 449.635742188 43.30078125 l 1
 449.635742188 0.4296875 l 1
 673.015625 0.4296875 l 1
 673.015625 45.3095703125 l 1
 515.696289062 45.3095703125 l 1
 524.537109375 57.455078125 l 1
 524.537109375 57.455078125 633.676757812 207.395507812 633.798828125 207.557617188 c 0
 665.385742188 248.625 671.99609375 276.356445312 671.99609375 303.879882812 c 2
 671.99609375 315.099609375 l 2
 671.99609375 345.963867188 661.927734375 370.186523438 641.776367188 389.079101562 c 0
 621.659179688 407.938476562 594.888671875 417.610351562 560.306640625 417.610351562 c 0
 525.040039062 417.610351562 497.76171875 407.764648438 477.309570312 388.571289062 c 0
 456.893554688 369.413085938 446.577148438 344.0234375 446.577148438 311.01953125 c 2
 446.577148438 303.370117188 l 1
 498.596679688 303.370117188 l 1
 498.596679688 306.940429688 l 2
 498.596679688 328.400390625 503.374023438 345.782226562 514.330078125 357.954101562 c 0
 525.158203125 369.986328125 540.3203125 375.790039062 558.266601562 375.790039062 c 0
515.854492188 688.9296875 m 1
 468.98828125 688.9296875 l 1
 96.798828125 0.4296875 l 1
 143.666015625 0.4296875 l 1
 515.854492188 688.9296875 l 1
EndSplineSet
Ligature2: "'frac' Diagonal Fractions lookup 2 subtable" one slash two
EndChar

StartChar: threequarters
Encoding: 190 190 127
Width: 831
GlyphClass: 3
Flags: MW
HStem: 272.77 40.7998<138.675 166.821> 470.649 41.8193<130.376 144.146 130.376 154.483> 654.248 41.8203<131.923 153.619>
VStem: 37.5557 45.9004<358.065 377.829 375.279 377.829 375.279 377.829> 206.876 52.0195<568.703 594.578 584.378 588.458> 214.016 51.001<362.342 396.7 384.46 396.7 396.7 397.719>
LayerCount: 2
Fore
SplineSet
214.015625 384.458984375 m 2xf4
 214.015625 340.224609375 188.872070312 313.569335938 148.225585938 313.569335938 c 0
 129.125 313.569335938 112.994140625 319.001953125 101.090820312 330.508789062 c 0
 89.25 341.955078125 83.4560546875 357.319335938 83.4560546875 375.279296875 c 2
 83.4560546875 377.829101562 l 1
 37.5556640625 377.829101562 l 1
 37.5556640625 374.258789062 l 2
 37.5556640625 341.872070312 47.4091796875 317.557617188 66.7001953125 299.822265625 c 0
 86.0166015625 282.064453125 113.143554688 272.76953125 149.247070312 272.76953125 c 0
 184.395507812 272.76953125 211.974609375 283.1953125 233.171875 303.759765625 c 0
 254.37109375 324.326171875 265.016601562 350.8046875 265.016601562 384.459960938 c 2
 265.016601562 396.700195312 l 2xf4
 265.016601562 416.765625 260.2421875 469.772460938 211.645507812 489.5703125 c 2
 196.34765625 495.801757812 l 1
 220.875976562 508.599609375 232.633789062 514.734375 245.806640625 535.436523438 c 0
 254.458984375 549.034179688 258.895507812 565.186523438 258.895507812 584.377929688 c 2
 258.895507812 594.578125 l 2
 258.895507812 625.510742188 249.109375 649.572265625 229.654296875 668.0859375 c 0
 210.262695312 686.540039062 183.864257812 696.068359375 149.24609375 696.068359375 c 0
 114.599609375 696.068359375 88.173828125 686.684570312 68.7890625 668.55078125 c 0
 49.4150390625 650.427734375 39.595703125 626.23828125 39.595703125 594.578125 c 2
 39.595703125 591.0078125 l 1
 86.515625 591.0078125 l 1
 86.515625 593.557617188 l 2
 86.515625 627.663085938 106.173828125 654.248046875 147.206054688 654.248046875 c 0
 160.032226562 654.248046875 206.875976562 650.033203125 206.875976562 588.458007812 c 2
 206.875976562 578.2578125 l 2xf8
 206.875976562 559.1484375 201.440429688 542.91015625 190.022460938 530.705078125 c 0
 178.534179688 518.423828125 162.762695312 512.46875 144.145507812 512.46875 c 2
 130.375976562 512.46875 l 1
 130.375976562 470.649414062 l 1
 144.145507812 470.649414062 l 2
 164.821289062 470.649414062 182.2734375 464.001953125 195.102539062 450.39453125 c 0
 207.870117188 436.852539062 214.015625 418.905273438 214.015625 397.71875 c 2
 214.015625 384.458984375 l 2xf4
754.616210938 0.4287109375 m 1
 754.616210938 76.9287109375 l 1
 794.395507812 76.9287109375 l 1
 794.395507812 121.80859375 l 1
 754.616210938 121.80859375 l 1
 754.616210938 221.768554688 l 1
 699.536132812 221.768554688 l 1
 699.536132812 121.80859375 l 1
 590.720703125 121.80859375 l 1
 709.041015625 410.46875 l 1
 656.202148438 410.46875 l 1
 539.395507812 127.936523438 l 1
 539.395507812 76.9287109375 l 1
 699.536132812 76.9287109375 l 1
 699.536132812 0.4287109375 l 1
 754.616210938 0.4287109375 l 1
614.793945312 688.928710938 m 1
 567.926757812 688.928710938 l 1
 195.73828125 0.4287109375 l 1
 242.604492188 0.4287109375 l 1
 614.793945312 688.928710938 l 1
EndSplineSet
Ligature2: "'frac' Diagonal Fractions lookup 2 subtable" three slash four
EndChar

StartChar: questiondown
Encoding: 191 191 128
Width: 426
GlyphClass: 2
Flags: MW
HStem: -164.81 52.0195<198.512 252.484>
VStem: 45.7148 59.1592<-18.8193 21.1714 -18.8193 21.3496> 185.454 59.1602<294.7 295.72 295.72 323.77> 322.903 59.1348<-1.61035 -1.61035>
LayerCount: 2
Fore
SplineSet
253.795898438 502.26953125 m 1
 178.315429688 502.26953125 l 1
 178.315429688 422.709960938 l 1
 253.795898438 422.709960938 l 1
 253.795898438 502.26953125 l 1
185.454101562 295.719726562 m 2
 185.454101562 250.086914062 177.954101562 230.546875 150.09765625 196.05859375 c 2
 150.09765625 196.05859375 102.237304688 134.958984375 102.229492188 134.948242188 c 0
 59.1552734375 79.759765625 45.71484375 44.818359375 45.71484375 -2.119140625 c 0
 45.71484375 -51.4931640625 60.8486328125 -90.3984375 90.875 -120.102539062 c 0
 120.836914062 -149.743164062 161.287109375 -164.809570312 213.505859375 -164.809570312 c 0
 291.462890625 -164.809570312 375.750976562 -133.716796875 382.038085938 -1.6103515625 c 1
 322.903320312 -1.6103515625 l 1
 321.180664062 -37.162109375 310.390625 -112.790039062 215.543945312 -112.790039062 c 0
 181.479492188 -112.790039062 153.861328125 -103.095703125 134.094726562 -82.95703125 c 0
 114.404296875 -62.8955078125 104.874023438 -35.5185546875 104.874023438 -2.1201171875 c 0
 104.874023438 44.462890625 119.606445312 74.48828125 153.520507812 115.939453125 c 2
 153.520507812 115.939453125 201.389648438 175.01171875 201.4375 175.071289062 c 0
 235.3671875 217.797851562 244.614257812 242.540039062 244.614257812 294.700195312 c 2
 244.614257812 323.76953125 l 1
 185.454101562 323.76953125 l 1
 185.454101562 295.719726562 l 2
EndSplineSet
EndChar

StartChar: Agrave
Encoding: 192 192 129
Width: 577
GlyphClass: 2
Flags: W
LayerCount: 2
Fore
SplineSet
129.534179688 169.75 m 1
 439.2578125 169.75 l 1
 498.41796875 0.4296875 l 1
 560.6015625 0.4296875 l 1
 310.146484375 688.9296875 l 1
 258.64453125 688.9296875 l 1
 8.1904296875 0.4296875 l 1
 70.3740234375 0.4296875 l 1
 129.534179688 169.75 l 1
145.629882812 217.690429688 m 1
 283.857421875 615.784179688 l 1
 423.189453125 217.690429688 l 1
 145.629882812 217.690429688 l 1
238.3671875 882.73046875 m 1
 174.33203125 882.73046875 l 1
 282.043945312 770.530273438 l 1
 327.229492188 770.530273438 l 1
 238.3671875 882.73046875 l 1
EndSplineSet
EndChar

StartChar: Aacute
Encoding: 193 193 130
Width: 577
GlyphClass: 2
Flags: W
LayerCount: 2
Fore
SplineSet
129.534179688 169.75 m 1
 439.2578125 169.75 l 1
 498.41796875 0.4296875 l 1
 560.6015625 0.4296875 l 1
 310.146484375 688.9296875 l 1
 258.64453125 688.9296875 l 1
 8.1904296875 0.4296875 l 1
 70.3740234375 0.4296875 l 1
 129.534179688 169.75 l 1
145.629882812 217.690429688 m 1
 283.857421875 615.784179688 l 1
 423.189453125 217.690429688 l 1
 145.629882812 217.690429688 l 1
377.119140625 882.73046875 m 1
 313.083984375 882.73046875 l 1
 224.221679688 770.530273438 l 1
 269.407226562 770.530273438 l 1
 377.119140625 882.73046875 l 1
EndSplineSet
EndChar

StartChar: Acircumflex
Encoding: 194 194 131
Width: 577
GlyphClass: 2
Flags: W
LayerCount: 2
Fore
SplineSet
129.534179688 169.75 m 1
 439.2578125 169.75 l 1
 498.41796875 0.4296875 l 1
 560.6015625 0.4296875 l 1
 310.146484375 688.9296875 l 1
 258.64453125 688.9296875 l 1
 8.1904296875 0.4296875 l 1
 70.3740234375 0.4296875 l 1
 129.534179688 169.75 l 1
145.629882812 217.690429688 m 1
 283.857421875 615.784179688 l 1
 423.189453125 217.690429688 l 1
 145.629882812 217.690429688 l 1
308.600585938 891.91015625 m 1
 260.19140625 891.91015625 l 1
 162.419921875 760.330078125 l 1
 206.677734375 760.330078125 l 1
 284.948242188 862.188476562 l 1
 362.145507812 760.330078125 l 1
 406.372070312 760.330078125 l 1
 308.600585938 891.91015625 l 1
EndSplineSet
EndChar

StartChar: Atilde
Encoding: 195 195 132
Width: 577
GlyphClass: 2
Flags: MW
HStem: 768.493 44.8799<334.586 350.847> 807.251 45.9023<218.117 242.542>
LayerCount: 2
Fore
SplineSet
129.534179688 169.75 m 1x00
 439.2578125 169.75 l 1
 498.41796875 0.4296875 l 1
 560.6015625 0.4296875 l 1
 310.146484375 688.9296875 l 1
 258.64453125 688.9296875 l 1
 8.1904296875 0.4296875 l 1
 70.3740234375 0.4296875 l 1
 129.534179688 169.75 l 1x00
145.629882812 217.690429688 m 1
 283.857421875 615.784179688 l 1
 423.189453125 217.690429688 l 1
 145.629882812 217.690429688 l 1
402.716796875 842.298828125 m 1
 382.912109375 823.4453125 368.020507812 813.373046875 343.046875 813.373046875 c 0x80
 298.012695312 813.373046875 275.859375 853.153320312 228.806640625 853.153320312 c 0
 207.427734375 853.153320312 189.239257812 845.7109375 166.076171875 819.201171875 c 1
 166.076171875 778.8125 l 1
 184.453125 796.694335938 200.166992188 807.250976562 226.765625 807.250976562 c 0x40
 258.318359375 807.250976562 284.001953125 783.901367188 312.12890625 773.0859375 c 0
 319.9296875 770.0859375 329.185546875 768.493164062 339.987304688 768.493164062 c 0x80
 361.706054688 768.493164062 382.479492188 778.857421875 402.716796875 801.466796875 c 1
 402.716796875 842.298828125 l 1
EndSplineSet
EndChar

StartChar: Adieresis
Encoding: 196 196 133
Width: 577
GlyphClass: 2
Flags: W
LayerCount: 2
Fore
SplineSet
129.534179688 169.75 m 1
 439.2578125 169.75 l 1
 498.41796875 0.4296875 l 1
 560.6015625 0.4296875 l 1
 310.146484375 688.9296875 l 1
 258.64453125 688.9296875 l 1
 8.1904296875 0.4296875 l 1
 70.3740234375 0.4296875 l 1
 129.534179688 169.75 l 1
145.629882812 217.690429688 m 1
 283.857421875 615.784179688 l 1
 423.189453125 217.690429688 l 1
 145.629882812 217.690429688 l 1
228.295898438 849.0703125 m 1
 166.076171875 849.0703125 l 1
 166.076171875 776.650390625 l 1
 228.295898438 776.650390625 l 1
 228.295898438 849.0703125 l 1
402.715820312 849.0703125 m 1
 340.49609375 849.0703125 l 1
 340.49609375 776.650390625 l 1
 402.715820312 776.650390625 l 1
 402.715820312 849.0703125 l 1
EndSplineSet
EndChar

StartChar: Aring
Encoding: 197 197 134
Width: 577
GlyphClass: 2
Flags: MW
HStem: 846.01 23.46<272.168 297.275 272.168 301.919>
VStem: 199.736 24.4795<773.803 796.036> 345.596 24.4805<773.827 796.017 773.827 801.3>
LayerCount: 2
Fore
SplineSet
370.076171875 783.280273438 m 0
 370.076171875 808.752929688 361.987304688 829.000976562 345.797851562 845.19140625 c 0
 329.56640625 861.421875 309.64453125 869.469726562 284.90625 869.469726562 c 0
 259.430664062 869.469726562 239.388671875 861.38671875 223.556640625 845.245117188 c 0
 207.689453125 829.06640625 199.736328125 808.791992188 199.736328125 783.280273438 c 0
 199.736328125 764.326171875 204.868164062 747.787109375 215.180664062 733.098632812 c 0
 230.5546875 711.202148438 247.296875 705.622070312 263.166992188 700.331054688 c 1
 8.1962890625 0.4296875 l 1
 70.3740234375 0.4296875 l 1
 129.534179688 169.75 l 1
 439.2578125 169.75 l 1
 498.41796875 0.4296875 l 1
 560.595703125 0.4296875 l 1
 305.624023438 700.331054688 l 1
 321.485351562 705.619140625 338.294921875 711.221679688 354.18359375 733.186523438 c 0
 364.806640625 747.873046875 370.076171875 764.374023438 370.076171875 783.280273438 c 0
284.90625 721.571289062 m 0
 251.399414062 721.571289062 224.215820312 746.758789062 224.215820312 783.280273438 c 0
 224.215820312 819.276367188 250.844726562 846.009765625 284.90625 846.009765625 c 0
 318.931640625 846.009765625 345.595703125 819.318359375 345.595703125 783.28125 c 0
 345.595703125 746.755859375 318.407226562 721.571289062 284.90625 721.571289062 c 0
145.629882812 217.69140625 m 1
 283.857421875 615.78515625 l 1
 423.189453125 217.69140625 l 1
 145.629882812 217.69140625 l 1
291.025390625 696.581054688 m 1024
EndSplineSet
EndChar

StartChar: AE
Encoding: 198 198 135
Width: 871
GlyphClass: 2
Flags: W
LayerCount: 2
Fore
SplineSet
490.435546875 636.91015625 m 1
 816.8359375 636.91015625 l 1
 816.8359375 688.9296875 l 1
 384.315429688 688.9296875 l 1
 10.130859375 0.4296875 l 1
 73.2744140625 0.4296875 l 1
 167.114257812 174.849609375 l 1
 431.275390625 174.849609375 l 1
 431.275390625 0.4296875 l 1
 816.8359375 0.4296875 l 1
 816.8359375 52.4501953125 l 1
 490.435546875 52.4501953125 l 1
 490.435546875 324.790039062 l 1
 764.815429688 324.790039062 l 1
 764.815429688 376.809570312 l 1
 490.435546875 376.809570312 l 1
 490.435546875 636.91015625 l 1
431.275390625 222.790039062 m 1
 193.533203125 222.790039062 l 1
 431.275390625 662.557617188 l 1
 431.275390625 222.790039062 l 1
EndSplineSet
EndChar

StartChar: Ccedilla
Encoding: 199 199 136
Width: 611
GlyphClass: 2
Flags: MW
HStem: -7.73145 53.041<294.305 294.305> 646.089 52.0215<276.375 331.46>
VStem: 65.0947 59.1602<249.82 253.901 253.901 433.42 433.42 436.481> 249.153 55.7119<-152.568 -152.568> 478.165 57.1279<196.271 196.271>
LayerCount: 2
Fore
SplineSet
478.165039062 196.270507812 m 1
 476.657226562 105.624023438 414.81640625 45.3095703125 306.325195312 45.3095703125 c 0
 206.318359375 45.3095703125 124.254882812 93.06640625 124.254882812 249.8203125 c 2
 124.254882812 433.419921875 l 2
 124.254882812 507.060546875 139.056640625 561.546875 170.66015625 595.692382812 c 0
 202.03125 629.587890625 247.4453125 646.088867188 305.3046875 646.088867188 c 0
 357.616210938 646.088867188 399.97265625 632.423828125 431.278320312 604.356445312 c 0
 461.608398438 577.163085938 477.1640625 540.303710938 478.145507812 495.129882812 c 1
 537.31640625 495.129882812 l 1
 535.200195312 619.0390625 444.174804688 698.110351562 305.3046875 698.110351562 c 0
 231.296875 698.110351562 173.291015625 677.064453125 130.067382812 635.477539062 c 0
 87.298828125 594.329101562 65.0947265625 528.52734375 65.0947265625 436.481445312 c 2
 65.0947265625 253.901367188 l 2
 65.0947265625 163.872070312 86.30078125 98.99609375 127.134765625 57.8388671875 c 0
 168.400390625 16.24609375 223.72265625 -5.7333984375 294.3046875 -7.7314453125 c 2
 305.1328125 -8.037109375 l 1
 249.153320312 -152.568359375 l 1
 304.865234375 -152.568359375 l 1
 353.541015625 -4.51171875 l 1
 380.286132812 -0.0546875 441.7109375 10.7685546875 488.262695312 63.6240234375 c 0
 518.864257812 98.369140625 534.629882812 142.276367188 535.29296875 196.270507812 c 1
 478.165039062 196.270507812 l 1
EndSplineSet
EndChar

StartChar: Egrave
Encoding: 200 200 137
Width: 547
GlyphClass: 2
Flags: W
LayerCount: 2
Fore
SplineSet
138.536132812 636.91015625 m 1
 491.456054688 636.91015625 l 1
 491.456054688 688.9296875 l 1
 79.3759765625 688.9296875 l 1
 79.3759765625 0.4296875 l 1
 491.456054688 0.4296875 l 1
 491.456054688 52.4501953125 l 1
 138.536132812 52.4501953125 l 1
 138.536132812 324.790039062 l 1
 440.456054688 324.790039062 l 1
 440.456054688 376.809570312 l 1
 138.536132812 376.809570312 l 1
 138.536132812 636.91015625 l 1
229.1875 882.73046875 m 1
 165.15234375 882.73046875 l 1
 272.864257812 770.530273438 l 1
 318.049804688 770.530273438 l 1
 229.1875 882.73046875 l 1
EndSplineSet
EndChar

StartChar: Eacute
Encoding: 201 201 138
Width: 547
GlyphClass: 2
Flags: W
LayerCount: 2
Fore
SplineSet
138.536132812 636.91015625 m 1
 491.456054688 636.91015625 l 1
 491.456054688 688.9296875 l 1
 79.3759765625 688.9296875 l 1
 79.3759765625 0.4296875 l 1
 491.456054688 0.4296875 l 1
 491.456054688 52.4501953125 l 1
 138.536132812 52.4501953125 l 1
 138.536132812 324.790039062 l 1
 440.456054688 324.790039062 l 1
 440.456054688 376.809570312 l 1
 138.536132812 376.809570312 l 1
 138.536132812 636.91015625 l 1
367.939453125 882.73046875 m 1
 303.904296875 882.73046875 l 1
 215.041992188 770.530273438 l 1
 260.227539062 770.530273438 l 1
 367.939453125 882.73046875 l 1
EndSplineSet
EndChar

StartChar: Ecircumflex
Encoding: 202 202 139
Width: 547
GlyphClass: 2
Flags: W
LayerCount: 2
Fore
SplineSet
138.536132812 636.91015625 m 1
 491.456054688 636.91015625 l 1
 491.456054688 688.9296875 l 1
 79.3759765625 688.9296875 l 1
 79.3759765625 0.4296875 l 1
 491.456054688 0.4296875 l 1
 491.456054688 52.4501953125 l 1
 138.536132812 52.4501953125 l 1
 138.536132812 324.790039062 l 1
 440.456054688 324.790039062 l 1
 440.456054688 376.809570312 l 1
 138.536132812 376.809570312 l 1
 138.536132812 636.91015625 l 1
299.420898438 891.91015625 m 1
 251.010742188 891.91015625 l 1
 153.240234375 760.330078125 l 1
 197.498046875 760.330078125 l 1
 275.767578125 862.188476562 l 1
 352.965820312 760.330078125 l 1
 397.19140625 760.330078125 l 1
 299.420898438 891.91015625 l 1
EndSplineSet
EndChar

StartChar: Edieresis
Encoding: 203 203 140
Width: 547
GlyphClass: 2
Flags: W
LayerCount: 2
Fore
SplineSet
138.536132812 636.91015625 m 1
 491.456054688 636.91015625 l 1
 491.456054688 688.9296875 l 1
 79.3759765625 688.9296875 l 1
 79.3759765625 0.4296875 l 1
 491.456054688 0.4296875 l 1
 491.456054688 52.4501953125 l 1
 138.536132812 52.4501953125 l 1
 138.536132812 324.790039062 l 1
 440.456054688 324.790039062 l 1
 440.456054688 376.809570312 l 1
 138.536132812 376.809570312 l 1
 138.536132812 636.91015625 l 1
219.116210938 849.0703125 m 1
 156.895507812 849.0703125 l 1
 156.895507812 776.650390625 l 1
 219.116210938 776.650390625 l 1
 219.116210938 849.0703125 l 1
393.536132812 849.0703125 m 1
 331.315429688 849.0703125 l 1
 331.315429688 776.650390625 l 1
 393.536132812 776.650390625 l 1
 393.536132812 849.0703125 l 1
EndSplineSet
EndChar

StartChar: Igrave
Encoding: 204 204 141
Width: 244
GlyphClass: 2
Flags: W
LayerCount: 2
Fore
SplineSet
146.696289062 688.9296875 m 1
 87.5361328125 688.9296875 l 1
 87.5361328125 0.4296875 l 1
 146.696289062 0.4296875 l 1
 146.696289062 688.9296875 l 1
71.087890625 882.73046875 m 1
 7.052734375 882.73046875 l 1
 114.764648438 770.530273438 l 1
 159.950195312 770.530273438 l 1
 71.087890625 882.73046875 l 1
EndSplineSet
EndChar

StartChar: Iacute
Encoding: 205 205 142
Width: 244
GlyphClass: 2
Flags: W
LayerCount: 2
Fore
SplineSet
146.696289062 688.9296875 m 1
 87.5361328125 688.9296875 l 1
 87.5361328125 0.4296875 l 1
 146.696289062 0.4296875 l 1
 146.696289062 688.9296875 l 1
209.838867188 882.73046875 m 1
 145.8046875 882.73046875 l 1
 56.94140625 770.530273438 l 1
 102.126953125 770.530273438 l 1
 209.838867188 882.73046875 l 1
EndSplineSet
EndChar

StartChar: Icircumflex
Encoding: 206 206 143
Width: 244
GlyphClass: 2
Flags: W
LayerCount: 2
Fore
SplineSet
146.696289062 688.9296875 m 1
 87.5361328125 688.9296875 l 1
 87.5361328125 0.4296875 l 1
 146.696289062 0.4296875 l 1
 146.696289062 688.9296875 l 1
141.3203125 891.91015625 m 1
 92.9111328125 891.91015625 l 1
 -4.8603515625 760.330078125 l 1
 39.3974609375 760.330078125 l 1
 117.66796875 862.188476562 l 1
 194.865234375 760.330078125 l 1
 239.091796875 760.330078125 l 1
 141.3203125 891.91015625 l 1
EndSplineSet
EndChar

StartChar: Idieresis
Encoding: 207 207 144
Width: 244
GlyphClass: 2
Flags: W
LayerCount: 2
Fore
SplineSet
146.696289062 688.9296875 m 1
 87.5361328125 688.9296875 l 1
 87.5361328125 0.4296875 l 1
 146.696289062 0.4296875 l 1
 146.696289062 688.9296875 l 1
61.015625 849.0703125 m 1
 -1.2041015625 849.0703125 l 1
 -1.2041015625 776.650390625 l 1
 61.015625 776.650390625 l 1
 61.015625 849.0703125 l 1
235.435546875 849.0703125 m 1
 173.215820312 849.0703125 l 1
 173.215820312 776.650390625 l 1
 235.435546875 776.650390625 l 1
 235.435546875 849.0703125 l 1
EndSplineSet
EndChar

StartChar: Eth
Encoding: 208 208 145
Width: 671
GlyphClass: 2
Flags: MW
HStem: 0.429688 52.0195<188.516 361.406 361.406 362.426 188.516 398.063> 636.909 52.0205<188.516 361.406 128.336 362.426 128.336 390.066>
VStem: 537.355 60.1807<201.571 427.299 262.059 424.239>
LayerCount: 2
Fore
SplineSet
361.40625 688.9296875 m 2
 128.3359375 688.9296875 l 1
 128.3359375 374.76953125 l 1
 36.5361328125 374.76953125 l 1
 36.5361328125 322.75 l 1
 128.3359375 322.75 l 1
 128.3359375 0.4296875 l 1
 361.40625 0.4296875 l 2
 434.720703125 0.4296875 491.836914062 21.4619140625 534.030273438 63.0009765625 c 0
 575.811523438 104.133789062 597.536132812 169.98046875 597.536132812 262.05859375 c 2
 597.536132812 427.298828125 l 2
 597.536132812 519.376953125 575.811523438 585.225585938 534.030273438 626.359375 c 0
 491.836914062 667.8984375 434.720703125 688.9296875 361.40625 688.9296875 c 2
537.35546875 257.978515625 m 2
 537.35546875 145.1640625 496.5546875 52.44921875 362.42578125 52.44921875 c 2
 188.515625 52.44921875 l 1
 188.515625 322.749023438 l 1
 331.315429688 322.749023438 l 1
 331.315429688 374.768554688 l 1
 188.515625 374.768554688 l 1
 188.515625 636.909179688 l 1
 362.42578125 636.909179688 l 2
 417.706054688 636.909179688 461.475585938 619.936523438 492.084960938 585.366210938 c 0
 522.87109375 550.596679688 537.35546875 496.538085938 537.35546875 424.239257812 c 2
 537.35546875 257.978515625 l 2
EndSplineSet
EndChar

StartChar: Ntilde
Encoding: 209 209 146
Width: 665
GlyphClass: 2
Flags: MW
HStem: 768.493 44.8799<377.426 393.686> 807.251 45.9023<260.939 285.381>
LayerCount: 2
Fore
SplineSet
577.135742188 0.4296875 m 1x00
 577.135742188 688.9296875 l 1
 517.975585938 688.9296875 l 1
 517.975585938 105.506835938 l 1
 142.015625 688.9296875 l 1
 79.3759765625 688.9296875 l 1
 79.3759765625 0.4296875 l 1
 138.536132812 0.4296875 l 1
 138.536132812 585.97265625 l 1
 514.504882812 0.4296875 l 1
 577.135742188 0.4296875 l 1x00
445.555664062 842.298828125 m 1
 425.750976562 823.4453125 410.859375 813.373046875 385.885742188 813.373046875 c 0x80
 340.8515625 813.373046875 318.69921875 853.153320312 271.64453125 853.153320312 c 0
 250.234375 853.153320312 232.055664062 845.684570312 208.916015625 819.201171875 c 1
 208.916015625 778.8125 l 1
 227.29296875 796.694335938 243.006835938 807.250976562 269.60546875 807.250976562 c 0x40
 301.157226562 807.250976562 326.84765625 783.8984375 354.967773438 773.0859375 c 0
 362.768554688 770.0859375 372.025390625 768.493164062 382.826171875 768.493164062 c 0x80
 404.544921875 768.493164062 425.319335938 778.857421875 445.555664062 801.466796875 c 1
 445.555664062 842.298828125 l 1
EndSplineSet
EndChar

StartChar: Ograve
Encoding: 210 210 147
Width: 611
GlyphClass: 2
Flags: MW
HStem: -7.73047 53.041<273.667 337.533> 646.092 52.0176<273.313 338.555 265.589 350.722>
VStem: 65.0967 59.1602<249.821 253.9 253.9 433.421 433.421 436.48> 478.197 59.1582<193.71 436.479 253.899 433.422>
LayerCount: 2
Fore
SplineSet
301.225585938 -7.73046875 m 0
 373.840820312 -7.73046875 430.8046875 13.287109375 473.361328125 54.861328125 c 0
 515.470703125 95.9990234375 537.35546875 161.831054688 537.35546875 253.899414062 c 2
 537.35546875 436.478515625 l 2
 537.35546875 528.557617188 515.630859375 594.404296875 473.850585938 635.538085938 c 0
 431.641601562 677.091796875 374.86328125 698.109375 302.24609375 698.109375 c 0
 228.932617188 698.109375 171.6328125 677.077148438 129.090820312 635.517578125 c 0
 86.9814453125 594.379882812 65.0966796875 528.547851562 65.0966796875 436.48046875 c 2
 65.0966796875 253.900390625 l 2
 65.0966796875 161.821289062 86.8203125 95.9736328125 128.6015625 54.8408203125 c 0
 170.794921875 13.3017578125 227.911132812 -7.73046875 301.225585938 -7.73046875 c 0
302.247070312 646.091796875 m 0
 399.196289062 646.091796875 478.197265625 596.161132812 478.197265625 433.421875 c 2
 478.197265625 249.821289062 l 2
 478.197265625 137.599609375 437.178710938 45.310546875 302.247070312 45.310546875 c 0
 245.086914062 45.310546875 200.345703125 61.4541015625 169.637695312 94.6923828125 c 0
 138.775390625 128.096679688 124.256835938 180.204101562 124.256835938 249.821289062 c 2
 124.256835938 433.420898438 l 2
 124.256835938 506.368164062 138.540039062 560.58984375 169.014648438 595.055664062 c 0
 199.38671875 629.405273438 244.379882812 646.091796875 302.247070312 646.091796875 c 0
254.688476562 882.732421875 m 1
 190.653320312 882.732421875 l 1
 298.365234375 770.532226562 l 1
 343.55078125 770.532226562 l 1
 254.688476562 882.732421875 l 1
EndSplineSet
EndChar

StartChar: Oacute
Encoding: 211 211 148
Width: 611
GlyphClass: 2
Flags: MW
HStem: -7.73047 53.041<273.667 337.533> 646.092 52.0176<273.313 338.555 265.589 350.722>
VStem: 65.0967 59.1602<249.821 253.9 253.9 433.421 433.421 436.48> 478.197 59.1582<193.71 436.479 253.899 433.422>
LayerCount: 2
Fore
SplineSet
301.225585938 -7.73046875 m 0
 373.840820312 -7.73046875 430.8046875 13.287109375 473.361328125 54.861328125 c 0
 515.470703125 95.9990234375 537.35546875 161.831054688 537.35546875 253.899414062 c 2
 537.35546875 436.478515625 l 2
 537.35546875 528.557617188 515.630859375 594.404296875 473.850585938 635.538085938 c 0
 431.641601562 677.091796875 374.86328125 698.109375 302.24609375 698.109375 c 0
 228.932617188 698.109375 171.6328125 677.077148438 129.090820312 635.517578125 c 0
 86.9814453125 594.379882812 65.0966796875 528.547851562 65.0966796875 436.48046875 c 2
 65.0966796875 253.900390625 l 2
 65.0966796875 161.821289062 86.8203125 95.9736328125 128.6015625 54.8408203125 c 0
 170.794921875 13.3017578125 227.911132812 -7.73046875 301.225585938 -7.73046875 c 0
302.247070312 646.091796875 m 0
 399.196289062 646.091796875 478.197265625 596.161132812 478.197265625 433.421875 c 2
 478.197265625 249.821289062 l 2
 478.197265625 137.599609375 437.178710938 45.310546875 302.247070312 45.310546875 c 0
 245.086914062 45.310546875 200.345703125 61.4541015625 169.637695312 94.6923828125 c 0
 138.775390625 128.096679688 124.256835938 180.204101562 124.256835938 249.821289062 c 2
 124.256835938 433.420898438 l 2
 124.256835938 506.368164062 138.540039062 560.58984375 169.014648438 595.055664062 c 0
 199.38671875 629.405273438 244.379882812 646.091796875 302.247070312 646.091796875 c 0
393.440429688 882.732421875 m 1
 329.405273438 882.732421875 l 1
 240.54296875 770.532226562 l 1
 285.728515625 770.532226562 l 1
 393.440429688 882.732421875 l 1
EndSplineSet
EndChar

StartChar: Ocircumflex
Encoding: 212 212 149
Width: 611
GlyphClass: 2
Flags: MW
HStem: -7.73047 53.041<273.667 337.533> 646.092 52.0176<273.313 338.555 265.589 350.722>
VStem: 65.0967 59.1602<249.821 253.9 253.9 433.421 433.421 436.48> 478.197 59.1582<193.71 436.479 253.899 433.422>
LayerCount: 2
Fore
SplineSet
301.225585938 -7.73046875 m 0
 373.840820312 -7.73046875 430.8046875 13.287109375 473.361328125 54.861328125 c 0
 515.470703125 95.9990234375 537.35546875 161.831054688 537.35546875 253.899414062 c 2
 537.35546875 436.478515625 l 2
 537.35546875 528.557617188 515.630859375 594.404296875 473.850585938 635.538085938 c 0
 431.641601562 677.091796875 374.86328125 698.109375 302.24609375 698.109375 c 0
 228.932617188 698.109375 171.6328125 677.077148438 129.090820312 635.517578125 c 0
 86.9814453125 594.379882812 65.0966796875 528.547851562 65.0966796875 436.48046875 c 2
 65.0966796875 253.900390625 l 2
 65.0966796875 161.821289062 86.8203125 95.9736328125 128.6015625 54.8408203125 c 0
 170.794921875 13.3017578125 227.911132812 -7.73046875 301.225585938 -7.73046875 c 0
302.247070312 646.091796875 m 0
 399.196289062 646.091796875 478.197265625 596.161132812 478.197265625 433.421875 c 2
 478.197265625 249.821289062 l 2
 478.197265625 137.599609375 437.178710938 45.310546875 302.247070312 45.310546875 c 0
 245.086914062 45.310546875 200.345703125 61.4541015625 169.637695312 94.6923828125 c 0
 138.775390625 128.096679688 124.256835938 180.204101562 124.256835938 249.821289062 c 2
 124.256835938 433.420898438 l 2
 124.256835938 506.368164062 138.540039062 560.58984375 169.014648438 595.055664062 c 0
 199.38671875 629.405273438 244.379882812 646.091796875 302.247070312 646.091796875 c 0
324.921875 891.912109375 m 1
 276.51171875 891.912109375 l 1
 178.741210938 760.33203125 l 1
 222.999023438 760.33203125 l 1
 301.268554688 862.190429688 l 1
 378.466796875 760.33203125 l 1
 422.693359375 760.33203125 l 1
 324.921875 891.912109375 l 1
EndSplineSet
EndChar

StartChar: Otilde
Encoding: 213 213 150
Width: 611
GlyphClass: 2
Flags: MW
HStem: -7.73047 53.041<273.667 337.533> 646.092 52.0176<273.313 338.555 265.589 350.722> 768.495 44.8799<350.906 367.167> 807.253 45.9023<234.421 258.863>
VStem: 65.0967 59.1602<249.821 253.9 253.9 433.421 433.421 436.48> 478.197 59.1582<193.71 436.479 253.899 433.422>
LayerCount: 2
Fore
SplineSet
301.225585938 -7.73046875 m 0xcc
 373.840820312 -7.73046875 430.8046875 13.287109375 473.361328125 54.861328125 c 0
 515.470703125 95.9990234375 537.35546875 161.831054688 537.35546875 253.899414062 c 2
 537.35546875 436.478515625 l 2
 537.35546875 528.557617188 515.630859375 594.404296875 473.850585938 635.538085938 c 0
 431.641601562 677.091796875 374.86328125 698.109375 302.24609375 698.109375 c 0
 228.932617188 698.109375 171.6328125 677.077148438 129.090820312 635.517578125 c 0
 86.9814453125 594.379882812 65.0966796875 528.547851562 65.0966796875 436.48046875 c 2
 65.0966796875 253.900390625 l 2
 65.0966796875 161.821289062 86.8203125 95.9736328125 128.6015625 54.8408203125 c 0
 170.794921875 13.3017578125 227.911132812 -7.73046875 301.225585938 -7.73046875 c 0xcc
302.247070312 646.091796875 m 0
 399.196289062 646.091796875 478.197265625 596.161132812 478.197265625 433.421875 c 2
 478.197265625 249.821289062 l 2
 478.197265625 137.599609375 437.178710938 45.310546875 302.247070312 45.310546875 c 0
 245.086914062 45.310546875 200.345703125 61.4541015625 169.637695312 94.6923828125 c 0
 138.775390625 128.096679688 124.256835938 180.204101562 124.256835938 249.821289062 c 2
 124.256835938 433.420898438 l 2
 124.256835938 506.368164062 138.540039062 560.58984375 169.014648438 595.055664062 c 0
 199.38671875 629.405273438 244.379882812 646.091796875 302.247070312 646.091796875 c 0
419.037109375 842.30078125 m 1
 399.232421875 823.447265625 384.33984375 813.375 359.3671875 813.375 c 0xec
 314.333007812 813.375 292.180664062 853.155273438 245.125976562 853.155273438 c 0
 223.715820312 853.155273438 205.537109375 845.686523438 182.396484375 819.203125 c 1
 182.396484375 778.814453125 l 1
 200.774414062 796.696289062 216.48828125 807.252929688 243.086914062 807.252929688 c 0xdc
 274.638671875 807.252929688 300.329101562 783.900390625 328.448242188 773.087890625 c 0
 336.249023438 770.087890625 345.505859375 768.495117188 356.306640625 768.495117188 c 0xec
 378.026367188 768.495117188 398.799804688 778.860351562 419.037109375 801.46875 c 1
 419.037109375 842.30078125 l 1
EndSplineSet
EndChar

StartChar: Odieresis
Encoding: 214 214 151
Width: 611
GlyphClass: 2
Flags: MW
HStem: -7.73047 53.041<273.667 337.533> 646.092 52.0176<273.313 338.555 265.589 350.722>
VStem: 65.0967 59.1602<249.821 253.9 253.9 433.421 433.421 436.48> 478.197 59.1582<193.71 436.479 253.899 433.422>
LayerCount: 2
Fore
SplineSet
301.225585938 -7.73046875 m 0
 373.840820312 -7.73046875 430.8046875 13.287109375 473.361328125 54.861328125 c 0
 515.470703125 95.9990234375 537.35546875 161.831054688 537.35546875 253.899414062 c 2
 537.35546875 436.478515625 l 2
 537.35546875 528.557617188 515.630859375 594.404296875 473.850585938 635.538085938 c 0
 431.641601562 677.091796875 374.86328125 698.109375 302.24609375 698.109375 c 0
 228.932617188 698.109375 171.6328125 677.077148438 129.090820312 635.517578125 c 0
 86.9814453125 594.379882812 65.0966796875 528.547851562 65.0966796875 436.48046875 c 2
 65.0966796875 253.900390625 l 2
 65.0966796875 161.821289062 86.8203125 95.9736328125 128.6015625 54.8408203125 c 0
 170.794921875 13.3017578125 227.911132812 -7.73046875 301.225585938 -7.73046875 c 0
302.247070312 646.091796875 m 0
 399.196289062 646.091796875 478.197265625 596.161132812 478.197265625 433.421875 c 2
 478.197265625 249.821289062 l 2
 478.197265625 137.599609375 437.178710938 45.310546875 302.247070312 45.310546875 c 0
 245.086914062 45.310546875 200.345703125 61.4541015625 169.637695312 94.6923828125 c 0
 138.775390625 128.096679688 124.256835938 180.204101562 124.256835938 249.821289062 c 2
 124.256835938 433.420898438 l 2
 124.256835938 506.368164062 138.540039062 560.58984375 169.014648438 595.055664062 c 0
 199.38671875 629.405273438 244.379882812 646.091796875 302.247070312 646.091796875 c 0
244.6171875 849.072265625 m 1
 182.396484375 849.072265625 l 1
 182.396484375 776.65234375 l 1
 244.6171875 776.65234375 l 1
 244.6171875 849.072265625 l 1
419.037109375 849.072265625 m 1
 356.81640625 849.072265625 l 1
 356.81640625 776.65234375 l 1
 419.037109375 776.65234375 l 1
 419.037109375 849.072265625 l 1
EndSplineSet
EndChar

StartChar: multiply
Encoding: 215 215 152
Width: 511
GlyphClass: 2
Flags: W
LayerCount: 2
Fore
SplineSet
91.72265625 400.780273438 m 1
 217.16015625 275.341796875 l 1
 91.7001953125 148.862304688 l 1
 125.786132812 114.776367188 l 1
 251.24609375 240.236328125 l 1
 376.766601562 114.715820312 l 1
 411.75 148.922851562 l 1
 286.3515625 275.341796875 l 1
 411.728515625 400.71875 l 1
 376.766601562 434.903320312 l 1
 251.24609375 309.383789062 l 1
 125.786132812 434.84375 l 1
 91.72265625 400.780273438 l 1
EndSplineSet
EndChar

StartChar: Oslash
Encoding: 216 216 153
Width: 611
GlyphClass: 2
Flags: MW
HStem: -7.72949 53.04<276.143 337.533> 646.091 52.0195<273.312 327.734>
VStem: 65.0957 59.1602<249.82 253.901 253.901 433.42 433.42 436.481> 478.196 59.1592<193.71 436.48 253.9 433.421>
LayerCount: 2
Fore
SplineSet
302.245117188 698.110351562 m 0
 228.931640625 698.110351562 171.631835938 677.078125 129.08984375 635.518554688 c 0
 86.98046875 594.380859375 65.095703125 528.548828125 65.095703125 436.481445312 c 2
 65.095703125 253.901367188 l 2
 65.095703125 173.354492188 82.58203125 111.95703125 116.498046875 68.91015625 c 2
 119.703125 64.841796875 l 1
 70.701171875 -19.96875 l 1
 112.176757812 -19.96875 l 1
 145.82421875 38.6435546875 l 1
 167.749023438 22.767578125 209.864257812 -7.7294921875 301.225585938 -7.7294921875 c 0
 373.840820312 -7.7294921875 430.8046875 13.2880859375 473.361328125 54.8623046875 c 0
 515.470703125 96 537.35546875 161.83203125 537.35546875 253.900390625 c 2
 537.35546875 436.48046875 l 2
 537.35546875 555.18359375 498.416992188 604.6328125 482.749023438 624.51953125 c 1
 531.750976562 709.330078125 l 1
 490.233398438 709.330078125 l 1
 456.571289062 651.77734375 l 1
 434.708007812 667.609375 392.587890625 698.110351562 302.245117188 698.110351562 c 0
124.255859375 249.8203125 m 2
 124.255859375 433.419921875 l 2
 124.255859375 506.3671875 138.5390625 560.588867188 169.013671875 595.0546875 c 0
 199.385742188 629.404296875 244.37890625 646.090820312 302.24609375 646.090820312 c 0
 353.221679688 646.090820312 393.860351562 632.397460938 422.844726562 604.137695312 c 2
 427.092773438 599.99609375 l 1
 151.592773438 119.990234375 l 1
 138.51953125 148.098632812 124.255859375 178.767578125 124.255859375 249.8203125 c 2
478.196289062 249.821289062 m 2
 478.196289062 137.599609375 437.177734375 45.310546875 302.24609375 45.310546875 c 0
 250.0390625 45.310546875 208.80859375 58.208984375 179.75390625 85.0849609375 c 2
 175.2734375 89.228515625 l 1
 451.022460938 568.607421875 l 1
 463.9375 539.547851562 478.196289062 507.465820312 478.196289062 433.420898438 c 2
 478.196289062 249.821289062 l 2
EndSplineSet
EndChar

StartChar: Ugrave
Encoding: 217 217 154
Width: 636
GlyphClass: 2
Flags: MW
HStem: -5.69043 51<288.176 340.471 288.176 381.688>
VStem: 79.376 60.1797<156.598 688.93 228.4 688.93 228.4 688.93> 489.416 59.1602<222.28 228.4 228.4 688.93>
LayerCount: 2
Fore
SplineSet
79.3759765625 222.280273438 m 2
 79.3759765625 90.9150390625 174.407226562 -5.6904296875 314.486328125 -5.6904296875 c 0
 448.889648438 -5.6904296875 548.576171875 84.0244140625 548.576171875 222.280273438 c 2
 548.576171875 688.9296875 l 1
 489.416015625 688.9296875 l 1
 489.416015625 228.400390625 l 2
 489.416015625 173.216796875 473.578125 128.361328125 441.362304688 95.0712890625 c 0
 409.186523438 61.8232421875 366.456054688 45.3095703125 314.486328125 45.3095703125 c 0
 261.865234375 45.3095703125 218.938476562 61.8017578125 187.069335938 95.1025390625 c 0
 155.206054688 128.397460938 139.555664062 173.236328125 139.555664062 228.400390625 c 2
 139.555664062 688.9296875 l 1
 79.3759765625 688.9296875 l 1
 79.3759765625 222.280273438 l 2
266.927734375 882.731445312 m 1
 202.892578125 882.731445312 l 1
 310.604492188 770.53125 l 1
 355.790039062 770.53125 l 1
 266.927734375 882.731445312 l 1
EndSplineSet
EndChar

StartChar: Uacute
Encoding: 218 218 155
Width: 636
GlyphClass: 2
Flags: MW
HStem: -5.69043 51<288.176 340.471 288.176 381.688>
VStem: 79.376 60.1797<156.598 688.93 228.4 688.93 228.4 688.93> 489.416 59.1602<222.28 228.4 228.4 688.93>
LayerCount: 2
Fore
SplineSet
79.3759765625 222.280273438 m 2
 79.3759765625 90.9150390625 174.407226562 -5.6904296875 314.486328125 -5.6904296875 c 0
 448.889648438 -5.6904296875 548.576171875 84.0244140625 548.576171875 222.280273438 c 2
 548.576171875 688.9296875 l 1
 489.416015625 688.9296875 l 1
 489.416015625 228.400390625 l 2
 489.416015625 173.216796875 473.578125 128.361328125 441.362304688 95.0712890625 c 0
 409.186523438 61.8232421875 366.456054688 45.3095703125 314.486328125 45.3095703125 c 0
 261.865234375 45.3095703125 218.938476562 61.8017578125 187.069335938 95.1025390625 c 0
 155.206054688 128.397460938 139.555664062 173.236328125 139.555664062 228.400390625 c 2
 139.555664062 688.9296875 l 1
 79.3759765625 688.9296875 l 1
 79.3759765625 222.280273438 l 2
405.6796875 882.731445312 m 1
 341.64453125 882.731445312 l 1
 252.782226562 770.53125 l 1
 297.967773438 770.53125 l 1
 405.6796875 882.731445312 l 1
EndSplineSet
EndChar

StartChar: Ucircumflex
Encoding: 219 219 156
Width: 636
GlyphClass: 2
Flags: MW
HStem: -5.69043 51<288.176 340.471 288.176 381.688>
VStem: 79.376 60.1797<156.598 688.93 228.4 688.93 228.4 688.93> 489.416 59.1602<222.28 228.4 228.4 688.93>
LayerCount: 2
Fore
SplineSet
79.3759765625 222.280273438 m 2
 79.3759765625 90.9150390625 174.407226562 -5.6904296875 314.486328125 -5.6904296875 c 0
 448.889648438 -5.6904296875 548.576171875 84.0244140625 548.576171875 222.280273438 c 2
 548.576171875 688.9296875 l 1
 489.416015625 688.9296875 l 1
 489.416015625 228.400390625 l 2
 489.416015625 173.216796875 473.578125 128.361328125 441.362304688 95.0712890625 c 0
 409.186523438 61.8232421875 366.456054688 45.3095703125 314.486328125 45.3095703125 c 0
 261.865234375 45.3095703125 218.938476562 61.8017578125 187.069335938 95.1025390625 c 0
 155.206054688 128.397460938 139.555664062 173.236328125 139.555664062 228.400390625 c 2
 139.555664062 688.9296875 l 1
 79.3759765625 688.9296875 l 1
 79.3759765625 222.280273438 l 2
337.16015625 891.911132812 m 1
 288.750976562 891.911132812 l 1
 190.979492188 760.331054688 l 1
 235.23828125 760.331054688 l 1
 313.5078125 862.189453125 l 1
 390.706054688 760.331054688 l 1
 434.931640625 760.331054688 l 1
 337.16015625 891.911132812 l 1
EndSplineSet
EndChar

StartChar: Udieresis
Encoding: 220 220 157
Width: 636
GlyphClass: 2
Flags: MW
HStem: -5.69043 51<288.176 340.471 288.176 381.688>
VStem: 79.376 60.1797<156.598 688.93 228.4 688.93 228.4 688.93> 489.416 59.1602<222.28 228.4 228.4 688.93>
LayerCount: 2
Fore
SplineSet
79.3759765625 222.280273438 m 2
 79.3759765625 90.9150390625 174.407226562 -5.6904296875 314.486328125 -5.6904296875 c 0
 448.889648438 -5.6904296875 548.576171875 84.0244140625 548.576171875 222.280273438 c 2
 548.576171875 688.9296875 l 1
 489.416015625 688.9296875 l 1
 489.416015625 228.400390625 l 2
 489.416015625 173.216796875 473.578125 128.361328125 441.362304688 95.0712890625 c 0
 409.186523438 61.8232421875 366.456054688 45.3095703125 314.486328125 45.3095703125 c 0
 261.865234375 45.3095703125 218.938476562 61.8017578125 187.069335938 95.1025390625 c 0
 155.206054688 128.397460938 139.555664062 173.236328125 139.555664062 228.400390625 c 2
 139.555664062 688.9296875 l 1
 79.3759765625 688.9296875 l 1
 79.3759765625 222.280273438 l 2
256.85546875 849.071289062 m 1
 194.635742188 849.071289062 l 1
 194.635742188 776.651367188 l 1
 256.85546875 776.651367188 l 1
 256.85546875 849.071289062 l 1
431.275390625 849.071289062 m 1
 369.055664062 849.071289062 l 1
 369.055664062 776.651367188 l 1
 431.275390625 776.651367188 l 1
 431.275390625 849.071289062 l 1
EndSplineSet
EndChar

StartChar: Yacute
Encoding: 221 221 158
Width: 498
GlyphClass: 2
Flags: W
LayerCount: 2
Fore
SplineSet
274.196289062 289.411132812 m 1
 479.434570312 688.9296875 l 1
 416.133789062 688.9296875 l 1
 244.084960938 341.684570312 l 1
 73.0849609375 688.9296875 l 1
 9.8115234375 688.9296875 l 1
 215.036132812 290.435546875 l 1
 215.036132812 0.4296875 l 1
 274.196289062 0.4296875 l 1
 274.196289062 289.411132812 l 1
337.338867188 882.73046875 m 1
 273.3046875 882.73046875 l 1
 184.44140625 770.530273438 l 1
 229.626953125 770.530273438 l 1
 337.338867188 882.73046875 l 1
EndSplineSet
EndChar

StartChar: Thorn
Encoding: 222 222 159
Width: 577
GlyphClass: 2
Flags: MW
HStem: 162.61 52.0195<138.536 308.366 138.536 314.486 138.536 347.815> 509.41 51<138.536 308.366 308.366 314.486 138.536 343.084>
VStem: 469.016 59.1602<334.435 390.854 327.141 421.566>
LayerCount: 2
Fore
SplineSet
314.486328125 560.41015625 m 2
 138.536132812 560.41015625 l 1
 138.536132812 688.9296875 l 1
 79.3759765625 688.9296875 l 1
 79.3759765625 0.4296875 l 1
 138.536132812 0.4296875 l 1
 138.536132812 162.610351562 l 1
 314.486328125 162.610351562 l 2
 381.143554688 162.610351562 432.951171875 180.198242188 471.022460938 214.690429688 c 0
 509.000976562 249.09765625 528.17578125 296.341796875 528.17578125 357.940429688 c 0
 528.17578125 423.768554688 509.0390625 473.22265625 471.481445312 507.866210938 c 0
 433.7734375 542.6484375 381.829101562 560.41015625 314.486328125 560.41015625 c 2
308.366210938 509.41015625 m 2
 377.802734375 509.41015625 469.015625 485.192382812 469.015625 357.940429688 c 0
 469.015625 310.9296875 455.188476562 274.353515625 426.522460938 250.09765625 c 0
 398.150390625 226.090820312 358.440429688 214.629882812 308.366210938 214.629882812 c 2
 138.536132812 214.629882812 l 1
 138.536132812 509.41015625 l 1
 308.366210938 509.41015625 l 2
EndSplineSet
EndChar

StartChar: germandbls
Encoding: 223 223 160
Width: 504
GlyphClass: 2
Flags: MW
HStem: -3.65039 47.9404<253.796 256.941 253.796 275.726 253.796 320.298> 401.291 47.9404<252.774 266.545 266.545 272.665 252.774 286.572> 648.131 47.9404<220.878 283.928>
VStem: 74.2744 54.0605<0.430664 508.901 0.430664 518.081> 374.155 55.0811<507.399 588.141> 382.314 55.0811<198.7 245.185>
LayerCount: 2
Fore
SplineSet
374.155273438 546.640625 m 0xf8
 374.155273438 466.953125 326.997070312 449.231445312 272.665039062 449.231445312 c 2
 252.774414062 449.231445312 l 1
 252.774414062 401.291015625 l 1
 266.544921875 401.291015625 l 2
 306.598632812 401.291015625 363.676757812 395.372070312 376.075195312 326.146484375 c 0
 380.302734375 302.5390625 382.314453125 268.087890625 382.314453125 222.28125 c 0
 382.314453125 175.118164062 380.309570312 140.17578125 376.071289062 116.866210938 c 0
 364.446289062 52.9296875 316.947265625 44.291015625 272.665039062 44.291015625 c 0
 266.375 44.291015625 260.0859375 44.2900390625 253.795898438 44.2900390625 c 1
 253.795898438 -3.650390625 l 1
 275.725585938 -3.650390625 l 2
 364.87109375 -3.650390625 409.412109375 21.5341796875 425.383789062 85.4189453125 c 0
 433.287109375 117.032226562 437.395507812 162.797851562 437.395507812 222.280273438 c 0xf4
 437.395507812 348.34765625 427.020507812 393.416992188 367.345703125 421.388671875 c 2
 353.250976562 427.99609375 l 1
 389.760742188 446.803710938 429.236328125 467.138671875 429.236328125 547.66015625 c 0
 429.236328125 642.798828125 367.782226562 696.071289062 253.286132812 696.071289062 c 0
 188.469726562 696.071289062 143.407226562 679.854492188 116.209960938 649.1796875 c 0
 88.67578125 618.124023438 74.2744140625 571.727539062 74.2744140625 508.901367188 c 2
 74.2744140625 0.4306640625 l 1
 128.334960938 0.4306640625 l 1
 128.334960938 518.081054688 l 2
 128.334960938 599.07421875 160.4453125 648.130859375 254.3046875 648.130859375 c 0
 313.55078125 648.130859375 374.155273438 629.641601562 374.155273438 546.640625 c 0xf8
EndSplineSet
EndChar

StartChar: agrave
Encoding: 224 224 161
Width: 496
GlyphClass: 2
Flags: MW
HStem: -5.69141 40.8018<202.666 244.432> 243.19 35.6982<221.667 358.856> 466.57 42.8398<215.67 247.324>
VStem: 45.7168 54.0596<114.586 166.05 90.3125 182.293> 61.0342 52.0908<373.75 373.75> 358.856 54.0605<112.069 168.22 168.22 243.19 278.889 344.68 344.68 345.699 278.889 278.889>
LayerCount: 2
Fore
SplineSet
412.916992188 344.6796875 m 2xf4
 412.916992188 421.530273438 380.618164062 509.41015625 232.885742188 509.41015625 c 0
 178.306640625 509.41015625 136.3828125 496.447265625 106.186523438 471.390625 c 0
 76.599609375 446.83984375 61.626953125 414.767578125 61.0341796875 373.75 c 1
 113.125 373.75 l 1xec
 114.208984375 401.5 125.215820312 424.3671875 146.014648438 440.936523438 c 0
 167.857421875 458.336914062 197.432617188 466.5703125 233.907226562 466.5703125 c 0
 260.740234375 466.5703125 358.856445312 462.9921875 358.856445312 345.69921875 c 2
 358.856445312 278.888671875 l 1
 211.466796875 278.888671875 l 2
 103.7421875 278.888671875 45.716796875 225.948242188 45.716796875 138.638671875 c 0
 45.716796875 90.5341796875 60.0400390625 55.30859375 87.943359375 31.2099609375 c 0
 116.0390625 6.9453125 156.192382812 -5.69140625 209.42578125 -5.69140625 c 0
 279.4375 -5.69140625 319.2109375 16.1962890625 346.079101562 52.4111328125 c 2
 359.876953125 71.0087890625 l 1
 359.876953125 0.4296875 l 1
 412.916992188 0.4296875 l 1
 412.916992188 344.6796875 l 2xf4
358.856445312 168.219726562 m 2
 358.856445312 55.91796875 287.875976562 35.1103515625 220.646484375 35.1103515625 c 0
 184.685546875 35.1103515625 99.7763671875 40.96484375 99.7763671875 139.66015625 c 0xf4
 99.7763671875 192.439453125 124.927734375 243.190429688 221.666992188 243.190429688 c 2
 358.856445312 243.190429688 l 1
 358.856445312 168.219726562 l 2
194.508789062 696.071289062 m 1
 130.473632812 696.071289062 l 1
 238.185546875 583.87109375 l 1
 283.37109375 583.87109375 l 1
 194.508789062 696.071289062 l 1
EndSplineSet
EndChar

StartChar: aacute
Encoding: 225 225 162
Width: 496
GlyphClass: 2
Flags: MW
HStem: -5.69141 40.8018<202.666 244.432> 243.19 35.6982<221.667 358.856> 466.57 42.8398<215.67 247.324>
VStem: 45.7168 54.0596<114.586 166.05 90.3125 182.293> 61.0342 52.0908<373.75 373.75> 358.856 54.0605<112.069 168.22 168.22 243.19 278.889 344.68 344.68 345.699 278.889 278.889>
LayerCount: 2
Fore
SplineSet
412.916992188 344.6796875 m 2xf4
 412.916992188 421.530273438 380.618164062 509.41015625 232.885742188 509.41015625 c 0
 178.306640625 509.41015625 136.3828125 496.447265625 106.186523438 471.390625 c 0
 76.599609375 446.83984375 61.626953125 414.767578125 61.0341796875 373.75 c 1
 113.125 373.75 l 1xec
 114.208984375 401.5 125.215820312 424.3671875 146.014648438 440.936523438 c 0
 167.857421875 458.336914062 197.432617188 466.5703125 233.907226562 466.5703125 c 0
 260.740234375 466.5703125 358.856445312 462.9921875 358.856445312 345.69921875 c 2
 358.856445312 278.888671875 l 1
 211.466796875 278.888671875 l 2
 103.7421875 278.888671875 45.716796875 225.948242188 45.716796875 138.638671875 c 0
 45.716796875 90.5341796875 60.0400390625 55.30859375 87.943359375 31.2099609375 c 0
 116.0390625 6.9453125 156.192382812 -5.69140625 209.42578125 -5.69140625 c 0
 279.4375 -5.69140625 319.2109375 16.1962890625 346.079101562 52.4111328125 c 2
 359.876953125 71.0087890625 l 1
 359.876953125 0.4296875 l 1
 412.916992188 0.4296875 l 1
 412.916992188 344.6796875 l 2xf4
358.856445312 168.219726562 m 2
 358.856445312 55.91796875 287.875976562 35.1103515625 220.646484375 35.1103515625 c 0
 184.685546875 35.1103515625 99.7763671875 40.96484375 99.7763671875 139.66015625 c 0xf4
 99.7763671875 192.439453125 124.927734375 243.190429688 221.666992188 243.190429688 c 2
 358.856445312 243.190429688 l 1
 358.856445312 168.219726562 l 2
333.260742188 696.071289062 m 1
 269.225585938 696.071289062 l 1
 180.36328125 583.87109375 l 1
 225.547851562 583.87109375 l 1
 333.260742188 696.071289062 l 1
EndSplineSet
EndChar

StartChar: acircumflex
Encoding: 226 226 163
Width: 496
GlyphClass: 2
Flags: MW
HStem: -5.69141 40.8018<202.666 244.432> 243.19 35.6982<221.667 358.856> 466.57 42.8398<215.67 247.324>
VStem: 45.7168 54.0596<114.586 166.05 90.3125 182.293> 61.0342 52.0908<373.75 373.75> 358.856 54.0605<112.069 168.22 168.22 243.19 278.889 344.68 344.68 345.699 278.889 278.889>
LayerCount: 2
Fore
SplineSet
412.916992188 344.6796875 m 2xf4
 412.916992188 421.530273438 380.618164062 509.41015625 232.885742188 509.41015625 c 0
 178.306640625 509.41015625 136.3828125 496.447265625 106.186523438 471.390625 c 0
 76.599609375 446.83984375 61.626953125 414.767578125 61.0341796875 373.75 c 1
 113.125 373.75 l 1xec
 114.208984375 401.5 125.215820312 424.3671875 146.014648438 440.936523438 c 0
 167.857421875 458.336914062 197.432617188 466.5703125 233.907226562 466.5703125 c 0
 260.740234375 466.5703125 358.856445312 462.9921875 358.856445312 345.69921875 c 2
 358.856445312 278.888671875 l 1
 211.466796875 278.888671875 l 2
 103.7421875 278.888671875 45.716796875 225.948242188 45.716796875 138.638671875 c 0
 45.716796875 90.5341796875 60.0400390625 55.30859375 87.943359375 31.2099609375 c 0
 116.0390625 6.9453125 156.192382812 -5.69140625 209.42578125 -5.69140625 c 0
 279.4375 -5.69140625 319.2109375 16.1962890625 346.079101562 52.4111328125 c 2
 359.876953125 71.0087890625 l 1
 359.876953125 0.4296875 l 1
 412.916992188 0.4296875 l 1
 412.916992188 344.6796875 l 2xf4
358.856445312 168.219726562 m 2
 358.856445312 55.91796875 287.875976562 35.1103515625 220.646484375 35.1103515625 c 0
 184.685546875 35.1103515625 99.7763671875 40.96484375 99.7763671875 139.66015625 c 0xf4
 99.7763671875 192.439453125 124.927734375 243.190429688 221.666992188 243.190429688 c 2
 358.856445312 243.190429688 l 1
 358.856445312 168.219726562 l 2
264.741210938 705.250976562 m 1
 216.33203125 705.250976562 l 1
 118.560546875 573.670898438 l 1
 162.818359375 573.670898438 l 1
 241.088867188 675.529296875 l 1
 318.286132812 573.670898438 l 1
 362.512695312 573.670898438 l 1
 264.741210938 705.250976562 l 1
EndSplineSet
EndChar

StartChar: atilde
Encoding: 227 227 164
Width: 496
GlyphClass: 2
Flags: MW
HStem: -5.69141 40.8018<202.666 244.432> 243.19 35.6982<221.667 358.856> 466.57 42.8398<215.67 247.324> 581.834 44.8799<290.728 306.988> 620.592 45.9023<174.259 198.666>
VStem: 45.7168 54.0596<114.586 166.05 90.3125 182.293> 61.0342 52.0908<373.75 373.75> 358.856 54.0605<112.069 168.22 168.22 243.19 278.889 344.68 344.68 345.699 278.889 278.889>
LayerCount: 2
Fore
SplineSet
412.916992188 344.6796875 m 2xe5
 412.916992188 421.530273438 380.618164062 509.41015625 232.885742188 509.41015625 c 0
 178.306640625 509.41015625 136.3828125 496.447265625 106.186523438 471.390625 c 0
 76.599609375 446.83984375 61.626953125 414.767578125 61.0341796875 373.75 c 1
 113.125 373.75 l 1xe3
 114.208984375 401.5 125.215820312 424.3671875 146.014648438 440.936523438 c 0
 167.857421875 458.336914062 197.432617188 466.5703125 233.907226562 466.5703125 c 0
 260.740234375 466.5703125 358.856445312 462.9921875 358.856445312 345.69921875 c 2
 358.856445312 278.888671875 l 1
 211.466796875 278.888671875 l 2
 103.7421875 278.888671875 45.716796875 225.948242188 45.716796875 138.638671875 c 0
 45.716796875 90.5341796875 60.0400390625 55.30859375 87.943359375 31.2099609375 c 0
 116.0390625 6.9453125 156.192382812 -5.69140625 209.42578125 -5.69140625 c 0
 279.4375 -5.69140625 319.2109375 16.1962890625 346.079101562 52.4111328125 c 2
 359.876953125 71.0087890625 l 1
 359.876953125 0.4296875 l 1
 412.916992188 0.4296875 l 1
 412.916992188 344.6796875 l 2xe5
358.856445312 168.219726562 m 2
 358.856445312 55.91796875 287.875976562 35.1103515625 220.646484375 35.1103515625 c 0
 184.685546875 35.1103515625 99.7763671875 40.96484375 99.7763671875 139.66015625 c 0xe5
 99.7763671875 192.439453125 124.927734375 243.190429688 221.666992188 243.190429688 c 2
 358.856445312 243.190429688 l 1
 358.856445312 168.219726562 l 2
358.857421875 655.640625 m 1
 339.053710938 636.7890625 324.165039062 626.713867188 299.1875 626.713867188 c 0xf1
 254.154296875 626.713867188 232.000976562 666.494140625 184.948242188 666.494140625 c 0
 163.569335938 666.494140625 145.380859375 659.052734375 122.216796875 632.541992188 c 1
 122.216796875 592.153320312 l 1
 140.59375 610.03515625 156.307617188 620.591796875 182.907226562 620.591796875 c 0xe9
 214.423828125 620.591796875 240.271484375 597.194335938 268.26953125 586.426757812 c 0
 276.0703125 583.426757812 285.327148438 581.833984375 296.127929688 581.833984375 c 0xf1
 317.84765625 581.833984375 338.62109375 592.19921875 358.857421875 614.807617188 c 1
 358.857421875 655.640625 l 1
EndSplineSet
EndChar

StartChar: adieresis
Encoding: 228 228 165
Width: 496
GlyphClass: 2
Flags: MW
HStem: -5.69141 40.8018<202.666 244.432> 243.19 35.6982<221.667 358.856> 466.57 42.8398<215.67 247.324>
VStem: 45.7168 54.0596<114.586 166.05 90.3125 182.293> 61.0342 52.0908<373.75 373.75> 358.856 54.0605<112.069 168.22 168.22 243.19 278.889 344.68 344.68 345.699 278.889 278.889>
LayerCount: 2
Fore
SplineSet
412.916992188 344.6796875 m 2xf4
 412.916992188 421.530273438 380.618164062 509.41015625 232.885742188 509.41015625 c 0
 178.306640625 509.41015625 136.3828125 496.447265625 106.186523438 471.390625 c 0
 76.599609375 446.83984375 61.626953125 414.767578125 61.0341796875 373.75 c 1
 113.125 373.75 l 1xec
 114.208984375 401.5 125.215820312 424.3671875 146.014648438 440.936523438 c 0
 167.857421875 458.336914062 197.432617188 466.5703125 233.907226562 466.5703125 c 0
 260.740234375 466.5703125 358.856445312 462.9921875 358.856445312 345.69921875 c 2
 358.856445312 278.888671875 l 1
 211.466796875 278.888671875 l 2
 103.7421875 278.888671875 45.716796875 225.948242188 45.716796875 138.638671875 c 0
 45.716796875 90.5341796875 60.0400390625 55.30859375 87.943359375 31.2099609375 c 0
 116.0390625 6.9453125 156.192382812 -5.69140625 209.42578125 -5.69140625 c 0
 279.4375 -5.69140625 319.2109375 16.1962890625 346.079101562 52.4111328125 c 2
 359.876953125 71.0087890625 l 1
 359.876953125 0.4296875 l 1
 412.916992188 0.4296875 l 1
 412.916992188 344.6796875 l 2xf4
358.856445312 168.219726562 m 2
 358.856445312 55.91796875 287.875976562 35.1103515625 220.646484375 35.1103515625 c 0
 184.685546875 35.1103515625 99.7763671875 40.96484375 99.7763671875 139.66015625 c 0xf4
 99.7763671875 192.439453125 124.927734375 243.190429688 221.666992188 243.190429688 c 2
 358.856445312 243.190429688 l 1
 358.856445312 168.219726562 l 2
184.436523438 662.411132812 m 1
 122.216796875 662.411132812 l 1
 122.216796875 589.991210938 l 1
 184.436523438 589.991210938 l 1
 184.436523438 662.411132812 l 1
358.856445312 662.411132812 m 1
 296.63671875 662.411132812 l 1
 296.63671875 589.991210938 l 1
 358.856445312 589.991210938 l 1
 358.856445312 662.411132812 l 1
EndSplineSet
EndChar

StartChar: aring
Encoding: 229 229 166
Width: 496
GlyphClass: 2
Flags: MW
HStem: -5.69141 40.8018<202.666 244.432> 243.19 35.6982<221.667 358.856> 466.57 42.8398<215.67 247.324> 570.611 23.46<228.309 253.417> 718.511 23.46<228.309 253.417 228.309 258.06>
VStem: 45.7168 54.0596<114.586 166.05 90.3125 182.293> 61.0342 52.0908<373.75 373.75> 155.877 24.4795<643.392 668.537> 301.737 24.4795<643.412 668.518 643.412 673.801> 358.856 54.0605<112.069 168.22 168.22 243.19 278.889 344.68 344.68 345.699 278.889 278.889>
LayerCount: 2
Fore
SplineSet
412.916992188 344.6796875 m 2xfdc0
 412.916992188 421.530273438 380.618164062 509.41015625 232.885742188 509.41015625 c 0
 178.306640625 509.41015625 136.3828125 496.447265625 106.186523438 471.390625 c 0
 76.599609375 446.83984375 61.626953125 414.767578125 61.0341796875 373.75 c 1
 113.125 373.75 l 1xfbc0
 114.208984375 401.5 125.215820312 424.3671875 146.014648438 440.936523438 c 0
 167.857421875 458.336914062 197.432617188 466.5703125 233.907226562 466.5703125 c 0
 260.740234375 466.5703125 358.856445312 462.9921875 358.856445312 345.69921875 c 2
 358.856445312 278.888671875 l 1
 211.466796875 278.888671875 l 2
 103.7421875 278.888671875 45.716796875 225.948242188 45.716796875 138.638671875 c 0
 45.716796875 90.5341796875 60.0400390625 55.30859375 87.943359375 31.2099609375 c 0
 116.0390625 6.9453125 156.192382812 -5.69140625 209.42578125 -5.69140625 c 0
 279.4375 -5.69140625 319.2109375 16.1962890625 346.079101562 52.4111328125 c 2
 359.876953125 71.0087890625 l 1
 359.876953125 0.4296875 l 1
 412.916992188 0.4296875 l 1
 412.916992188 344.6796875 l 2xfdc0
358.856445312 168.219726562 m 2
 358.856445312 55.91796875 287.875976562 35.1103515625 220.646484375 35.1103515625 c 0
 184.685546875 35.1103515625 99.7763671875 40.96484375 99.7763671875 139.66015625 c 0xfdc0
 99.7763671875 192.439453125 124.927734375 243.190429688 221.666992188 243.190429688 c 2
 358.856445312 243.190429688 l 1
 358.856445312 168.219726562 l 2
241.046875 570.611328125 m 0
 265.786132812 570.611328125 285.708007812 578.658203125 301.938476562 594.889648438 c 0
 318.168945312 611.120117188 326.216796875 631.041992188 326.216796875 655.78125 c 0
 326.216796875 681.25390625 318.12890625 701.502929688 301.938476562 717.692382812 c 0
 285.708007812 733.922851562 265.786132812 741.970703125 241.046875 741.970703125 c 0
 215.571289062 741.970703125 195.529296875 733.887695312 179.697265625 717.74609375 c 0
 163.830078125 701.567382812 155.876953125 681.29296875 155.876953125 655.78125 c 0
 155.876953125 631.001953125 163.790039062 611.0546875 179.697265625 594.8359375 c 0
 195.529296875 578.694335938 215.571289062 570.611328125 241.046875 570.611328125 c 0
301.737304688 655.782226562 m 0
 301.737304688 619.255859375 274.547851562 594.071289062 241.046875 594.071289062 c 0
 207.54296875 594.071289062 180.356445312 619.258789062 180.356445312 655.78125 c 0
 180.356445312 691.8125 207.015625 718.510742188 241.046875 718.510742188 c 0
 275.072265625 718.510742188 301.737304688 691.819335938 301.737304688 655.782226562 c 0
EndSplineSet
EndChar

StartChar: ae
Encoding: 230 230 167
Width: 802
GlyphClass: 2
Flags: MW
HStem: -5.69141 40.7998<202.668 254.42> 243.188 35.7012<221.669 358.856> 466.57 42.8398<215.67 247.324>
VStem: 45.7168 54.0625<115.001 166.048 90.3105 182.293> 61.0342 52.0908<373.75 373.75> 358.858 54.0596<136.988 245.23 206.979 243.188> 681.179 55.0771<281.949 298.78 298.78 307.959 281.949 281.949>
LayerCount: 2
Fore
SplineSet
211.466796875 278.888671875 m 2xee
 103.7421875 278.888671875 45.716796875 225.948242188 45.716796875 138.638671875 c 0xf6
 45.716796875 91.36328125 60.7470703125 56.3515625 90.37109375 31.82421875 c 0
 120.23046875 7.1015625 161.6484375 -5.69140625 215.546875 -5.69140625 c 0
 293.293945312 -5.69140625 347.744140625 20.8466796875 381.484375 73.404296875 c 2
 388.044921875 83.6220703125 l 1
 402.33984375 60.5302734375 419.734375 32.4306640625 460.979492188 13.505859375 c 0
 488.7578125 0.7607421875 520.440429688 -5.69140625 556.225585938 -5.69140625 c 0
 612.733398438 -5.69140625 655.65625 8.876953125 686.180664062 37.1513671875 c 0
 716.317382812 65.06640625 731.592773438 100.361328125 732.16015625 144.249023438 c 1
 680.083007812 144.249023438 l 1
 679.0859375 113.303710938 667.903320312 87.9443359375 646.35546875 69.5751953125 c 0
 623.833007812 50.3759765625 593.120117188 41.228515625 555.20703125 41.228515625 c 0
 511.635742188 41.228515625 476.426757812 53.4580078125 450.8984375 78.6220703125 c 0
 424.764648438 104.3828125 412.91796875 147.674804688 412.91796875 206.978515625 c 2
 412.91796875 245.23046875 l 1
 736.255859375 245.23046875 l 1
 736.255859375 298.780273438 l 2
 736.255859375 371.76953125 718.657226562 424.391601562 684.947265625 458.1015625 c 0
 650.857421875 492.19140625 605.654296875 509.41015625 548.065429688 509.41015625 c 0
 480.409179688 509.41015625 431.484375 487.465820312 399.16015625 444.151367188 c 2
 392.766601562 435.583007812 l 1
 386.71484375 444.397460938 l 2
 357.27734375 487.272460938 306.905273438 509.41015625 232.885742188 509.41015625 c 0
 178.306640625 509.41015625 136.3828125 496.447265625 106.186523438 471.390625 c 0
 76.599609375 446.83984375 61.626953125 414.767578125 61.0341796875 373.75 c 1
 113.125 373.75 l 1
 114.208984375 401.5 125.215820312 424.3671875 146.014648438 440.936523438 c 0
 167.857421875 458.336914062 197.432617188 466.5703125 233.907226562 466.5703125 c 0
 260.740234375 466.5703125 358.856445312 462.9921875 358.856445312 345.69921875 c 2
 358.856445312 278.888671875 l 1
 211.466796875 278.888671875 l 2xee
548.067382812 461.46875 m 0
 588.903320312 461.46875 621.90234375 450.103515625 645.745117188 426.629882812 c 0
 670.1640625 402.586914062 681.178710938 362.521484375 681.178710938 307.958984375 c 2
 681.178710938 281.94921875 l 1
 412.918945312 281.94921875 l 1
 412.918945312 300.819335938 l 2
 412.918945312 358.09375 424.435546875 400.028320312 449.879882812 425.09765625 c 0
 474.637695312 449.491210938 507.787109375 461.46875 548.067382812 461.46875 c 0
99.779296875 139.658203125 m 0
 99.779296875 192.4375 124.9296875 243.1875 221.668945312 243.1875 c 2
 358.858398438 243.1875 l 1
 358.858398438 173.318359375 l 2
 358.858398438 100.658203125 328.869140625 35.1083984375 220.6484375 35.1083984375 c 0
 184.6875 35.1083984375 99.779296875 40.962890625 99.779296875 139.658203125 c 0
EndSplineSet
EndChar

StartChar: ccedilla
Encoding: 231 231 168
Width: 502
GlyphClass: 2
Flags: MW
HStem: -5.69434 46.9248<240.296 240.296> 461.469 47.9414<232.542 280.158 221.357 292.218>
VStem: 57.9561 54.0586<163.675 300.82 202.9 300.82 300.82 304.9> 383.315 52.0107<155.47 155.47>
LayerCount: 2
Fore
SplineSet
254.303710938 461.46875 m 0
 330.131835938 461.46875 382.185546875 421.6796875 383.314453125 347.23046875 c 1
 435.341796875 347.23046875 l 1
 434.798828125 396.630859375 418.426757812 435.262695312 386.34765625 464.483398438 c 0
 353.7265625 494.198242188 309.069335938 509.41015625 251.24609375 509.41015625 c 0
 191.46875 509.41015625 144.807617188 492.909179688 110.096679688 460.470703125 c 0
 75.8701171875 428.483398438 57.9560546875 377.1875 57.9560546875 304.900390625 c 2
 57.9560546875 198.8203125 l 2
 57.9560546875 128.530273438 74.7236328125 78.1181640625 106.713867188 46.1279296875 c 0
 139.11328125 13.728515625 183.244140625 -3.7041015625 240.295898438 -5.6943359375 c 2
 251.061523438 -6.0703125 l 1
 194.08984375 -152.5703125 l 1
 249.786132812 -152.5703125 l 1
 299.419921875 -1.6416015625 l 1
 319.234375 2.447265625 365.389648438 11.9716796875 400.388671875 54.2626953125 c 0
 422.971679688 81.5498046875 434.678710938 115.022460938 435.326171875 155.469726562 c 1
 383.315429688 155.469726562 l 1
 382.783203125 120.3359375 371.18359375 91.8984375 348.079101562 71.681640625 c 0
 324.561523438 51.103515625 292.614257812 41.23046875 253.28515625 41.23046875 c 0
 209.765625 41.23046875 174.748046875 53.072265625 149.52734375 77.5625 c 0
 123.697265625 102.643554688 112.014648438 144.950195312 112.014648438 202.900390625 c 2
 112.014648438 300.8203125 l 2
 112.014648438 358.125 123.905273438 400.125 150.077148438 425.17578125 c 0
 175.62109375 449.624023438 210.78125 461.46875 254.303710938 461.46875 c 0
EndSplineSet
EndChar

